{
copyright = "Copyright (c) 2022 by Thanos Poulakidas. All rights reserved.";
designer = "Thanos Poulakidas";
familyName = Geom;
customParameters = (
{
name = glyphOrder;
value = (
.notdef,
NULL,
uni000D,
space,
quotedbl,
numbersign,
dollar,
percent,
ampersand,
quotesingle,
parenleft,
parenright,
asterisk,
plus,
comma,
hyphen,
period,
slash,
zero,
one,
two,
three,
four,
five,
six,
seven,
eight,
nine,
colon,
semicolon,
less,
equal,
greater,
question,
at,
A,
B,
C,
D,
E,
F,
G,
H,
I,
J,
K,
L,
M,
N,
O,
P,
Q,
R,
S,
T,
U,
V,
W,
X,
Y,
Z,
bracketleft,
backslash,
bracketright,
asciicircum,
underscore,
grave,
a,
b,
c,
d,
e,
f,
g,
h,
i,
j,
k,
l,
m,
n,
o,
p,
q,
r,
s,
t,
u,
v,
w,
x,
y,
z,
braceleft,
bar,
braceright,
asciitilde,
Euro,
quotesinglbase,
florin,
quotedblbase,
ellipsis,
dagger,
daggerdbl,
circumflex,
perthousand,
guilsinglleft,
quoteleft,
quoteright,
quotedblleft,
quotedblright,
bullet,
endash,
emdash,
tilde,
trademark,
guilsinglright,
exclamdown,
cent,
sterling,
currency,
yen,
brokenbar,
section,
dieresis,
copyright,
ordfeminine,
guillemotleft,
logicalnot,
registered,
degree,
plusminus,
acute,
paragraph,
cedilla,
ordmasculine,
guillemotright,
onequarter,
onehalf,
threequarters,
questiondown,
germandbls,
divide,
oslash,
fraction,
fi,
fl,
breve,
dotaccent,
ring,
hungarumlaut,
ogonek,
caron,
dotlessi,
greaterequal,
radical,
notequal,
product,
summation,
lessequal,
uni02C9,
lozenge,
minus,
uni2215,
approxequal,
integral,
uni2113,
partialdiff,
uni0394,
infinity,
uni03A9,
uni2219,
estimated,
exclam,
Alpha,
Epsilon,
Eta,
Iota,
Kappa,
Mu,
Nu,
Omicron,
Chi,
Tau,
Rho,
Upsilon,
uni0394.1,
uni03A9.1,
Lambda,
Beta,
Zeta,
Pi,
Xi,
Sigma,
Psi,
omicron,
kappa,
nu,
tonos,
Alphatonos,
Epsilontonos,
Etatonos,
Iotatonos,
Omicrontonos,
Upsilontonos,
Gamma,
Theta,
Iotadieresis,
Upsilondieresis,
dieresistonos,
alpha,
rho,
iota,
eta,
gamma,
upsilon,
beta,
pi,
uni03BC,
tau,
Phi,
chi,
sigma,
theta,
lambda,
psi,
epsilon,
delta,
alphatonos,
etatonos,
iotatonos,
omicrontonos,
upsilontonos,

glyphs = (
{
glyphname = .notdef;
layers = (
{
layerId = "0E77000D-43E9-4C80-9DAA-F2DD3D3A742F";
paths = (
{
closed = 1;
nodes = (
"-8 0 LINE",
"521 0 LINE",
"521 720 LINE",
"-8 720 LINE"
);
},
{
closed = 1;
nodes = (
"257 421 LINE",
"94 663 LINE",
"418 663 LINE"
);
},
{
closed = 1;
nodes = (
"296 360 LINE",
"451 593 LINE",
"451 128 LINE"
);
},
{
closed = 1;
nodes = (
"94 57 LINE",
"257 300 LINE",
"418 57 LINE"
);
},
{
closed = 1;
nodes = (
"62 594 LINE",
"217 360 LINE",
"62 128 LINE"
);
}
);
width = 515;
},
{
layerId = "A901A9D0-A2D8-4DE6-ABBE-EA4AB0B05523";
paths = (
{
closed = 1;
nodes = (
"-6 0 LINE",
"519 0 LINE",
"519 720 LINE",
"-6 720 LINE"
);
},
{
closed = 1;
nodes = (
"256 419 LINE",
"91 663 LINE",
"421 663 LINE"
);
},
{
closed = 1;
nodes = (
"294 360 LINE",
"454 599 LINE",
"454 123 LINE"
);
},
{
closed = 1;
nodes = (
"91 57 LINE",
"256 303 LINE",
"421 57 LINE"
);
},
{
closed = 1;
nodes = (
"59 600 LINE",
"219 360 LINE",
"59 123 LINE"
);
}
);
width = 515;
}
);
},
{
glyphname = quotedbl;
layers = (
{
layerId = "0E77000D-43E9-4C80-9DAA-F2DD3D3A742F";
paths = (
{
closed = 1;
nodes = (
"129 341 LINE",
"256 697 LINE",
"256 699 LINE",
"256 700 LINE",
"52 700 LINE",
"30 341 LINE"
);
},
{
closed = 1;
nodes = (
"286 341 LINE",
"386 341 LINE",
"513 697 LINE",
"513 699 LINE",
"513 700 LINE",
"309 700 LINE"
);
}
);
width = 542;
},
{
layerId = "A901A9D0-A2D8-4DE6-ABBE-EA4AB0B05523";
paths = (
{
closed = 1;
nodes = (
"108 443 LINE",
"158 655 LINE",
"170 708 LINE",
"170 708 LINE",
"79 708 LINE",
"53 443 LINE"
);
},
{
closed = 1;
nodes = (
"232 443 LINE",
"287 443 LINE",
"337 655 LINE",
"349 708 LINE",
"349 708 LINE",
"258 708 LINE"
);
}
);
width = 401;
}
);
unicode = 0022;
},
{
glyphname = numbersign;
layers = (
{
layerId = "0E77000D-43E9-4C80-9DAA-F2DD3D3A742F";
paths = (
{
closed = 1;
nodes = (
"94 0 LINE",
"239 0 LINE",
"262 135 LINE",
"389 135 LINE",
"365 0 LINE",
"510 0 LINE",
"534 135 LINE",
"653 135 LINE",
"653 296 LINE",
"561 296 LINE",
"580 408 LINE",
"686 408 LINE",
"686 569 LINE",
"608 569 LINE",
"630 700 LINE",
"485 700 LINE",
"463 569 LINE",
"336 569 LINE",
"359 700 LINE",
"214 700 LINE",
"192 569 LINE",
"72 569 LINE",
"72 408 LINE",
"164 408 LINE",
"145 296 LINE",
"39 296 LINE",
"39 135 LINE",
"117 135 LINE"
);
},
{
closed = 1;
nodes = (
"439 412 LINE",
"419 292 LINE",
"285 292 LINE",
"306 412 LINE"
);
}
);
width = 724;
},
{
layerId = "A901A9D0-A2D8-4DE6-ABBE-EA4AB0B05523";
paths = (
{
closed = 1;
nodes = (
"114 0 LINE",
"187 0 LINE",
"216 194 LINE",
"379 194 LINE",
"351 0 LINE",
"424 0 LINE",
"452 194 LINE",
"569 194 LINE",
"569 266 LINE",
"463 266 LINE",
"492 446 LINE",
"602 446 LINE",
"602 518 LINE",
"503 518 LINE",
"529 706 LINE",
"457 706 LINE",
"430 518 LINE",
"267 518 LINE",
"294 706 LINE",
"222 706 LINE",
"193 518 LINE",
"72 518 LINE",
"72 446 LINE",
"183 446 LINE",
"155 266 LINE",
"39 266 LINE",
"39 195 LINE",
"144 195 LINE"
);
},
{
closed = 1;
nodes = (
"419 446 LINE",
"390 266 LINE",
"227 266 LINE",
"255 446 LINE"
);
}
);
width = 640;
}
);
unicode = 0023;
},
{
glyphname = dollar;
layers = (
{
layerId = "0E77000D-43E9-4C80-9DAA-F2DD3D3A742F";
paths = (
{
closed = 1;
nodes = (
"313 -98 LINE",
"417 -98 LINE",
"417 0 LINE",
"470 5 OFFCURVE",
"557 38 OFFCURVE",
"619 92 OFFCURVE",
"653 166 OFFCURVE",
"653 212 QCURVE SMOOTH",
"653 304 OFFCURVE",
"533 402 OFFCURVE",
"414 430 QCURVE",
"414 555 LINE",
"447 549 OFFCURVE",
"503 520 OFFCURVE",
"527 491 QCURVE",
"624 599 LINE",
"588 639 OFFCURVE",
"481 691 OFFCURVE",
"419 698 QCURVE",
"419 758 LINE",
"315 758 LINE",
"315 701 LINE",
"258 697 OFFCURVE",
"169 663 OFFCURVE",
"108 608 OFFCURVE",
"76 534 OFFCURVE",
"76 490 QCURVE SMOOTH",
"76 444 OFFCURVE",
"107 374 OFFCURVE",
"168 323 OFFCURVE",
"259 286 OFFCURVE",
"319 272 QCURVE",
"319 145 LINE",
"277 150 OFFCURVE",
"193 198 OFFCURVE",
"164 234 QCURVE",
"53 115 LINE",
"110 59 OFFCURVE",
"246 2 OFFCURVE",
"313 2 QCURVE"
);
},
{
closed = 1;
nodes = (
"480 179 OFFCURVE",
"448 150 OFFCURVE",
"413 146 QCURVE",
"413 256 LINE",
"433 250 OFFCURVE",
"458 238 OFFCURVE",
"474 223 OFFCURVE",
"480 208 OFFCURVE",
"480 199 QCURVE SMOOTH"
);
},
{
closed = 1;
nodes = (
"252 524 OFFCURVE",
"283 552 OFFCURVE",
"320 555 QCURVE",
"320 447 LINE",
"279 458 OFFCURVE",
"252 488 OFFCURVE",
"252 505 QCURVE SMOOTH"
);
}
);
width = 700;
},
{
layerId = "A901A9D0-A2D8-4DE6-ABBE-EA4AB0B05523";
paths = (
{
closed = 1;
nodes = (
"291 -95 LINE",
"356 -95 LINE",
"356 -4 LINE",
"400 1 OFFCURVE",
"473 33 OFFCURVE",
"526 85 OFFCURVE",
"556 153 OFFCURVE",
"556 192 QCURVE SMOOTH",
"556 260 OFFCURVE",
"459 352 OFFCURVE",
"355 389 QCURVE",
"355 638 LINE",
"391 634 OFFCURVE",
"452 598 OFFCURVE",
"470 572 QCURVE",
"521 624 LINE",
"500 653 OFFCURVE",
"422 705 OFFCURVE",
"356 711 QCURVE",
"356 777 LINE",
"291 777 LINE",
"291 710 LINE",
"250 706 OFFCURVE",
"179 676 OFFCURVE",
"127 628 OFFCURVE",
"97 564 OFFCURVE",
"97 525 QCURVE SMOOTH",
"97 487 OFFCURVE",
"124 426 OFFCURVE",
"174 376 OFFCURVE",
"246 338 OFFCURVE",
"291 322 QCURVE",
"291 65 LINE",
"235 68 OFFCURVE",
"148 118 OFFCURVE",
"116 151 QCURVE",
"68 98 LINE",
"106 56 OFFCURVE",
"219 -4 OFFCURVE",
"291 -4 QCURVE"
);
},
{
closed = 1;
nodes = (
"474 136 OFFCURVE",
"417 75 OFFCURVE",
"356 66 QCURVE",
"356 302 LINE",
"393 290 OFFCURVE",
"439 260 OFFCURVE",
"465 227 OFFCURVE",
"474 194 OFFCURVE",
"474 179 QCURVE SMOOTH"
);
},
{
closed = 1;
nodes = (
"179 577 OFFCURVE",
"236 634 OFFCURVE",
"291 640 QCURVE",
"291 412 LINE",
"240 435 OFFCURVE",
"179 488 OFFCURVE",
"179 534 QCURVE SMOOTH"
);
}
);
width = 633;
}
);
unicode = 0024;
},
{
glyphname = percent;
layers = (
{
layerId = "0E77000D-43E9-4C80-9DAA-F2DD3D3A742F";
paths = (
{
closed = 1;
nodes = (
"388 561 OFFCURVE",
"362 629 OFFCURVE",
"315 680 OFFCURVE",
"249 710 OFFCURVE",
"208 710 QCURVE SMOOTH",
"167 710 OFFCURVE",
"100 680 OFFCURVE",
"53 629 OFFCURVE",
"27 561 OFFCURVE",
"27 522 QCURVE SMOOTH",
"27 483 OFFCURVE",
"53 415 OFFCURVE",
"100 363 OFFCURVE",
"167 333 OFFCURVE",
"207 333 QCURVE SMOOTH",
"248 333 OFFCURVE",
"314 363 OFFCURVE",
"362 415 OFFCURVE",
"388 484 OFFCURVE",
"388 523 QCURVE SMOOTH"
);
},
{
closed = 1;
nodes = (
"266 489 OFFCURVE",
"234 443 OFFCURVE",
"208 443 QCURVE SMOOTH",
"183 443 OFFCURVE",
"149 489 OFFCURVE",
"149 523 QCURVE SMOOTH",
"149 556 OFFCURVE",
"181 600 OFFCURVE",
"207 600 QCURVE SMOOTH",
"233 600 OFFCURVE",
"266 555 OFFCURVE",
"266 522 QCURVE SMOOTH"
);
},
{
closed = 1;
nodes = (
"856 219 OFFCURVE",
"830 287 OFFCURVE",
"783 338 OFFCURVE",
"717 367 OFFCURVE",
"676 367 QCURVE SMOOTH",
"635 367 OFFCURVE",
"568 337 OFFCURVE",
"521 286 OFFCURVE",
"495 218 OFFCURVE",
"495 179 QCURVE SMOOTH",
"495 141 OFFCURVE",
"521 72 OFFCURVE",
"568 20 OFFCURVE",
"635 -10 OFFCURVE",
"675 -10 QCURVE SMOOTH",
"716 -10 OFFCURVE",
"782 21 OFFCURVE",
"830 73 OFFCURVE",
"856 142 OFFCURVE",
"856 180 QCURVE SMOOTH"
);
},
{
closed = 1;
nodes = (
"734 146 OFFCURVE",
"702 100 OFFCURVE",
"676 100 QCURVE SMOOTH",
"651 100 OFFCURVE",
"617 147 OFFCURVE",
"617 180 QCURVE SMOOTH",
"617 214 OFFCURVE",
"648 257 OFFCURVE",
"675 257 QCURVE SMOOTH",
"701 257 OFFCURVE",
"734 213 OFFCURVE",
"734 179 QCURVE SMOOTH"
);
},
{
closed = 1;
nodes = (
"779 700 LINE",
"644 700 LINE",
"104 0 LINE",
"239 0 LINE"
);
}
);
width = 885;
},
{
layerId = "A901A9D0-A2D8-4DE6-ABBE-EA4AB0B05523";
paths = (
{
closed = 1;
nodes = (
"362 582 OFFCURVE",
"339 647 OFFCURVE",
"295 695 OFFCURVE",
"235 723 OFFCURVE",
"197 723 QCURVE SMOOTH",
"161 723 OFFCURVE",
"100 695 OFFCURVE",
"56 646 OFFCURVE",
"31 580 OFFCURVE",
"31 543 QCURVE SMOOTH",
"31 505 OFFCURVE",
"55 438 OFFCURVE",
"99 389 OFFCURVE",
"159 361 OFFCURVE",
"196 361 QCURVE SMOOTH",
"233 361 OFFCURVE",
"294 390 OFFCURVE",
"338 439 OFFCURVE",
"362 506 OFFCURVE",
"362 544 QCURVE SMOOTH"
);
},
{
closed = 1;
nodes = (
"295 488 OFFCURVE",
"244 421 OFFCURVE",
"197 421 QCURVE SMOOTH",
"152 421 OFFCURVE",
"98 488 OFFCURVE",
"98 543 QCURVE SMOOTH",
"98 595 OFFCURVE",
"151 663 OFFCURVE",
"196 663 QCURVE SMOOTH",
"238 663 OFFCURVE",
"295 596 OFFCURVE",
"295 539 QCURVE SMOOTH"
);
},
{
closed = 1;
nodes = (
"781 207 OFFCURVE",
"757 272 OFFCURVE",
"714 320 OFFCURVE",
"653 348 OFFCURVE",
"616 348 QCURVE SMOOTH",
"580 348 OFFCURVE",
"520 320 OFFCURVE",
"476 272 OFFCURVE",
"451 206 OFFCURVE",
"451 168 QCURVE SMOOTH",
"451 131 OFFCURVE",
"474 66 OFFCURVE",
"517 17 OFFCURVE",
"578 -11 OFFCURVE",
"615 -11 QCURVE SMOOTH",
"652 -11 OFFCURVE",
"713 17 OFFCURVE",
"757 66 OFFCURVE",
"781 132 OFFCURVE",
"781 169 QCURVE SMOOTH"
);
},
{
closed = 1;
nodes = (
"714 117 OFFCURVE",
"662 49 OFFCURVE",
"616 49 QCURVE SMOOTH",
"574 49 OFFCURVE",
"518 112 OFFCURVE",
"518 168 QCURVE SMOOTH",
"518 222 OFFCURVE",
"570 288 OFFCURVE",
"615 288 QCURVE SMOOTH",
"659 288 OFFCURVE",
"714 222 OFFCURVE",
"714 168 QCURVE SMOOTH"
);
},
{
closed = 1;
nodes = (
"677 709 LINE",
"611 723 LINE",
"129 -4 LINE",
"195 -19 LINE"
);
}
);
width = 814;
}
);
unicode = 0025;
},
{
glyphname = ampersand;
layers = (
{
layerId = "0E77000D-43E9-4C80-9DAA-F2DD3D3A742F";
paths = (
{
closed = 1;
nodes = (
"391 161 LINE",
"371 147 OFFCURVE",
"329 131 OFFCURVE",
"308 131 QCURVE SMOOTH",
"290 131 OFFCURVE",
"260 141 OFFCURVE",
"238 159 OFFCURVE",
"226 185 OFFCURVE",
"226 200 QCURVE SMOOTH",
"226 223 OFFCURVE",
"250 262 OFFCURVE",
"276 278 QCURVE"
);
},
{
closed = 1;
nodes = (
"563 385 LINE",
"547 355 OFFCURVE",
"514 299 OFFCURVE",
"497 274 QCURVE",
"419 355 LINE",
"481 384 OFFCURVE",
"556 473 OFFCURVE",
"556 537 QCURVE SMOOTH",
"556 576 OFFCURVE",
"527 643 OFFCURVE",
"473 691 OFFCURVE",
"396 719 OFFCURVE",
"348 719 QCURVE SMOOTH",
"297 719 OFFCURVE",
"215 688 OFFCURVE",
"158 636 OFFCURVE",
"128 567 OFFCURVE",
"128 529 QCURVE SMOOTH",
"128 494 OFFCURVE",
"150 423 OFFCURVE",
"174 388 QCURVE",
"102 356 OFFCURVE",
"32 258 OFFCURVE",
"32 192 QCURVE SMOOTH",
"32 144 OFFCURVE",
"70 68 OFFCURVE",
"137 15 OFFCURVE",
"228 -12 OFFCURVE",
"282 -12 QCURVE SMOOTH",
"343 -12 OFFCURVE",
"445 25 OFFCURVE",
"490 59 QCURVE",
"550 -5 LINE",
"725 34 LINE",
"599 173 LINE",
"624 207 OFFCURVE",
"676 301 OFFCURVE",
"698 341 QCURVE"
);
},
{
closed = 1;
nodes = (
"372 586 OFFCURVE",
"402 556 OFFCURVE",
"402 530 QCURVE SMOOTH",
"402 504 OFFCURVE",
"366 461 OFFCURVE",
"328 442 QCURVE",
"310 465 OFFCURVE",
"292 502 OFFCURVE",
"292 522 QCURVE SMOOTH",
"292 551 OFFCURVE",
"323 586 OFFCURVE",
"348 586 QCURVE SMOOTH"
);
}
);
width = 734;
},
{
layerId = "A901A9D0-A2D8-4DE6-ABBE-EA4AB0B05523";
paths = (
{
closed = 1;
nodes = (
"422 150 LINE",
"390 110 OFFCURVE",
"309 57 OFFCURVE",
"259 57 QCURVE SMOOTH",
"228 57 OFFCURVE",
"176 79 OFFCURVE",
"139 116 OFFCURVE",
"119 167 OFFCURVE",
"119 196 QCURVE SMOOTH",
"119 250 OFFCURVE",
"184 326 OFFCURVE",
"244 352 QCURVE"
);
},
{
closed = 1;
nodes = (
"557 371 LINE",
"539 329 OFFCURVE",
"499 255 OFFCURVE",
"474 217 QCURVE",
"320 388 LINE",
"390 417 OFFCURVE",
"477 501 OFFCURVE",
"477 568 QCURVE SMOOTH",
"477 599 OFFCURVE",
"452 654 OFFCURVE",
"407 695 OFFCURVE",
"345 719 OFFCURVE",
"307 719 QCURVE SMOOTH",
"270 719 OFFCURVE",
"206 696 OFFCURVE",
"160 655 OFFCURVE",
"133 597 OFFCURVE",
"133 561 QCURVE SMOOTH",
"133 519 OFFCURVE",
"171 444 OFFCURVE",
"202 406 QCURVE",
"122 376 OFFCURVE",
"32 270 OFFCURVE",
"32 192 QCURVE SMOOTH",
"32 146 OFFCURVE",
"66 70 OFFCURVE",
"126 18 OFFCURVE",
"207 -11 OFFCURVE",
"254 -11 QCURVE SMOOTH",
"321 -11 OFFCURVE",
"424 43 OFFCURVE",
"470 91 QCURVE",
"563 -5 LINE",
"655 12 LINE",
"522 158 LINE",
"552 202 OFFCURVE",
"606 297 OFFCURVE",
"630 347 QCURVE"
);
},
{
closed = 1;
nodes = (
"344 651 OFFCURVE",
"397 603 OFFCURVE",
"397 563 QCURVE SMOOTH",
"397 522 OFFCURVE",
"328 457 OFFCURVE",
"278 438 QCURVE",
"248 473 OFFCURVE",
"213 533 OFFCURVE",
"213 562 QCURVE SMOOTH",
"213 602 OFFCURVE",
"266 651 OFFCURVE",
"306 651 QCURVE SMOOTH"
);
}
);
width = 658;
}
);
unicode = 0026;
},
{
glyphname = quotesingle;
layers = (
{
layerId = "0E77000D-43E9-4C80-9DAA-F2DD3D3A742F";
paths = (
{
closed = 1;
nodes = (
"30 341 LINE",
"133 341 LINE",
"260 697 LINE",
"260 699 LINE",
"260 700 LINE",
"52 700 LINE"
);
}
);
width = 289;
},
{
layerId = "A901A9D0-A2D8-4DE6-ABBE-EA4AB0B05523";
paths = (
{
closed = 1;
nodes = (
"53 443 LINE",
"108 443 LINE",
"158 655 LINE",
"170 708 LINE",
"170 708 LINE",
"78 708 LINE"
);
}
);
width = 222;
}
);
unicode = 0027;
},
{
glyphname = parenleft;
layers = (
{
layerId = "0E77000D-43E9-4C80-9DAA-F2DD3D3A742F";
paths = (
{
closed = 1;
nodes = (
"246 385 OFFCURVE",
"334 530 OFFCURVE",
"431 597 QCURVE",
"336 706 LINE",
"274 671 OFFCURVE",
"172 589 OFFCURVE",
"100 487 OFFCURVE",
"60 363 OFFCURVE",
"60 287 QCURVE SMOOTH",
"60 211 OFFCURVE",
"97 86 OFFCURVE",
"167 -16 OFFCURVE",
"268 -97 OFFCURVE",
"332 -130 QCURVE",
"431 -23 LINE",
"334 44 OFFCURVE",
"246 189 OFFCURVE",
"246 287 QCURVE SMOOTH"
);
}
);
width = 475;
},
{
layerId = "A901A9D0-A2D8-4DE6-ABBE-EA4AB0B05523";
paths = (
{
closed = 1;
nodes = (
"149 403 OFFCURVE",
"242 595 OFFCURVE",
"336 686 QCURVE",
"292 737 LINE",
"237 689 OFFCURVE",
"153 586 OFFCURVE",
"96 474 OFFCURVE",
"67 352 OFFCURVE",
"67 284 QCURVE SMOOTH",
"67 215 OFFCURVE",
"98 90 OFFCURVE",
"157 -21 OFFCURVE",
"241 -121 OFFCURVE",
"294 -164 QCURVE",
"335 -114 LINE",
"241 -23 OFFCURVE",
"149 166 OFFCURVE",
"149 284 QCURVE SMOOTH"
);
}
);
width = 356;
}
);
unicode = 0028;
},
{
glyphname = parenright;
layers = (
{
layerId = "0E77000D-43E9-4C80-9DAA-F2DD3D3A742F";
paths = (
{
closed = 1;
nodes = (
"228 189 OFFCURVE",
"140 44 OFFCURVE",
"43 -23 QCURVE",
"142 -130 LINE",
"208 -96 OFFCURVE",
"309 -15 OFFCURVE",
"378 87 OFFCURVE",
"414 211 OFFCURVE",
"414 287 QCURVE SMOOTH",
"414 363 OFFCURVE",
"377 487 OFFCURVE",
"306 588 OFFCURVE",
"204 671 OFFCURVE",
"138 706 QCURVE",
"43 597 LINE",
"140 530 OFFCURVE",
"228 385 OFFCURVE",
"228 287 QCURVE SMOOTH"
);
}
);
width = 475;
},
{
layerId = "A901A9D0-A2D8-4DE6-ABBE-EA4AB0B05523";
paths = (
{
closed = 1;
nodes = (
"210 169 OFFCURVE",
"120 -23 OFFCURVE",
"22 -114 QCURVE",
"65 -164 LINE",
"118 -119 OFFCURVE",
"203 -18 OFFCURVE",
"261 93 OFFCURVE",
"292 216 OFFCURVE",
"292 284 QCURVE SMOOTH",
"292 350 OFFCURVE",
"263 472 OFFCURVE",
"206 584 OFFCURVE",
"121 688 OFFCURVE",
"66 737 QCURVE",
"21 686 LINE",
"121 595 OFFCURVE",
"210 400 OFFCURVE",
"210 284 QCURVE SMOOTH"
);
}
);
width = 360;
}
);
unicode = 0029;
},
{
glyphname = asterisk;
layers = (
{
layerId = "0E77000D-43E9-4C80-9DAA-F2DD3D3A742F";
paths = (
{
closed = 1;
nodes = (
"157 554 LINE",
"31 510 LINE",
"55 435 LINE",
"182 478 LINE",
"182 340 LINE",
"264 340 LINE",
"264 476 LINE",
"388 435 LINE",
"413 510 LINE",
"290 552 LINE",
"365 663 LINE",
"299 710 LINE",
"222 602 LINE",
"145 710 LINE",
"79 663 LINE"
);
}
);
width = 443;
},
{
layerId = "A901A9D0-A2D8-4DE6-ABBE-EA4AB0B05523";
paths = (
{
closed = 1;
nodes = (
"131 608 LINE",
"31 573 LINE",
"51 515 LINE",
"150 549 LINE",
"150 440 LINE",
"211 440 LINE",
"211 548 LINE",
"309 515 LINE",
"328 573 LINE",
"231 607 LINE",
"292 693 LINE",
"242 725 LINE",
"181 644 LINE",
"118 725 LINE",
"68 690 LINE"
);
}
);
width = 360;
}
);
unicode = 002A;
},
{
glyphname = plus;
layers = (
{
layerId = "0E77000D-43E9-4C80-9DAA-F2DD3D3A742F";
paths = (
{
closed = 1;
nodes = (
"385 608 LINE",
"211 608 LINE",
"211 436 LINE",
"42 436 LINE",
"42 268 LINE",
"211 268 LINE",
"211 96 LINE",
"385 96 LINE",
"385 268 LINE",
"554 268 LINE",
"554 436 LINE",
"385 436 LINE"
);
}
);
width = 595;
},
{
layerId = "A901A9D0-A2D8-4DE6-ABBE-EA4AB0B05523";
paths = (
{
closed = 1;
nodes = (
"325 589 LINE",
"248 589 LINE",
"248 382 LINE",
"42 382 LINE",
"42 308 LINE",
"248 308 LINE",
"248 100 LINE",
"325 100 LINE",
"325 308 LINE",
"533 308 LINE",
"533 382 LINE",
"325 382 LINE"
);
}
);
width = 575;
}
);
unicode = 002B;
},
{
glyphname = comma;
layers = (
{
layerId = "0E77000D-43E9-4C80-9DAA-F2DD3D3A742F";
paths = (
{
closed = 1;
nodes = (
"228 197 LINE",
"57 197 LINE",
"-5 -164 LINE",
"125 -164 LINE"
);
}
);
width = 259;
},
{
layerId = "A901A9D0-A2D8-4DE6-ABBE-EA4AB0B05523";
paths = (
{
closed = 1;
nodes = (
"160 120 LINE",
"61 120 LINE",
"17 -139 LINE",
"86 -139 LINE"
);
}
);
width = 195;
}
);
unicode = 002C;
},
{
glyphname = hyphen;
layers = (
{
layerId = "0E77000D-43E9-4C80-9DAA-F2DD3D3A742F";
paths = (
{
closed = 1;
nodes = (
"360 396 LINE",
"32 396 LINE",
"32 229 LINE",
"360 229 LINE"
);
}
);
width = 393;
},
{
layerId = "A901A9D0-A2D8-4DE6-ABBE-EA4AB0B05523";
paths = (
{
closed = 1;
nodes = (
"302 311 LINE",
"31 311 LINE",
"31 234 LINE",
"302 234 LINE"
);
}
);
width = 334;
}
);
unicode = 002D;
},
{
glyphname = period;
layers = (
{
layerId = "0E77000D-43E9-4C80-9DAA-F2DD3D3A742F";
paths = (
{
closed = 1;
nodes = (
"51 43 OFFCURVE",
"116 -13 OFFCURVE",
"163 -13 QCURVE SMOOTH",
"211 -13 OFFCURVE",
"276 43 OFFCURVE",
"276 97 QCURVE SMOOTH",
"276 151 OFFCURVE",
"211 206 OFFCURVE",
"163 206 QCURVE SMOOTH",
"116 206 OFFCURVE",
"51 151 OFFCURVE",
"51 97 QCURVE SMOOTH"
);
}
);
width = 305;
},
{
layerId = "A901A9D0-A2D8-4DE6-ABBE-EA4AB0B05523";
paths = (
{
closed = 1;
nodes = (
"54 26 OFFCURVE",
"89 -10 OFFCURVE",
"114 -10 QCURVE SMOOTH",
"138 -10 OFFCURVE",
"173 26 OFFCURVE",
"173 50 QCURVE SMOOTH",
"173 75 OFFCURVE",
"138 110 OFFCURVE",
"114 110 QCURVE SMOOTH",
"89 110 OFFCURVE",
"54 75 OFFCURVE",
"54 50 QCURVE SMOOTH"
);
}
);
width = 211;
}
);
unicode = 002E;
},
{
glyphname = slash;
layers = (
{
layerId = "0E77000D-43E9-4C80-9DAA-F2DD3D3A742F";
paths = (
{
closed = 1;
nodes = (
"622 798 LINE",
"468 798 LINE",
"25 -128 LINE",
"179 -128 LINE"
);
}
);
width = 623;
},
{
layerId = "A901A9D0-A2D8-4DE6-ABBE-EA4AB0B05523";
paths = (
{
closed = 1;
nodes = (
"497 768 LINE",
"428 783 LINE",
"-1 -77 LINE",
"67 -90 LINE"
);
}
);
width = 494;
}
);
unicode = 002F;
},
{
glyphname = zero;
layers = (
{
layerId = "0E77000D-43E9-4C80-9DAA-F2DD3D3A742F";
paths = (
{
closed = 1;
nodes = (
"384 542 OFFCURVE",
"432 513 OFFCURVE",
"466 462 OFFCURVE",
"485 392 OFFCURVE",
"485 350 QCURVE SMOOTH",
"485 308 OFFCURVE",
"467 238 OFFCURVE",
"434 187 OFFCURVE",
"386 158 OFFCURVE",
"357 158 QCURVE SMOOTH",
"328 158 OFFCURVE",
"280 187 OFFCURVE",
"246 239 OFFCURVE",
"227 310 OFFCURVE",
"227 352 QCURVE SMOOTH",
"227 394 OFFCURVE",
"245 464 OFFCURVE",
"279 514 OFFCURVE",
"326 542 OFFCURVE",
"355 542 QCURVE SMOOTH"
);
},
{
closed = 1;
nodes = (
"282 714 OFFCURVE",
"162 656 OFFCURVE",
"78 557 OFFCURVE",
"32 424 OFFCURVE",
"32 350 QCURVE SMOOTH",
"32 276 OFFCURVE",
"77 143 OFFCURVE",
"160 44 OFFCURVE",
"280 -14 OFFCURVE",
"355 -14 QCURVE SMOOTH",
"430 -14 OFFCURVE",
"550 45 OFFCURVE",
"635 145 OFFCURVE",
"680 278 OFFCURVE",
"680 352 QCURVE SMOOTH",
"680 426 OFFCURVE",
"635 558 OFFCURVE",
"551 657 OFFCURVE",
"432 714 OFFCURVE",
"357 714 QCURVE SMOOTH"
);
}
);
width = 712;
},
{
layerId = "A901A9D0-A2D8-4DE6-ABBE-EA4AB0B05523";
paths = (
{
closed = 1;
nodes = (
"346 643 OFFCURVE",
"413 600 OFFCURVE",
"459 524 OFFCURVE",
"483 417 OFFCURVE",
"483 352 QCURVE SMOOTH",
"483 289 OFFCURVE",
"459 183 OFFCURVE",
"414 105 OFFCURVE",
"348 62 OFFCURVE",
"305 62 QCURVE SMOOTH",
"261 62 OFFCURVE",
"194 104 OFFCURVE",
"148 181 OFFCURVE",
"125 290 OFFCURVE",
"125 357 QCURVE SMOOTH",
"125 419 OFFCURVE",
"149 524 OFFCURVE",
"194 600 OFFCURVE",
"260 643 OFFCURVE",
"303 643 QCURVE SMOOTH"
);
},
{
closed = 1;
nodes = (
"239 719 OFFCURVE",
"139 665 OFFCURVE",
"72 568 OFFCURVE",
"38 434 OFFCURVE",
"38 354 QCURVE SMOOTH",
"38 270 OFFCURVE",
"72 134 OFFCURVE",
"139 38 OFFCURVE",
"238 -14 OFFCURVE",
"303 -14 QCURVE SMOOTH",
"369 -14 OFFCURVE",
"469 40 OFFCURVE",
"536 138 OFFCURVE",
"570 272 OFFCURVE",
"570 352 QCURVE SMOOTH",
"570 434 OFFCURVE",
"536 569 OFFCURVE",
"468 666 OFFCURVE",
"369 719 OFFCURVE",
"304 719 QCURVE SMOOTH"
);
}
);
width = 607;
}
);
unicode = 0030;
},
{
glyphname = one;
layers = (
{
layerId = "0E77000D-43E9-4C80-9DAA-F2DD3D3A742F";
paths = (
{
closed = 1;
nodes = (
"427 705 LINE",
"81 705 LINE",
"81 524 LINE",
"236 524 LINE",
"236 0 LINE",
"427 0 LINE"
);
}
);
width = 598;
},
{
layerId = "A901A9D0-A2D8-4DE6-ABBE-EA4AB0B05523";
paths = (
{
closed = 1;
nodes = (
"301 708 LINE",
"109 708 LINE",
"109 630 LINE",
"217 630 LINE",
"217 0 LINE",
"301 0 LINE"
);
}
);
width = 502;
}
);
unicode = 0031;
},
{
glyphname = two;
layers = (
{
layerId = "0E77000D-43E9-4C80-9DAA-F2DD3D3A742F";
paths = (
{
closed = 1;
nodes = (
"267 712 OFFCURVE",
"168 679 OFFCURVE",
"92 613 OFFCURVE",
"47 516 OFFCURVE",
"47 453 QCURVE",
"224 453 LINE",
"224 477 OFFCURVE",
"240 511 OFFCURVE",
"267 533 OFFCURVE",
"300 543 OFFCURVE",
"317 543 QCURVE SMOOTH",
"334 543 OFFCURVE",
"363 533 OFFCURVE",
"384 515 OFFCURVE",
"395 489 OFFCURVE",
"395 472 QCURVE SMOOTH",
"395 446 OFFCURVE",
"362 374 OFFCURVE",
"323 328 QCURVE SMOOTH",
"43 0 LINE",
"597 0 LINE",
"597 158 LINE",
"409 158 LINE",
"472 242 LINE SMOOTH",
"501 280 OFFCURVE",
"545 343 OFFCURVE",
"575 401 OFFCURVE",
"590 458 OFFCURVE",
"590 489 QCURVE SMOOTH",
"590 539 OFFCURVE",
"552 621 OFFCURVE",
"482 679 OFFCURVE",
"383 712 OFFCURVE",
"322 712 QCURVE SMOOTH"
);
}
);
width = 650;
},
{
layerId = "A901A9D0-A2D8-4DE6-ABBE-EA4AB0B05523";
paths = (
{
closed = 1;
nodes = (
"247 718 OFFCURVE",
"167 694 OFFCURVE",
"107 644 OFFCURVE",
"68 566 OFFCURVE",
"59 513 QCURVE",
"152 513 LINE",
"157 542 OFFCURVE",
"180 589 OFFCURVE",
"215 623 OFFCURVE",
"265 642 OFFCURVE",
"297 642 QCURVE SMOOTH",
"332 642 OFFCURVE",
"379 624 OFFCURVE",
"408 594 OFFCURVE",
"421 556 OFFCURVE",
"421 536 QCURVE SMOOTH",
"421 494 OFFCURVE",
"364 388 OFFCURVE",
"301 310 QCURVE SMOOTH",
"47 0 LINE",
"524 0 LINE",
"524 76 LINE",
"208 76 LINE",
"367 266 LINE SMOOTH",
"405 311 OFFCURVE",
"459 384 OFFCURVE",
"493 447 OFFCURVE",
"510 502 OFFCURVE",
"510 528 QCURVE SMOOTH",
"510 568 OFFCURVE",
"477 638 OFFCURVE",
"420 689 OFFCURVE",
"342 718 OFFCURVE",
"296 718 QCURVE SMOOTH"
);
}
);
width = 579;
}
);
unicode = 0032;
},
{
glyphname = three;
layers = (
{
layerId = "0E77000D-43E9-4C80-9DAA-F2DD3D3A742F";
paths = (
{
closed = 1;
nodes = (
"592 561 LINE",
"592 700 LINE",
"86 700 LINE",
"86 543 LINE",
"354 543 LINE",
"193 398 LINE",
"221 297 LINE",
"226 297 OFFCURVE",
"250 297 OFFCURVE",
"275 297 OFFCURVE",
"298 297 OFFCURVE",
"303 297 QCURVE SMOOTH",
"330 297 OFFCURVE",
"373 287 OFFCURVE",
"402 269 OFFCURVE",
"417 242 OFFCURVE",
"417 225 QCURVE SMOOTH",
"417 209 OFFCURVE",
"404 182 OFFCURVE",
"379 163 OFFCURVE",
"344 152 OFFCURVE",
"322 152 QCURVE SMOOTH",
"284 152 OFFCURVE",
"207 186 OFFCURVE",
"173 219 QCURVE",
"38 110 LINE",
"89 53 OFFCURVE",
"238 -14 OFFCURVE",
"333 -14 QCURVE SMOOTH",
"395 -14 OFFCURVE",
"496 20 OFFCURVE",
"567 81 OFFCURVE",
"606 168 OFFCURVE",
"606 221 QCURVE SMOOTH",
"606 266 OFFCURVE",
"578 332 OFFCURVE",
"528 380 OFFCURVE",
"463 410 OFFCURVE",
"425 418 QCURVE"
);
}
);
width = 663;
},
{
layerId = "A901A9D0-A2D8-4DE6-ABBE-EA4AB0B05523";
paths = (
{
closed = 1;
nodes = (
"497 644 LINE",
"497 718 LINE",
"85 718 LINE",
"85 642 LINE",
"391 642 LINE",
"179 415 LINE",
"190 370 LINE",
"199 372 OFFCURVE",
"217 375 OFFCURVE",
"235 376 OFFCURVE",
"253 377 OFFCURVE",
"262 377 QCURVE SMOOTH",
"300 377 OFFCURVE",
"365 360 OFFCURVE",
"413 323 OFFCURVE",
"441 263 OFFCURVE",
"441 221 QCURVE SMOOTH",
"441 184 OFFCURVE",
"417 126 OFFCURVE",
"375 85 OFFCURVE",
"318 63 OFFCURVE",
"285 63 QCURVE SMOOTH",
"218 63 OFFCURVE",
"136 137 OFFCURVE",
"113 206 QCURVE",
"44 156 LINE",
"71 81 OFFCURVE",
"194 -13 OFFCURVE",
"284 -13 QCURVE SMOOTH",
"336 -13 OFFCURVE",
"425 24 OFFCURVE",
"489 89 OFFCURVE",
"526 176 OFFCURVE",
"526 225 QCURVE SMOOTH",
"526 276 OFFCURVE",
"492 355 OFFCURVE",
"432 411 OFFCURVE",
"350 441 OFFCURVE",
"302 442 QCURVE"
);
}
);
width = 594;
}
);
unicode = 0033;
},
{
glyphname = four;
layers = (
{
layerId = "0E77000D-43E9-4C80-9DAA-F2DD3D3A742F";
paths = (
{
closed = 1;
nodes = (
"391 705 LINE",
"28 274 LINE",
"60 136 LINE",
"399 136 LINE",
"399 0 LINE",
"587 0 LINE",
"587 136 LINE",
"676 136 LINE",
"676 281 LINE",
"587 281 LINE",
"587 705 LINE"
);
},
{
closed = 1;
nodes = (
"399 281 LINE",
"232 281 LINE",
"399 481 LINE"
);
}
);
width = 699;
},
{
layerId = "A901A9D0-A2D8-4DE6-ABBE-EA4AB0B05523";
paths = (
{
closed = 1;
nodes = (
"361 712 LINE",
"16 229 LINE",
"32 153 LINE",
"406 153 LINE",
"406 0 LINE",
"488 0 LINE",
"488 153 LINE",
"586 153 LINE",
"586 226 LINE",
"488 226 LINE",
"488 712 LINE"
);
},
{
closed = 1;
nodes = (
"406 226 LINE",
"113 226 LINE",
"406 635 LINE"
);
}
);
width = 609;
}
);
unicode = 0034;
},
{
glyphname = five;
layers = (
{
layerId = "0E77000D-43E9-4C80-9DAA-F2DD3D3A742F";
paths = (
{
closed = 1;
nodes = (
"213 281 LINE",
"238 296 OFFCURVE",
"293 316 OFFCURVE",
"325 316 QCURVE SMOOTH",
"348 316 OFFCURVE",
"386 305 OFFCURVE",
"413 284 OFFCURVE",
"428 254 OFFCURVE",
"428 235 QCURVE SMOOTH",
"428 197 OFFCURVE",
"373 151 OFFCURVE",
"325 151 QCURVE SMOOTH",
"280 151 OFFCURVE",
"198 191 OFFCURVE",
"155 227 QCURVE",
"44 97 LINE",
"99 46 OFFCURVE",
"234 -14 OFFCURVE",
"328 -14 QCURVE SMOOTH",
"392 -14 OFFCURVE",
"498 21 OFFCURVE",
"575 85 OFFCURVE",
"617 179 OFFCURVE",
"617 237 QCURVE SMOOTH",
"617 294 OFFCURVE",
"577 378 OFFCURVE",
"511 432 OFFCURVE",
"424 459 OFFCURVE",
"377 459 QCURVE SMOOTH",
"342 459 OFFCURVE",
"289 445 OFFCURVE",
"265 434 QCURVE",
"271 540 LINE",
"586 540 LINE",
"586 700 LINE",
"118 700 LINE",
"98 345 LINE"
);
}
);
width = 666;
},
{
layerId = "A901A9D0-A2D8-4DE6-ABBE-EA4AB0B05523";
paths = (
{
closed = 1;
nodes = (
"157 350 LINE",
"181 359 OFFCURVE",
"229 369 OFFCURVE",
"255 369 QCURVE SMOOTH",
"293 369 OFFCURVE",
"358 347 OFFCURVE",
"406 306 OFFCURVE",
"433 251 OFFCURVE",
"433 218 QCURVE SMOOTH",
"433 149 OFFCURVE",
"344 62 OFFCURVE",
"266 62 QCURVE SMOOTH",
"216 62 OFFCURVE",
"130 103 OFFCURVE",
"93 139 QCURVE",
"44 83 LINE",
"92 38 OFFCURVE",
"194 -13 OFFCURVE",
"266 -13 QCURVE SMOOTH",
"323 -13 OFFCURVE",
"416 21 OFFCURVE",
"482 82 OFFCURVE",
"518 169 OFFCURVE",
"518 222 QCURVE SMOOTH",
"518 273 OFFCURVE",
"480 355 OFFCURVE",
"415 413 OFFCURVE",
"327 444 OFFCURVE",
"277 444 QCURVE SMOOTH",
"249 444 OFFCURVE",
"199 433 OFFCURVE",
"170 424 QCURVE",
"192 630 LINE",
"488 630 LINE",
"495 705 LINE",
"124 705 LINE",
"92 381 LINE"
);
}
);
width = 588;
}
);
unicode = 0035;
},
{
glyphname = six;
layers = (
{
layerId = "0E77000D-43E9-4C80-9DAA-F2DD3D3A742F";
paths = (
{
closed = 1;
nodes = (
"288 706 LINE",
"160 515 LINE SMOOTH",
"122 458 OFFCURVE",
"72 373 OFFCURVE",
"42 306 OFFCURVE",
"30 250 OFFCURVE",
"30 222 QCURVE SMOOTH",
"30 170 OFFCURVE",
"71 84 OFFCURVE",
"149 21 OFFCURVE",
"260 -14 OFFCURVE",
"329 -14 QCURVE SMOOTH",
"389 -14 OFFCURVE",
"492 21 OFFCURVE",
"568 87 OFFCURVE",
"611 181 OFFCURVE",
"611 240 QCURVE SMOOTH",
"611 293 OFFCURVE",
"583 374 OFFCURVE",
"530 429 OFFCURVE",
"456 458 OFFCURVE",
"410 458 QCURVE SMOOTH",
"384 458 OFFCURVE",
"347 452 OFFCURVE",
"318 440 OFFCURVE",
"294 424 OFFCURVE",
"281 414 QCURVE",
"491 706 LINE"
);
},
{
closed = 1;
nodes = (
"226 249 OFFCURVE",
"239 281 OFFCURVE",
"264 305 OFFCURVE",
"300 319 OFFCURVE",
"323 319 QCURVE SMOOTH",
"346 319 OFFCURVE",
"383 305 OFFCURVE",
"408 281 OFFCURVE",
"422 248 OFFCURVE",
"422 229 QCURVE SMOOTH",
"422 210 OFFCURVE",
"409 176 OFFCURVE",
"384 151 OFFCURVE",
"348 137 OFFCURVE",
"325 137 QCURVE SMOOTH",
"302 137 OFFCURVE",
"265 152 OFFCURVE",
"240 177 OFFCURVE",
"226 211 OFFCURVE",
"226 230 QCURVE SMOOTH"
);
}
);
width = 637;
},
{
layerId = "A901A9D0-A2D8-4DE6-ABBE-EA4AB0B05523";
paths = (
{
closed = 1;
nodes = (
"304 706 LINE",
"133 447 LINE SMOOTH",
"109 411 OFFCURVE",
"73 353 OFFCURVE",
"49 300 OFFCURVE",
"36 251 OFFCURVE",
"36 224 QCURVE SMOOTH",
"36 168 OFFCURVE",
"75 80 OFFCURVE",
"142 18 OFFCURVE",
"232 -14 OFFCURVE",
"283 -14 QCURVE SMOOTH",
"334 -14 OFFCURVE",
"423 20 OFFCURVE",
"488 81 OFFCURVE",
"525 165 OFFCURVE",
"525 215 QCURVE SMOOTH",
"525 264 OFFCURVE",
"490 343 OFFCURVE",
"429 398 OFFCURVE",
"348 428 OFFCURVE",
"302 428 QCURVE SMOOTH",
"287 428 OFFCURVE",
"260 427 OFFCURVE",
"233 421 OFFCURVE",
"207 409 OFFCURVE",
"193 399 QCURVE",
"399 706 LINE"
);
},
{
closed = 1;
nodes = (
"122 240 OFFCURVE",
"145 295 OFFCURVE",
"187 336 OFFCURVE",
"246 360 OFFCURVE",
"282 360 QCURVE SMOOTH",
"317 360 OFFCURVE",
"375 338 OFFCURVE",
"416 299 OFFCURVE",
"439 245 OFFCURVE",
"439 213 QCURVE SMOOTH",
"439 179 OFFCURVE",
"416 122 OFFCURVE",
"374 81 OFFCURVE",
"316 58 OFFCURVE",
"282 58 QCURVE SMOOTH",
"249 58 OFFCURVE",
"190 82 OFFCURVE",
"147 122 OFFCURVE",
"122 178 OFFCURVE",
"122 209 QCURVE SMOOTH"
);
}
);
width = 559;
}
);
unicode = 0036;
},
{
glyphname = seven;
layers = (
{
layerId = "0E77000D-43E9-4C80-9DAA-F2DD3D3A742F";
paths = (
{
closed = 1;
nodes = (
"587 554 LINE",
"587 700 LINE",
"48 700 LINE",
"48 537 LINE",
"372 537 LINE",
"64 0 LINE",
"278 0 LINE"
);
}
);
width = 636;
},
{
layerId = "A901A9D0-A2D8-4DE6-ABBE-EA4AB0B05523";
paths = (
{
closed = 1;
nodes = (
"539 629 LINE",
"539 705 LINE",
"60 705 LINE",
"60 630 LINE",
"450 630 LINE",
"106 0 LINE",
"199 0 LINE"
);
}
);
width = 587;
}
);
unicode = 0037;
},
{
glyphname = eight;
layers = (
{
layerId = "0E77000D-43E9-4C80-9DAA-F2DD3D3A742F";
paths = (
{
closed = 1;
nodes = (
"583 558 OFFCURVE",
"545 630 OFFCURVE",
"475 682 OFFCURVE",
"378 712 OFFCURVE",
"319 712 QCURVE SMOOTH",
"260 712 OFFCURVE",
"163 682 OFFCURVE",
"93 630 OFFCURVE",
"55 558 OFFCURVE",
"55 516 QCURVE SMOOTH",
"55 459 OFFCURVE",
"110 386 OFFCURVE",
"151 363 QCURVE",
"94 339 OFFCURVE",
"31 254 OFFCURVE",
"31 195 QCURVE SMOOTH",
"31 149 OFFCURVE",
"74 73 OFFCURVE",
"150 18 OFFCURVE",
"256 -12 OFFCURVE",
"319 -12 QCURVE SMOOTH",
"382 -12 OFFCURVE",
"488 18 OFFCURVE",
"564 72 OFFCURVE",
"607 149 OFFCURVE",
"607 196 QCURVE SMOOTH",
"607 253 OFFCURVE",
"541 338 OFFCURVE",
"487 363 QCURVE",
"528 386 OFFCURVE",
"583 459 OFFCURVE",
"583 516 QCURVE SMOOTH"
);
},
{
closed = 1;
nodes = (
"233 509 OFFCURVE",
"245 536 OFFCURVE",
"267 555 OFFCURVE",
"299 567 OFFCURVE",
"319 567 QCURVE SMOOTH",
"339 567 OFFCURVE",
"371 555 OFFCURVE",
"393 535 OFFCURVE",
"405 508 OFFCURVE",
"405 493 QCURVE SMOOTH",
"405 478 OFFCURVE",
"393 450 OFFCURVE",
"370 429 OFFCURVE",
"339 416 OFFCURVE",
"319 416 QCURVE SMOOTH",
"300 416 OFFCURVE",
"268 429 OFFCURVE",
"245 451 OFFCURVE",
"233 479 OFFCURVE",
"233 494 QCURVE SMOOTH"
);
},
{
closed = 1;
nodes = (
"218 231 OFFCURVE",
"233 259 OFFCURVE",
"260 279 OFFCURVE",
"297 290 OFFCURVE",
"319 290 QCURVE SMOOTH",
"341 290 OFFCURVE",
"378 279 OFFCURVE",
"405 259 OFFCURVE",
"420 231 OFFCURVE",
"420 214 QCURVE SMOOTH",
"420 198 OFFCURVE",
"407 169 OFFCURVE",
"381 147 OFFCURVE",
"343 133 OFFCURVE",
"319 133 QCURVE SMOOTH",
"295 133 OFFCURVE",
"257 147 OFFCURVE",
"231 169 OFFCURVE",
"218 198 OFFCURVE",
"218 214 QCURVE SMOOTH"
);
}
);
width = 637;
},
{
layerId = "A901A9D0-A2D8-4DE6-ABBE-EA4AB0B05523";
paths = (
{
closed = 1;
nodes = (
"508 570 OFFCURVE",
"472 640 OFFCURVE",
"411 690 OFFCURVE",
"330 718 OFFCURVE",
"286 718 QCURVE SMOOTH",
"241 718 OFFCURVE",
"161 690 OFFCURVE",
"101 641 OFFCURVE",
"66 572 OFFCURVE",
"66 531 QCURVE SMOOTH",
"66 477 OFFCURVE",
"123 394 OFFCURVE",
"176 370 QCURVE",
"111 342 OFFCURVE",
"39 253 OFFCURVE",
"39 190 QCURVE SMOOTH",
"39 147 OFFCURVE",
"77 73 OFFCURVE",
"143 19 OFFCURVE",
"234 -12 OFFCURVE",
"286 -12 QCURVE SMOOTH",
"338 -12 OFFCURVE",
"429 17 OFFCURVE",
"496 71 OFFCURVE",
"534 146 OFFCURVE",
"534 192 QCURVE SMOOTH",
"534 254 OFFCURVE",
"461 344 OFFCURVE",
"396 369 QCURVE",
"447 395 OFFCURVE",
"508 473 OFFCURVE",
"508 528 QCURVE SMOOTH"
);
},
{
closed = 1;
nodes = (
"149 551 OFFCURVE",
"170 596 OFFCURVE",
"207 628 OFFCURVE",
"257 646 OFFCURVE",
"286 646 QCURVE SMOOTH",
"315 646 OFFCURVE",
"366 628 OFFCURVE",
"404 596 OFFCURVE",
"425 552 OFFCURVE",
"425 526 QCURVE SMOOTH",
"425 499 OFFCURVE",
"403 453 OFFCURVE",
"366 421 OFFCURVE",
"315 403 OFFCURVE",
"286 403 QCURVE SMOOTH",
"258 403 OFFCURVE",
"208 421 OFFCURVE",
"171 454 OFFCURVE",
"149 498 OFFCURVE",
"149 525 QCURVE SMOOTH"
);
},
{
closed = 1;
nodes = (
"125 225 OFFCURVE",
"149 275 OFFCURVE",
"192 311 OFFCURVE",
"251 331 OFFCURVE",
"286 331 QCURVE SMOOTH",
"321 331 OFFCURVE",
"381 311 OFFCURVE",
"424 275 OFFCURVE",
"448 226 OFFCURVE",
"448 196 QCURVE SMOOTH",
"448 168 OFFCURVE",
"424 118 OFFCURVE",
"382 81 OFFCURVE",
"322 60 OFFCURVE",
"286 60 QCURVE SMOOTH",
"249 60 OFFCURVE",
"190 81 OFFCURVE",
"148 118 OFFCURVE",
"125 168 OFFCURVE",
"125 196 QCURVE SMOOTH"
);
}
);
width = 572;
}
);
unicode = 0038;
},
{
glyphname = nine;
layers = (
{
layerId = "0E77000D-43E9-4C80-9DAA-F2DD3D3A742F";
paths = (
{
closed = 1;
nodes = (
"350 0 LINE",
"528 277 LINE SMOOTH",
"552 315 OFFCURVE",
"583 375 OFFCURVE",
"601 424 OFFCURVE",
"608 465 OFFCURVE",
"608 484 QCURVE SMOOTH",
"608 536 OFFCURVE",
"567 622 OFFCURVE",
"489 685 OFFCURVE",
"377 720 OFFCURVE",
"305 720 QCURVE SMOOTH",
"248 720 OFFCURVE",
"146 685 OFFCURVE",
"71 620 OFFCURVE",
"27 527 OFFCURVE",
"27 468 QCURVE SMOOTH",
"27 416 OFFCURVE",
"55 334 OFFCURVE",
"108 277 OFFCURVE",
"182 248 OFFCURVE",
"228 248 QCURVE SMOOTH",
"273 248 OFFCURVE",
"329 271 OFFCURVE",
"357 292 QCURVE",
"147 0 LINE"
);
},
{
closed = 1;
nodes = (
"412 459 OFFCURVE",
"399 426 OFFCURVE",
"374 401 OFFCURVE",
"338 387 OFFCURVE",
"315 387 QCURVE SMOOTH",
"292 387 OFFCURVE",
"255 402 OFFCURVE",
"230 427 OFFCURVE",
"216 460 OFFCURVE",
"216 479 QCURVE SMOOTH",
"216 498 OFFCURVE",
"229 531 OFFCURVE",
"254 555 OFFCURVE",
"290 569 OFFCURVE",
"313 569 QCURVE SMOOTH",
"336 569 OFFCURVE",
"373 555 OFFCURVE",
"398 530 OFFCURVE",
"412 497 OFFCURVE",
"412 478 QCURVE SMOOTH"
);
}
);
width = 642;
},
{
layerId = "A901A9D0-A2D8-4DE6-ABBE-EA4AB0B05523";
paths = (
{
closed = 1;
nodes = (
"263 -2 LINE",
"433 248 LINE SMOOTH",
"451 274 OFFCURVE",
"486 328 OFFCURVE",
"514 385 OFFCURVE",
"531 446 OFFCURVE",
"531 479 QCURVE SMOOTH",
"531 535 OFFCURVE",
"493 624 OFFCURVE",
"427 686 OFFCURVE",
"337 720 OFFCURVE",
"284 720 QCURVE SMOOTH",
"233 720 OFFCURVE",
"145 685 OFFCURVE",
"80 623 OFFCURVE",
"43 539 OFFCURVE",
"43 490 QCURVE SMOOTH",
"43 442 OFFCURVE",
"79 361 OFFCURVE",
"141 304 OFFCURVE",
"223 272 OFFCURVE",
"269 272 QCURVE SMOOTH",
"300 272 OFFCURVE",
"347 286 OFFCURVE",
"374 306 QCURVE",
"170 -2 LINE"
);
},
{
closed = 1;
nodes = (
"445 464 OFFCURVE",
"421 410 OFFCURVE",
"379 369 OFFCURVE",
"321 345 OFFCURVE",
"286 345 QCURVE SMOOTH",
"252 345 OFFCURVE",
"194 367 OFFCURVE",
"152 407 OFFCURVE",
"129 462 OFFCURVE",
"129 494 QCURVE SMOOTH",
"129 526 OFFCURVE",
"152 582 OFFCURVE",
"193 623 OFFCURVE",
"251 647 OFFCURVE",
"285 647 QCURVE SMOOTH",
"318 647 OFFCURVE",
"376 623 OFFCURVE",
"420 582 OFFCURVE",
"445 527 OFFCURVE",
"445 495 QCURVE SMOOTH"
);
}
);
width = 567;
}
);
unicode = 0039;
},
{
glyphname = colon;
layers = (
{
layerId = "0E77000D-43E9-4C80-9DAA-F2DD3D3A742F";
paths = (
{
closed = 1;
nodes = (
"52 43 OFFCURVE",
"117 -13 OFFCURVE",
"164 -13 QCURVE SMOOTH",
"212 -13 OFFCURVE",
"277 43 OFFCURVE",
"277 97 QCURVE SMOOTH",
"277 151 OFFCURVE",
"212 206 OFFCURVE",
"164 206 QCURVE SMOOTH",
"117 206 OFFCURVE",
"52 151 OFFCURVE",
"52 97 QCURVE SMOOTH"
);
},
{
closed = 1;
nodes = (
"52 389 OFFCURVE",
"117 333 OFFCURVE",
"164 333 QCURVE SMOOTH",
"212 333 OFFCURVE",
"277 389 OFFCURVE",
"277 443 QCURVE SMOOTH",
"277 497 OFFCURVE",
"212 552 OFFCURVE",
"164 552 QCURVE SMOOTH",
"117 552 OFFCURVE",
"52 497 OFFCURVE",
"52 443 QCURVE SMOOTH"
);
}
);
width = 307;
},
{
layerId = "A901A9D0-A2D8-4DE6-ABBE-EA4AB0B05523";
paths = (
{
closed = 1;
nodes = (
"54 26 OFFCURVE",
"87 -10 OFFCURVE",
"115 -10 QCURVE SMOOTH",
"138 -10 OFFCURVE",
"174 26 OFFCURVE",
"174 51 QCURVE SMOOTH",
"174 76 OFFCURVE",
"138 111 OFFCURVE",
"115 111 QCURVE SMOOTH",
"87 111 OFFCURVE",
"54 76 OFFCURVE",
"54 51 QCURVE SMOOTH"
);
},
{
closed = 1;
nodes = (
"54 405 OFFCURVE",
"87 370 OFFCURVE",
"115 370 QCURVE SMOOTH",
"138 370 OFFCURVE",
"174 405 OFFCURVE",
"174 431 QCURVE SMOOTH",
"174 456 OFFCURVE",
"138 491 OFFCURVE",
"115 491 QCURVE SMOOTH",
"87 491 OFFCURVE",
"54 456 OFFCURVE",
"54 431 QCURVE SMOOTH"
);
}
);
width = 212;
}
);
unicode = 003A;
},
{
glyphname = semicolon;
layers = (
{
layerId = "0E77000D-43E9-4C80-9DAA-F2DD3D3A742F";
paths = (
{
closed = 1;
nodes = (
"20 389 OFFCURVE",
"85 333 OFFCURVE",
"132 333 QCURVE SMOOTH",
"180 333 OFFCURVE",
"245 389 OFFCURVE",
"245 443 QCURVE SMOOTH",
"245 497 OFFCURVE",
"180 552 OFFCURVE",
"132 552 QCURVE SMOOTH",
"85 552 OFFCURVE",
"20 497 OFFCURVE",
"20 443 QCURVE SMOOTH"
);
},
{
closed = 1;
nodes = (
"229 197 LINE",
"58 197 LINE",
"-4 -164 LINE",
"126 -164 LINE"
);
}
);
width = 271;
},
{
layerId = "A901A9D0-A2D8-4DE6-ABBE-EA4AB0B05523";
paths = (
{
closed = 1;
nodes = (
"46 405 OFFCURVE",
"80 370 OFFCURVE",
"107 370 QCURVE SMOOTH",
"130 370 OFFCURVE",
"167 405 OFFCURVE",
"167 431 QCURVE SMOOTH",
"167 456 OFFCURVE",
"130 491 OFFCURVE",
"107 491 QCURVE SMOOTH",
"80 491 OFFCURVE",
"46 456 OFFCURVE",
"46 431 QCURVE SMOOTH"
);
},
{
closed = 1;
nodes = (
"162 120 LINE",
"61 120 LINE",
"18 -139 LINE",
"88 -139 LINE"
);
}
);
width = 198;
}
);
unicode = 003B;
},
{
glyphname = less;
layers = (
{
layerId = "0E77000D-43E9-4C80-9DAA-F2DD3D3A742F";
paths = (
{
closed = 1;
nodes = (
"554 638 LINE",
"57 440 LINE",
"57 263 LINE",
"554 65 LINE",
"554 243 LINE",
"227 352 LINE",
"554 461 LINE"
);
}
);
width = 610;
},
{
layerId = "A901A9D0-A2D8-4DE6-ABBE-EA4AB0B05523";
paths = (
{
closed = 1;
nodes = (
"547 606 LINE",
"69 378 LINE",
"69 307 LINE",
"547 79 LINE",
"547 158 LINE",
"160 343 LINE",
"547 526 LINE"
);
}
);
width = 616;
}
);
unicode = 003C;
},
{
glyphname = equal;
layers = (
{
layerId = "0E77000D-43E9-4C80-9DAA-F2DD3D3A742F";
paths = (
{
closed = 1;
nodes = (
"42 570 LINE",
"42 403 LINE",
"533 403 LINE",
"533 570 LINE"
);
},
{
closed = 1;
nodes = (
"42 301 LINE",
"42 134 LINE",
"533 134 LINE",
"533 301 LINE"
);
}
);
width = 575;
},
{
layerId = "A901A9D0-A2D8-4DE6-ABBE-EA4AB0B05523";
paths = (
{
closed = 1;
nodes = (
"42 513 LINE",
"42 438 LINE",
"516 438 LINE",
"516 513 LINE"
);
},
{
closed = 1;
nodes = (
"42 271 LINE",
"42 196 LINE",
"516 196 LINE",
"516 271 LINE"
);
}
);
width = 558;
}
);
unicode = 003D;
},
{
glyphname = greater;
layers = (
{
layerId = "0E77000D-43E9-4C80-9DAA-F2DD3D3A742F";
paths = (
{
closed = 1;
nodes = (
"57 460 LINE",
"384 351 LINE",
"57 242 LINE",
"57 65 LINE",
"554 263 LINE",
"554 440 LINE",
"57 638 LINE"
);
}
);
width = 610;
},
{
layerId = "A901A9D0-A2D8-4DE6-ABBE-EA4AB0B05523";
paths = (
{
closed = 1;
nodes = (
"69 525 LINE",
"455 342 LINE",
"69 160 LINE",
"69 80 LINE",
"546 306 LINE",
"546 379 LINE",
"69 606 LINE"
);
}
);
width = 615;
}
);
unicode = 003E;
},
{
glyphname = question;
layers = (
{
layerId = "0E77000D-43E9-4C80-9DAA-F2DD3D3A742F";
paths = (
{
closed = 1;
nodes = (
"242 547 OFFCURVE",
"271 541 OFFCURVE",
"294 528 OFFCURVE",
"308 508 OFFCURVE",
"308 494 QCURVE SMOOTH",
"308 472 OFFCURVE",
"275 432 OFFCURVE",
"255 417 QCURVE SMOOTH",
"239 404 OFFCURVE",
"207 375 OFFCURVE",
"183 338 OFFCURVE",
"168 291 OFFCURVE",
"168 261 QCURVE SMOOTH",
"168 218 LINE",
"342 218 LINE",
"342 249 LINE SMOOTH",
"342 263 OFFCURVE",
"346 283 OFFCURVE",
"357 299 OFFCURVE",
"374 315 OFFCURVE",
"386 325 QCURVE SMOOTH",
"411 344 OFFCURVE",
"452 380 OFFCURVE",
"482 421 OFFCURVE",
"499 472 OFFCURVE",
"499 506 QCURVE SMOOTH",
"499 555 OFFCURVE",
"460 631 OFFCURVE",
"394 682 OFFCURVE",
"309 709 OFFCURVE",
"263 709 QCURVE SMOOTH",
"200 709 OFFCURVE",
"88 663 OFFCURVE",
"49 613 QCURVE",
"49 455 LINE",
"64 469 OFFCURVE",
"103 502 OFFCURVE",
"149 529 OFFCURVE",
"201 547 OFFCURVE",
"228 547 QCURVE SMOOTH"
);
},
{
closed = 1;
nodes = (
"155 36 OFFCURVE",
"217 -13 OFFCURVE",
"262 -13 QCURVE SMOOTH",
"307 -13 OFFCURVE",
"370 36 OFFCURVE",
"370 84 QCURVE SMOOTH",
"370 132 OFFCURVE",
"307 180 OFFCURVE",
"262 180 QCURVE SMOOTH",
"217 180 OFFCURVE",
"155 132 OFFCURVE",
"155 84 QCURVE SMOOTH"
);
}
);
width = 536;
},
{
layerId = "A901A9D0-A2D8-4DE6-ABBE-EA4AB0B05523";
paths = (
{
closed = 1;
nodes = (
"226 641 OFFCURVE",
"266 624 OFFCURVE",
"292 597 OFFCURVE",
"305 562 OFFCURVE",
"305 544 QCURVE SMOOTH",
"305 508 OFFCURVE",
"263 455 OFFCURVE",
"235 429 QCURVE SMOOTH",
"218 413 OFFCURVE",
"185 378 OFFCURVE",
"158 336 OFFCURVE",
"141 284 OFFCURVE",
"141 252 QCURVE SMOOTH",
"141 190 LINE",
"223 190 LINE",
"223 222 LINE SMOOTH",
"223 249 OFFCURVE",
"232 290 OFFCURVE",
"250 325 OFFCURVE",
"278 357 OFFCURVE",
"297 374 QCURVE SMOOTH",
"316 391 OFFCURVE",
"349 429 OFFCURVE",
"373 473 OFFCURVE",
"387 522 OFFCURVE",
"387 551 QCURVE SMOOTH",
"387 588 OFFCURVE",
"362 649 OFFCURVE",
"316 693 OFFCURVE",
"251 717 OFFCURVE",
"210 717 QCURVE SMOOTH",
"159 717 OFFCURVE",
"76 679 OFFCURVE",
"53 649 QCURVE",
"53 552 LINE",
"71 578 OFFCURVE",
"108 612 OFFCURVE",
"146 633 OFFCURVE",
"182 641 OFFCURVE",
"200 641 QCURVE SMOOTH"
);
},
{
closed = 1;
nodes = (
"127 23 OFFCURVE",
"163 -9 OFFCURVE",
"187 -9 QCURVE SMOOTH",
"212 -9 OFFCURVE",
"248 23 OFFCURVE",
"248 50 QCURVE SMOOTH",
"248 73 OFFCURVE",
"212 109 OFFCURVE",
"187 109 QCURVE SMOOTH",
"163 109 OFFCURVE",
"127 73 OFFCURVE",
"127 50 QCURVE SMOOTH"
);
}
);
width = 434;
}
);
unicode = 003F;
},
{
glyphname = at;
layers = (
{
layerId = "0E77000D-43E9-4C80-9DAA-F2DD3D3A742F";
paths = (
{
closed = 1;
nodes = (
"522 385 OFFCURVE",
"563 344 OFFCURVE",
"563 309 QCURVE SMOOTH",
"563 285 OFFCURVE",
"548 243 OFFCURVE",
"522 212 OFFCURVE",
"487 194 OFFCURVE",
"467 194 QCURVE SMOOTH",
"435 194 OFFCURVE",
"394 234 OFFCURVE",
"394 272 QCURVE SMOOTH",
"394 296 OFFCURVE",
"409 337 OFFCURVE",
"435 367 OFFCURVE",
"470 385 OFFCURVE",
"490 385 QCURVE SMOOTH"
);
},
{
closed = 1;
nodes = (
"748 -55 LINE",
"691 -88 OFFCURVE",
"575 -112 OFFCURVE",
"503 -112 QCURVE SMOOTH",
"414 -112 OFFCURVE",
"268 -54 OFFCURVE",
"165 50 OFFCURVE",
"109 191 OFFCURVE",
"109 275 QCURVE SMOOTH",
"109 358 OFFCURVE",
"166 501 OFFCURVE",
"269 607 OFFCURVE",
"413 667 OFFCURVE",
"500 667 QCURVE SMOOTH",
"586 667 OFFCURVE",
"725 614 OFFCURVE",
"825 522 OFFCURVE",
"879 397 OFFCURVE",
"879 325 QCURVE SMOOTH",
"879 275 OFFCURVE",
"864 199 OFFCURVE",
"835 148 OFFCURVE",
"795 122 OFFCURVE",
"771 122 QCURVE SMOOTH",
"750 122 OFFCURVE",
"724 140 OFFCURVE",
"710 169 OFFCURVE",
"707 206 OFFCURVE",
"710 225 QCURVE SMOOTH",
"756 483 LINE",
"601 507 LINE",
"589 446 LINE",
"569 477 OFFCURVE",
"504 520 OFFCURVE",
"455 520 QCURVE SMOOTH",
"410 520 OFFCURVE",
"330 479 OFFCURVE",
"270 408 OFFCURVE",
"234 314 OFFCURVE",
"234 260 QCURVE SMOOTH",
"234 214 OFFCURVE",
"262 140 OFFCURVE",
"311 88 OFFCURVE",
"378 59 OFFCURVE",
"417 59 QCURVE SMOOTH",
"464 59 OFFCURVE",
"535 100 OFFCURVE",
"564 133 QCURVE",
"582 102 OFFCURVE",
"655 57 OFFCURVE",
"718 57 QCURVE SMOOTH",
"759 57 OFFCURVE",
"836 90 OFFCURVE",
"895 156 OFFCURVE",
"931 257 OFFCURVE",
"931 325 QCURVE SMOOTH",
"931 405 OFFCURVE",
"866 546 OFFCURVE",
"751 652 OFFCURVE",
"593 714 OFFCURVE",
"500 714 QCURVE SMOOTH",
"406 714 OFFCURVE",
"243 645 OFFCURVE",
"125 525 OFFCURVE",
"57 365 OFFCURVE",
"57 275 QCURVE SMOOTH",
"57 184 OFFCURVE",
"124 25 OFFCURVE",
"243 -94 OFFCURVE",
"406 -162 OFFCURVE",
"503 -162 QCURVE SMOOTH",
"581 -162 OFFCURVE",
"710 -122 OFFCURVE",
"768 -87 QCURVE"
);
}
);
width = 978;
},
{
layerId = "A901A9D0-A2D8-4DE6-ABBE-EA4AB0B05523";
paths = (
{
closed = 1;
nodes = (
"500 457 OFFCURVE",
"557 390 OFFCURVE",
"557 339 QCURVE SMOOTH",
"557 308 OFFCURVE",
"535 249 OFFCURVE",
"496 203 OFFCURVE",
"443 175 OFFCURVE",
"413 175 QCURVE SMOOTH",
"364 175 OFFCURVE",
"307 245 OFFCURVE",
"307 299 QCURVE SMOOTH",
"307 331 OFFCURVE",
"329 389 OFFCURVE",
"367 432 OFFCURVE",
"419 457 OFFCURVE",
"449 457 QCURVE SMOOTH"
);
},
{
closed = 1;
nodes = (
"714 26 LINE",
"656 -11 OFFCURVE",
"541 -49 OFFCURVE",
"472 -49 QCURVE SMOOTH",
"387 -49 OFFCURVE",
"248 6 OFFCURVE",
"150 103 OFFCURVE",
"97 235 OFFCURVE",
"97 311 QCURVE SMOOTH",
"97 388 OFFCURVE",
"151 521 OFFCURVE",
"247 618 OFFCURVE",
"378 674 OFFCURVE",
"455 674 QCURVE SMOOTH",
"529 674 OFFCURVE",
"654 624 OFFCURVE",
"747 535 OFFCURVE",
"799 415 OFFCURVE",
"799 346 QCURVE SMOOTH",
"799 304 OFFCURVE",
"780 235 OFFCURVE",
"747 185 OFFCURVE",
"705 158 OFFCURVE",
"681 158 QCURVE SMOOTH",
"666 158 OFFCURVE",
"643 170 OFFCURVE",
"628 191 OFFCURVE",
"620 221 OFFCURVE",
"620 239 QCURVE",
"657 505 LINE",
"587 511 LINE",
"577 446 LINE",
"558 479 OFFCURVE",
"496 524 OFFCURVE",
"445 524 QCURVE SMOOTH",
"401 524 OFFCURVE",
"322 488 OFFCURVE",
"263 425 OFFCURVE",
"229 343 OFFCURVE",
"229 296 QCURVE SMOOTH",
"229 255 OFFCURVE",
"256 187 OFFCURVE",
"302 138 OFFCURVE",
"367 111 OFFCURVE",
"404 111 QCURVE SMOOTH",
"455 111 OFFCURVE",
"529 159 OFFCURVE",
"554 194 QCURVE",
"568 152 OFFCURVE",
"620 109 OFFCURVE",
"665 109 QCURVE SMOOTH",
"704 109 OFFCURVE",
"770 142 OFFCURVE",
"820 206 OFFCURVE",
"848 298 OFFCURVE",
"848 357 QCURVE SMOOTH",
"848 433 OFFCURVE",
"787 565 OFFCURVE",
"680 663 OFFCURVE",
"537 719 OFFCURVE",
"456 719 QCURVE SMOOTH",
"369 719 OFFCURVE",
"219 655 OFFCURVE",
"108 544 OFFCURVE",
"45 395 OFFCURVE",
"45 309 QCURVE SMOOTH",
"45 224 OFFCURVE",
"107 77 OFFCURVE",
"218 -31 OFFCURVE",
"372 -93 OFFCURVE",
"463 -93 QCURVE SMOOTH",
"541 -93 OFFCURVE",
"677 -49 OFFCURVE",
"738 -8 QCURVE"
);
}
);
width = 888;
}
);
unicode = 0040;
},
{
glyphname = A;
layers = (
{
layerId = "0E77000D-43E9-4C80-9DAA-F2DD3D3A742F";
paths = (
{
closed = 1;
nodes = (
"539 125 LINE",
"590 0 LINE",
"798 0 LINE",
"500 705 LINE",
"313 705 LINE",
"15 0 LINE",
"219 0 LINE",
"269 125 LINE"
);
},
{
closed = 1;
nodes = (
"405 475 LINE",
"483 276 LINE",
"326 276 LINE"
);
}
);
width = 823;
},
{
layerId = "A901A9D0-A2D8-4DE6-ABBE-EA4AB0B05523";
paths = (
{
closed = 1;
nodes = (
"536 197 LINE",
"620 0 LINE",
"713 0 LINE",
"404 705 LINE",
"334 705 LINE",
"26 0 LINE",
"117 0 LINE",
"202 197 LINE"
);
},
{
closed = 1;
nodes = (
"369 606 LINE",
"504 272 LINE",
"234 272 LINE"
);
}
);
width = 737;
}
);
unicode = 0041;
},
{
glyphname = B;
layers = (
{
layerId = "0E77000D-43E9-4C80-9DAA-F2DD3D3A742F";
paths = (
{
closed = 1;
nodes = (
"65 0 LINE",
"424 0 LINE SMOOTH",
"487 0 OFFCURVE",
"587 27 OFFCURVE",
"655 78 OFFCURVE",
"691 150 OFFCURVE",
"691 195 QCURVE SMOOTH",
"691 231 OFFCURVE",
"671 285 OFFCURVE",
"635 326 OFFCURVE",
"584 356 OFFCURVE",
"552 366 QCURVE",
"599 386 OFFCURVE",
"660 463 OFFCURVE",
"660 524 QCURVE SMOOTH",
"660 566 OFFCURVE",
"627 631 OFFCURVE",
"565 676 OFFCURVE",
"477 700 OFFCURVE",
"422 700 QCURVE SMOOTH",
"65 700 LINE"
);
},
{
closed = 1;
nodes = (
"254 544 LINE",
"379 544 LINE SMOOTH",
"422 544 OFFCURVE",
"466 513 OFFCURVE",
"466 484 QCURVE SMOOTH",
"466 453 OFFCURVE",
"419 421 OFFCURVE",
"375 421 QCURVE SMOOTH",
"254 421 LINE"
);
},
{
closed = 1;
nodes = (
"254 285 LINE",
"401 285 LINE SMOOTH",
"425 285 OFFCURVE",
"461 276 OFFCURVE",
"485 260 OFFCURVE",
"497 236 OFFCURVE",
"497 222 QCURVE SMOOTH",
"497 191 OFFCURVE",
"447 156 OFFCURVE",
"403 156 QCURVE SMOOTH",
"254 156 LINE"
);
}
);
width = 730;
},
{
layerId = "A901A9D0-A2D8-4DE6-ABBE-EA4AB0B05523";
paths = (
{
closed = 1;
nodes = (
"80 0 LINE",
"309 0 LINE SMOOTH",
"385 0 OFFCURVE",
"492 31 OFFCURVE",
"560 84 OFFCURVE",
"591 155 OFFCURVE",
"591 194 QCURVE SMOOTH",
"591 226 OFFCURVE",
"572 283 OFFCURVE",
"532 329 OFFCURVE",
"469 360 OFFCURVE",
"425 366 QCURVE",
"476 385 OFFCURVE",
"527 471 OFFCURVE",
"527 527 QCURVE SMOOTH",
"527 577 OFFCURVE",
"485 645 OFFCURVE",
"416 687 OFFCURVE",
"327 705 OFFCURVE",
"281 705 QCURVE SMOOTH",
"80 705 LINE"
);
},
{
closed = 1;
nodes = (
"164 631 LINE",
"291 631 LINE SMOOTH",
"360 631 OFFCURVE",
"443 575 OFFCURVE",
"443 515 QCURVE SMOOTH",
"443 465 OFFCURVE",
"370 396 OFFCURVE",
"291 396 QCURVE SMOOTH",
"164 396 LINE"
);
},
{
closed = 1;
nodes = (
"164 322 LINE",
"290 322 LINE SMOOTH",
"350 322 OFFCURVE",
"433 306 OFFCURVE",
"484 274 OFFCURVE",
"507 228 OFFCURVE",
"507 198 QCURVE SMOOTH",
"507 138 OFFCURVE",
"419 74 OFFCURVE",
"323 74 QCURVE SMOOTH",
"164 74 LINE"
);
}
);
width = 634;
}
);
unicode = 0042;
},
{
glyphname = C;
layers = (
{
layerId = "0E77000D-43E9-4C80-9DAA-F2DD3D3A742F";
paths = (
{
closed = 1;
nodes = (
"621 248 LINE",
"598 227 OFFCURVE",
"551 195 OFFCURVE",
"502 174 OFFCURVE",
"451 163 OFFCURVE",
"423 163 QCURVE SMOOTH",
"378 163 OFFCURVE",
"309 192 OFFCURVE",
"261 243 OFFCURVE",
"236 312 OFFCURVE",
"236 352 QCURVE SMOOTH",
"236 390 OFFCURVE",
"261 458 OFFCURVE",
"309 508 OFFCURVE",
"379 537 OFFCURVE",
"423 537 QCURVE SMOOTH",
"482 537 OFFCURVE",
"582 490 OFFCURVE",
"616 455 QCURVE",
"616 652 LINE",
"575 681 OFFCURVE",
"471 714 OFFCURVE",
"405 714 QCURVE SMOOTH",
"326 714 OFFCURVE",
"190 658 OFFCURVE",
"92 559 OFFCURVE",
"36 427 OFFCURVE",
"36 350 QCURVE SMOOTH",
"36 272 OFFCURVE",
"93 138 OFFCURVE",
"190 41 OFFCURVE",
"322 -14 OFFCURVE",
"397 -14 QCURVE SMOOTH",
"463 -14 OFFCURVE",
"572 20 OFFCURVE",
"621 54 QCURVE"
);
}
);
width = 648;
},
{
layerId = "A901A9D0-A2D8-4DE6-ABBE-EA4AB0B05523";
paths = (
{
closed = 1;
nodes = (
"634 175 LINE",
"609 153 OFFCURVE",
"558 112 OFFCURVE",
"500 81 OFFCURVE",
"435 63 OFFCURVE",
"397 63 QCURVE SMOOTH",
"337 63 OFFCURVE",
"237 108 OFFCURVE",
"165 187 OFFCURVE",
"125 292 OFFCURVE",
"125 352 QCURVE SMOOTH",
"125 412 OFFCURVE",
"165 518 OFFCURVE",
"237 597 OFFCURVE",
"337 643 OFFCURVE",
"397 643 QCURVE SMOOTH",
"479 643 OFFCURVE",
"582 590 OFFCURVE",
"620 547 QCURVE",
"620 643 LINE",
"577 676 OFFCURVE",
"473 719 OFFCURVE",
"402 719 QCURVE SMOOTH",
"323 719 OFFCURVE",
"190 662 OFFCURVE",
"93 563 OFFCURVE",
"38 429 OFFCURVE",
"38 351 QCURVE SMOOTH",
"38 273 OFFCURVE",
"93 140 OFFCURVE",
"190 42 OFFCURVE",
"322 -14 OFFCURVE",
"399 -14 QCURVE SMOOTH",
"474 -14 OFFCURVE",
"586 37 OFFCURVE",
"634 78 QCURVE"
);
}
);
width = 668;
}
);
unicode = 0043;
},
{
glyphname = D;
layers = (
{
layerId = "0E77000D-43E9-4C80-9DAA-F2DD3D3A742F";
paths = (
{
closed = 1;
nodes = (
"65 0 LINE",
"331 0 LINE SMOOTH",
"426 0 OFFCURVE",
"574 54 OFFCURVE",
"676 149 OFFCURVE",
"730 278 OFFCURVE",
"730 354 QCURVE SMOOTH",
"730 430 OFFCURVE",
"677 557 OFFCURVE",
"576 649 OFFCURVE",
"429 700 OFFCURVE",
"335 700 QCURVE SMOOTH",
"65 700 LINE"
);
},
{
closed = 1;
nodes = (
"259 528 LINE",
"338 528 LINE SMOOTH",
"381 528 OFFCURVE",
"452 504 OFFCURVE",
"503 459 OFFCURVE",
"531 393 OFFCURVE",
"531 351 QCURVE SMOOTH",
"531 309 OFFCURVE",
"503 242 OFFCURVE",
"453 196 OFFCURVE",
"382 172 OFFCURVE",
"338 172 QCURVE SMOOTH",
"259 172 LINE"
);
}
);
width = 766;
},
{
layerId = "A901A9D0-A2D8-4DE6-ABBE-EA4AB0B05523";
paths = (
{
closed = 1;
nodes = (
"80 0 LINE",
"300 0 LINE SMOOTH",
"385 0 OFFCURVE",
"524 52 OFFCURVE",
"623 146 OFFCURVE",
"677 275 OFFCURVE",
"677 353 QCURVE SMOOTH",
"677 433 OFFCURVE",
"620 563 OFFCURVE",
"519 655 OFFCURVE",
"381 705 OFFCURVE",
"301 705 QCURVE SMOOTH",
"80 705 LINE"
);
},
{
closed = 1;
nodes = (
"165 628 LINE",
"344 628 LINE SMOOTH",
"403 628 OFFCURVE",
"494 578 OFFCURVE",
"556 499 OFFCURVE",
"587 400 OFFCURVE",
"587 351 QCURVE SMOOTH",
"587 291 OFFCURVE",
"549 190 OFFCURVE",
"475 117 OFFCURVE",
"367 76 OFFCURVE",
"296 76 QCURVE SMOOTH",
"165 76 LINE"
);
}
);
width = 716;
}
);
unicode = 0044;
},
{
glyphname = E;
layers = (
{
layerId = "0E77000D-43E9-4C80-9DAA-F2DD3D3A742F";
paths = (
{
closed = 1;
nodes = (
"257 276 LINE",
"593 276 LINE",
"593 429 LINE",
"257 429 LINE",
"257 535 LINE",
"628 535 LINE",
"628 700 LINE",
"65 700 LINE",
"65 0 LINE",
"633 0 LINE",
"633 165 LINE",
"257 165 LINE"
);
}
);
width = 673;
},
{
layerId = "A901A9D0-A2D8-4DE6-ABBE-EA4AB0B05523";
paths = (
{
closed = 1;
nodes = (
"166 321 LINE",
"511 321 LINE",
"511 397 LINE",
"166 397 LINE",
"166 629 LINE",
"540 629 LINE",
"540 705 LINE",
"80 705 LINE",
"80 0 LINE",
"551 0 LINE",
"551 76 LINE",
"166 76 LINE"
);
}
);
width = 589;
}
);
unicode = 0045;
},
{
glyphname = F;
layers = (
{
layerId = "0E77000D-43E9-4C80-9DAA-F2DD3D3A742F";
paths = (
{
closed = 1;
nodes = (
"259 250 LINE",
"590 250 LINE",
"590 411 LINE",
"259 411 LINE",
"259 530 LINE",
"625 530 LINE",
"625 700 LINE",
"65 700 LINE",
"65 0 LINE",
"259 0 LINE"
);
}
);
width = 678;
},
{
layerId = "A901A9D0-A2D8-4DE6-ABBE-EA4AB0B05523";
paths = (
{
closed = 1;
nodes = (
"165 313 LINE",
"506 313 LINE",
"506 389 LINE",
"165 389 LINE",
"165 629 LINE",
"537 629 LINE",
"537 705 LINE",
"80 705 LINE",
"80 -2 LINE",
"165 -2 LINE"
);
}
);
width = 587;
}
);
unicode = 0046;
},
{
glyphname = G;
layers = (
{
layerId = "0E77000D-43E9-4C80-9DAA-F2DD3D3A742F";
paths = (
{
closed = 1;
nodes = (
"537 267 LINE",
"537 235 OFFCURVE",
"512 192 OFFCURVE",
"473 165 OFFCURVE",
"427 153 OFFCURVE",
"407 153 QCURVE SMOOTH",
"372 153 OFFCURVE",
"309 182 OFFCURVE",
"262 234 OFFCURVE",
"235 306 OFFCURVE",
"235 349 QCURVE SMOOTH",
"235 389 OFFCURVE",
"263 459 OFFCURVE",
"313 511 OFFCURVE",
"382 541 OFFCURVE",
"424 541 QCURVE SMOOTH",
"473 541 OFFCURVE",
"565 507 OFFCURVE",
"603 475 QCURVE",
"603 680 LINE",
"566 696 OFFCURVE",
"464 714 OFFCURVE",
"413 714 QCURVE SMOOTH",
"332 714 OFFCURVE",
"193 658 OFFCURVE",
"93 559 OFFCURVE",
"36 427 OFFCURVE",
"36 350 QCURVE SMOOTH",
"36 271 OFFCURVE",
"93 137 OFFCURVE",
"191 40 OFFCURVE",
"323 -14 OFFCURVE",
"397 -14 QCURVE SMOOTH",
"455 -14 OFFCURVE",
"571 21 OFFCURVE",
"663 108 OFFCURVE",
"721 256 OFFCURVE",
"721 369 QCURVE SMOOTH",
"721 409 LINE",
"399 409 LINE",
"399 267 LINE"
);
}
);
width = 774;
},
{
layerId = "A901A9D0-A2D8-4DE6-ABBE-EA4AB0B05523";
paths = (
{
closed = 1;
nodes = (
"687 321 LINE",
"687 263 OFFCURVE",
"645 167 OFFCURVE",
"571 99 OFFCURVE",
"471 62 OFFCURVE",
"412 62 QCURVE SMOOTH",
"350 62 OFFCURVE",
"244 106 OFFCURVE",
"167 184 OFFCURVE",
"123 290 OFFCURVE",
"123 352 QCURVE SMOOTH",
"123 411 OFFCURVE",
"172 517 OFFCURVE",
"255 597 OFFCURVE",
"365 643 OFFCURVE",
"426 643 QCURVE SMOOTH",
"499 643 OFFCURVE",
"612 591 OFFCURVE",
"650 553 QCURVE",
"650 647 LINE",
"596 686 OFFCURVE",
"479 719 OFFCURVE",
"420 719 QCURVE SMOOTH",
"341 719 OFFCURVE",
"202 662 OFFCURVE",
"98 563 OFFCURVE",
"38 429 OFFCURVE",
"38 352 QCURVE SMOOTH",
"38 276 OFFCURVE",
"93 142 OFFCURVE",
"191 42 OFFCURVE",
"326 -16 OFFCURVE",
"406 -16 QCURVE SMOOTH",
"499 -16 OFFCURVE",
"635 47 OFFCURVE",
"724 153 OFFCURVE",
"767 294 OFFCURVE",
"767 373 QCURVE SMOOTH",
"767 399 LINE",
"476 399 LINE",
"476 321 LINE"
);
}
);
width = 827;
}
);
unicode = 0047;
},
{
glyphname = H;
layers = (
{
layerId = "0E77000D-43E9-4C80-9DAA-F2DD3D3A742F";
paths = (
{
closed = 1;
nodes = (
"65 0 LINE",
"259 0 LINE",
"259 266 LINE",
"508 266 LINE",
"508 0 LINE",
"702 0 LINE",
"702 700 LINE",
"508 700 LINE",
"508 438 LINE",
"259 438 LINE",
"259 700 LINE",
"65 700 LINE"
);
}
);
width = 766;
},
{
layerId = "A901A9D0-A2D8-4DE6-ABBE-EA4AB0B05523";
paths = (
{
closed = 1;
nodes = (
"80 0 LINE",
"164 0 LINE",
"164 320 LINE",
"546 320 LINE",
"546 0 LINE",
"630 0 LINE",
"630 706 LINE",
"546 706 LINE",
"546 398 LINE",
"164 398 LINE",
"164 706 LINE",
"80 706 LINE"
);
}
);
width = 709;
}
);
unicode = 0048;
},
{
glyphname = I;
layers = (
{
layerId = "0E77000D-43E9-4C80-9DAA-F2DD3D3A742F";
paths = (
{
closed = 1;
nodes = (
"260 700 LINE",
"65 700 LINE",
"65 0 LINE",
"260 0 LINE"
);
}
);
width = 324;
},
{
layerId = "A901A9D0-A2D8-4DE6-ABBE-EA4AB0B05523";
paths = (
{
closed = 1;
nodes = (
"164 705 LINE",
"80 705 LINE",
"80 0 LINE",
"164 0 LINE"
);
}
);
width = 243;
}
);
unicode = 0049;
},
{
glyphname = J;
layers = (
{
layerId = "0E77000D-43E9-4C80-9DAA-F2DD3D3A742F";
paths = (
{
closed = 1;
nodes = (
"-3 41 LINE",
"17 27 OFFCURVE",
"56 6 OFFCURVE",
"77 0 QCURVE",
"88 -4 OFFCURVE",
"108 -8 OFFCURVE",
"119 -9 QCURVE SMOOTH",
"124 -10 OFFCURVE",
"135 -11 OFFCURVE",
"140 -11 QCURVE",
"143 -12 OFFCURVE",
"148 -12 OFFCURVE",
"151 -12 QCURVE SMOOTH",
"156 -12 LINE",
"159 -12 LINE",
"160 -12 LINE",
"161 -12 LINE",
"273 -12 OFFCURVE",
"406 109 OFFCURVE",
"417 216 QCURVE SMOOTH",
"418 226 OFFCURVE",
"419 245 OFFCURVE",
"419 256 QCURVE SMOOTH",
"419 471 LINE",
"419 700 LINE",
"355 700 LINE",
"323 700 LINE",
"226 700 LINE",
"226 257 LINE SMOOTH",
"226 208 OFFCURVE",
"174 159 OFFCURVE",
"136 159 QCURVE SMOOTH",
"119 159 OFFCURVE",
"88 167 OFFCURVE",
"74 175 QCURVE SMOOTH",
"53 186 OFFCURVE",
"15 218 OFFCURVE",
"-3 235 QCURVE",
"-3 143 LINE",
"-3 67 LINE",
"-3 52 LINE",
"-3 52 LINE",
"-3 52 LINE"
);
}
);
width = 478;
},
{
layerId = "A901A9D0-A2D8-4DE6-ABBE-EA4AB0B05523";
paths = (
{
closed = 1;
nodes = (
"4 22 LINE",
"17 14 OFFCURVE",
"47 0 OFFCURVE",
"65 -5 QCURVE SMOOTH",
"73 -7 OFFCURVE",
"88 -9 OFFCURVE",
"97 -10 QCURVE SMOOTH",
"101 -11 OFFCURVE",
"109 -11 OFFCURVE",
"114 -11 QCURVE",
"114 -11 OFFCURVE",
"114 -11 OFFCURVE",
"114 -11 QCURVE",
"114 -11 LINE",
"114 -11 LINE",
"114 -11 LINE",
"114 -11 LINE",
"202 -11 OFFCURVE",
"300 100 OFFCURVE",
"300 209 QCURVE SMOOTH",
"300 218 OFFCURVE",
"300 243 OFFCURVE",
"300 258 QCURVE SMOOTH",
"300 483 LINE",
"300 705 LINE",
"257 705 LINE",
"228 705 LINE",
"214 705 LINE",
"214 207 LINE SMOOTH",
"214 128 OFFCURVE",
"164 65 OFFCURVE",
"116 65 QCURVE SMOOTH",
"101 65 OFFCURVE",
"71 70 OFFCURVE",
"57 75 QCURVE SMOOTH",
"43 80 OFFCURVE",
"17 94 OFFCURVE",
"4 102 QCURVE",
"4 85 LINE",
"4 61 LINE",
"4 38 LINE",
"4 29 LINE",
"4 25 LINE"
);
}
);
width = 373;
}
);
unicode = 004A;
},
{
glyphname = K;
layers = (
{
layerId = "0E77000D-43E9-4C80-9DAA-F2DD3D3A742F";
paths = (
{
closed = 1;
nodes = (
"259 700 LINE",
"65 700 LINE",
"65 0 LINE",
"259 0 LINE",
"259 368 LINE",
"506 0 LINE",
"739 0 LINE",
"465 399 LINE",
"730 700 LINE",
"500 700 LINE",
"259 416 LINE"
);
}
);
width = 739;
},
{
layerId = "A901A9D0-A2D8-4DE6-ABBE-EA4AB0B05523";
paths = (
{
closed = 1;
nodes = (
"164 705 LINE",
"80 705 LINE",
"80 0 LINE",
"164 0 LINE",
"164 330 LINE",
"459 0 LINE",
"567 0 LINE",
"236 375 LINE",
"539 705 LINE",
"431 705 LINE",
"164 409 LINE"
);
}
);
width = 557;
}
);
unicode = 004B;
},
{
glyphname = L;
layers = (
{
layerId = "0E77000D-43E9-4C80-9DAA-F2DD3D3A742F";
paths = (
{
closed = 1;
nodes = (
"259 700 LINE",
"65 700 LINE",
"65 0 LINE",
"598 0 LINE",
"598 170 LINE",
"259 170 LINE"
);
}
);
width = 625;
},
{
layerId = "A901A9D0-A2D8-4DE6-ABBE-EA4AB0B05523";
paths = (
{
closed = 1;
nodes = (
"165 705 LINE",
"80 705 LINE",
"80 0 LINE",
"510 0 LINE",
"510 76 LINE",
"165 76 LINE"
);
}
);
width = 532;
}
);
unicode = 004C;
},
{
glyphname = M;
layers = (
{
layerId = "0E77000D-43E9-4C80-9DAA-F2DD3D3A742F";
paths = (
{
closed = 1;
nodes = (
"420 128 LINE",
"601 402 LINE",
"601 0 LINE",
"794 0 LINE",
"794 700 LINE",
"589 700 LINE",
"422 429 LINE",
"255 700 LINE",
"50 700 LINE",
"50 0 LINE",
"240 0 LINE",
"240 400 LINE"
);
}
);
width = 845;
},
{
layerId = "A901A9D0-A2D8-4DE6-ABBE-EA4AB0B05523";
paths = (
{
closed = 1;
nodes = (
"418 153 LINE",
"691 565 LINE",
"691 0 LINE",
"775 0 LINE",
"775 700 LINE",
"693 700 LINE",
"418 279 LINE",
"143 700 LINE",
"61 700 LINE",
"61 0 LINE",
"145 0 LINE",
"145 565 LINE"
);
}
);
width = 836;
}
);
unicode = 004D;
},
{
glyphname = N;
layers = (
{
layerId = "0E77000D-43E9-4C80-9DAA-F2DD3D3A742F";
paths = (
{
closed = 1;
nodes = (
"246 700 LINE",
"65 700 LINE",
"65 0 LINE",
"257 0 LINE",
"257 384 LINE",
"556 0 LINE",
"726 0 LINE",
"726 700 LINE",
"534 700 LINE",
"534 330 LINE"
);
}
);
width = 792;
},
{
layerId = "A901A9D0-A2D8-4DE6-ABBE-EA4AB0B05523";
paths = (
{
closed = 1;
nodes = (
"165 700 LINE",
"80 700 LINE",
"80 0 LINE",
"162 0 LINE",
"162 577 LINE",
"582 0 LINE",
"666 0 LINE",
"666 705 LINE",
"584 705 LINE",
"584 126 LINE"
);
}
);
width = 745;
}
);
unicode = 004E;
},
{
glyphname = O;
layers = (
{
layerId = "0E77000D-43E9-4C80-9DAA-F2DD3D3A742F";
paths = (
{
closed = 1;
nodes = (
"790 427 OFFCURVE",
"733 559 OFFCURVE",
"632 657 OFFCURVE",
"494 714 OFFCURVE",
"413 714 QCURVE SMOOTH",
"332 714 OFFCURVE",
"194 657 OFFCURVE",
"93 558 OFFCURVE",
"36 425 OFFCURVE",
"36 350 QCURVE SMOOTH",
"36 275 OFFCURVE",
"93 142 OFFCURVE",
"193 43 OFFCURVE",
"331 -14 OFFCURVE",
"412 -14 QCURVE SMOOTH",
"493 -14 OFFCURVE",
"631 44 OFFCURVE",
"732 143 OFFCURVE",
"790 277 OFFCURVE",
"790 352 QCURVE SMOOTH"
);
},
{
closed = 1;
nodes = (
"591 312 OFFCURVE",
"565 244 OFFCURVE",
"519 192 OFFCURVE",
"453 161 OFFCURVE",
"413 161 QCURVE SMOOTH",
"374 161 OFFCURVE",
"308 192 OFFCURVE",
"261 245 OFFCURVE",
"235 314 OFFCURVE",
"235 352 QCURVE SMOOTH",
"235 390 OFFCURVE",
"261 458 OFFCURVE",
"307 509 OFFCURVE",
"372 539 OFFCURVE",
"412 539 QCURVE SMOOTH",
"452 539 OFFCURVE",
"518 508 OFFCURVE",
"565 456 OFFCURVE",
"591 388 OFFCURVE",
"591 350 QCURVE SMOOTH"
);
}
);
width = 826;
},
{
layerId = "A901A9D0-A2D8-4DE6-ABBE-EA4AB0B05523";
paths = (
{
closed = 1;
nodes = (
"769 429 OFFCURVE",
"715 561 OFFCURVE",
"618 661 OFFCURVE",
"485 719 OFFCURVE",
"406 719 QCURVE SMOOTH",
"326 719 OFFCURVE",
"191 661 OFFCURVE",
"93 562 OFFCURVE",
"38 428 OFFCURVE",
"38 351 QCURVE SMOOTH",
"38 275 OFFCURVE",
"92 142 OFFCURVE",
"190 43 OFFCURVE",
"324 -14 OFFCURVE",
"404 -14 QCURVE SMOOTH",
"483 -14 OFFCURVE",
"617 44 OFFCURVE",
"714 144 OFFCURVE",
"769 278 OFFCURVE",
"769 354 QCURVE SMOOTH"
);
},
{
closed = 1;
nodes = (
"682 290 OFFCURVE",
"641 186 OFFCURVE",
"567 108 OFFCURVE",
"465 63 OFFCURVE",
"405 63 QCURVE SMOOTH",
"343 63 OFFCURVE",
"240 108 OFFCURVE",
"166 186 OFFCURVE",
"125 293 OFFCURVE",
"125 354 QCURVE SMOOTH",
"125 414 OFFCURVE",
"166 519 OFFCURVE",
"240 597 OFFCURVE",
"343 642 OFFCURVE",
"405 642 QCURVE SMOOTH",
"465 642 OFFCURVE",
"567 596 OFFCURVE",
"641 517 OFFCURVE",
"682 411 OFFCURVE",
"682 350 QCURVE SMOOTH"
);
}
);
width = 808;
}
);
unicode = 004F;
},
{
glyphname = P;
layers = (
{
layerId = "0E77000D-43E9-4C80-9DAA-F2DD3D3A742F";
paths = (
{
closed = 1;
nodes = (
"65 0 LINE",
"259 0 LINE",
"259 200 LINE",
"355 200 LINE SMOOTH",
"420 200 OFFCURVE",
"531 233 OFFCURVE",
"611 297 OFFCURVE",
"656 392 OFFCURVE",
"656 454 QCURVE SMOOTH",
"656 512 OFFCURVE",
"615 604 OFFCURVE",
"539 667 OFFCURVE",
"431 700 OFFCURVE",
"365 700 QCURVE SMOOTH",
"65 700 LINE"
);
},
{
closed = 1;
nodes = (
"259 537 LINE",
"350 537 LINE SMOOTH",
"403 537 OFFCURVE",
"462 490 OFFCURVE",
"462 445 QCURVE SMOOTH",
"462 403 OFFCURVE",
"403 352 OFFCURVE",
"351 352 QCURVE SMOOTH",
"259 352 LINE"
);
}
);
width = 685;
},
{
layerId = "A901A9D0-A2D8-4DE6-ABBE-EA4AB0B05523";
paths = (
{
closed = 1;
nodes = (
"80 -2 LINE",
"166 -2 LINE",
"166 279 LINE",
"300 279 LINE SMOOTH",
"354 279 OFFCURVE",
"448 308 OFFCURVE",
"518 364 OFFCURVE",
"558 445 OFFCURVE",
"558 497 QCURVE SMOOTH",
"558 546 OFFCURVE",
"522 623 OFFCURVE",
"456 677 OFFCURVE",
"363 705 OFFCURVE",
"307 705 QCURVE SMOOTH",
"80 705 LINE"
);
},
{
closed = 1;
nodes = (
"166 629 LINE",
"300 629 LINE SMOOTH",
"382 629 OFFCURVE",
"472 561 OFFCURVE",
"472 493 QCURVE SMOOTH",
"472 428 OFFCURVE",
"380 355 OFFCURVE",
"298 355 QCURVE SMOOTH",
"166 355 LINE"
);
}
);
width = 601;
}
);
unicode = 0050;
},
{
glyphname = Q;
layers = (
{
layerId = "0E77000D-43E9-4C80-9DAA-F2DD3D3A742F";
paths = (
{
closed = 1;
nodes = (
"846 -148 LINE",
"846 52 LINE",
"736 163 LINE",
"765 206 OFFCURVE",
"790 294 OFFCURVE",
"790 350 QCURVE SMOOTH",
"790 426 OFFCURVE",
"733 559 OFFCURVE",
"632 657 OFFCURVE",
"494 714 OFFCURVE",
"413 714 QCURVE SMOOTH",
"332 714 OFFCURVE",
"194 657 OFFCURVE",
"93 558 OFFCURVE",
"36 425 OFFCURVE",
"36 350 QCURVE SMOOTH",
"36 274 OFFCURVE",
"93 141 OFFCURVE",
"193 43 OFFCURVE",
"331 -14 OFFCURVE",
"412 -14 QCURVE SMOOTH",
"444 -14 OFFCURVE",
"508 -4 OFFCURVE",
"567 14 OFFCURVE",
"617 39 OFFCURVE",
"634 55 QCURVE"
);
},
{
closed = 1;
nodes = (
"591 311 OFFCURVE",
"565 243 OFFCURVE",
"519 191 OFFCURVE",
"453 161 OFFCURVE",
"413 161 QCURVE SMOOTH",
"374 161 OFFCURVE",
"308 192 OFFCURVE",
"261 244 OFFCURVE",
"235 312 OFFCURVE",
"235 350 QCURVE SMOOTH",
"235 389 OFFCURVE",
"261 457 OFFCURVE",
"307 509 OFFCURVE",
"372 539 OFFCURVE",
"412 539 QCURVE SMOOTH",
"452 539 OFFCURVE",
"518 508 OFFCURVE",
"565 456 OFFCURVE",
"591 388 OFFCURVE",
"591 350 QCURVE SMOOTH"
);
}
);
width = 880;
},
{
layerId = "A901A9D0-A2D8-4DE6-ABBE-EA4AB0B05523";
paths = (
{
closed = 1;
nodes = (
"767 -79 LINE",
"767 30 LINE",
"673 104 LINE",
"718 153 OFFCURVE",
"769 279 OFFCURVE",
"769 354 QCURVE SMOOTH",
"769 429 OFFCURVE",
"715 561 OFFCURVE",
"618 661 OFFCURVE",
"485 719 OFFCURVE",
"406 719 QCURVE SMOOTH",
"326 719 OFFCURVE",
"191 661 OFFCURVE",
"93 561 OFFCURVE",
"38 427 OFFCURVE",
"38 350 QCURVE SMOOTH",
"38 275 OFFCURVE",
"92 142 OFFCURVE",
"190 43 OFFCURVE",
"324 -14 OFFCURVE",
"404 -14 QCURVE SMOOTH",
"434 -14 OFFCURVE",
"486 -6 OFFCURVE",
"535 9 OFFCURVE",
"582 31 OFFCURVE",
"605 44 QCURVE"
);
},
{
closed = 1;
nodes = (
"682 290 OFFCURVE",
"641 186 OFFCURVE",
"567 108 OFFCURVE",
"465 63 OFFCURVE",
"405 63 QCURVE SMOOTH",
"343 63 OFFCURVE",
"240 108 OFFCURVE",
"166 186 OFFCURVE",
"125 293 OFFCURVE",
"125 354 QCURVE SMOOTH",
"125 414 OFFCURVE",
"166 519 OFFCURVE",
"240 597 OFFCURVE",
"343 642 OFFCURVE",
"405 642 QCURVE SMOOTH",
"465 642 OFFCURVE",
"567 596 OFFCURVE",
"641 517 OFFCURVE",
"682 411 OFFCURVE",
"682 350 QCURVE SMOOTH"
);
}
);
width = 803;
}
);
unicode = 0051;
},
{
glyphname = R;
layers = (
{
layerId = "0E77000D-43E9-4C80-9DAA-F2DD3D3A742F";
paths = (
{
closed = 1;
nodes = (
"260 0 LINE",
"260 212 LINE",
"345 212 LINE",
"485 0 LINE",
"709 0 LINE",
"542 244 LINE",
"608 272 OFFCURVE",
"686 380 OFFCURVE",
"686 461 QCURVE SMOOTH",
"686 515 OFFCURVE",
"650 603 OFFCURVE",
"578 666 OFFCURVE",
"469 700 OFFCURVE",
"396 700 QCURVE SMOOTH",
"65 700 LINE",
"65 0 LINE"
);
},
{
closed = 1;
nodes = (
"260 364 LINE",
"260 532 LINE",
"386 532 LINE SMOOTH",
"435 532 OFFCURVE",
"491 491 OFFCURVE",
"491 449 QCURVE SMOOTH",
"491 430 OFFCURVE",
"477 399 OFFCURVE",
"450 376 OFFCURVE",
"412 364 OFFCURVE",
"387 364 QCURVE SMOOTH"
);
}
);
width = 727;
},
{
layerId = "A901A9D0-A2D8-4DE6-ABBE-EA4AB0B05523";
paths = (
{
closed = 1;
nodes = (
"166 0 LINE",
"166 299 LINE",
"256 299 LINE",
"475 0 LINE",
"578 0 LINE",
"349 304 LINE",
"437 319 OFFCURVE",
"543 422 OFFCURVE",
"543 503 QCURVE SMOOTH",
"543 548 OFFCURVE",
"507 622 OFFCURVE",
"443 676 OFFCURVE",
"353 705 OFFCURVE",
"299 705 QCURVE SMOOTH",
"80 705 LINE",
"80 0 LINE"
);
},
{
closed = 1;
nodes = (
"166 368 LINE",
"166 629 LINE",
"289 629 LINE SMOOTH",
"369 629 OFFCURVE",
"457 567 OFFCURVE",
"457 500 QCURVE SMOOTH",
"457 464 OFFCURVE",
"429 414 OFFCURVE",
"379 382 OFFCURVE",
"311 368 OFFCURVE",
"272 368 QCURVE SMOOTH"
);
}
);
width = 603;
}
);
unicode = 0052;
},
{
glyphname = S;
layers = (
{
layerId = "0E77000D-43E9-4C80-9DAA-F2DD3D3A742F";
paths = (
{
closed = 1;
nodes = (
"325 149 OFFCURVE",
"237 169 OFFCURVE",
"151 203 OFFCURVE",
"74 251 OFFCURVE",
"42 278 QCURVE",
"42 104 LINE",
"108 44 OFFCURVE",
"282 -12 OFFCURVE",
"370 -12 QCURVE SMOOTH",
"429 -12 OFFCURVE",
"527 14 OFFCURVE",
"599 64 OFFCURVE",
"645 135 OFFCURVE",
"651 181 QCURVE",
"657 256 OFFCURVE",
"606 348 OFFCURVE",
"521 402 OFFCURVE",
"419 430 OFFCURVE",
"331 452 OFFCURVE",
"271 479 OFFCURVE",
"271 506 QCURVE SMOOTH",
"271 524 OFFCURVE",
"313 556 OFFCURVE",
"361 556 QCURVE SMOOTH",
"395 556 OFFCURVE",
"469 537 OFFCURVE",
"541 506 OFFCURVE",
"607 465 OFFCURVE",
"634 442 QCURVE",
"634 619 LINE",
"577 665 OFFCURVE",
"436 712 OFFCURVE",
"346 712 QCURVE SMOOTH",
"293 712 OFFCURVE",
"195 685 OFFCURVE",
"120 629 OFFCURVE",
"75 545 OFFCURVE",
"75 488 QCURVE SMOOTH",
"75 424 OFFCURVE",
"132 345 OFFCURVE",
"216 298 OFFCURVE",
"316 273 OFFCURVE",
"400 251 OFFCURVE",
"457 223 OFFCURVE",
"457 197 QCURVE SMOOTH",
"457 180 OFFCURVE",
"438 161 OFFCURVE",
"411 151 OFFCURVE",
"379 149 OFFCURVE",
"367 149 QCURVE SMOOTH"
);
}
);
width = 691;
},
{
layerId = "A901A9D0-A2D8-4DE6-ABBE-EA4AB0B05523";
paths = (
{
closed = 1;
nodes = (
"243 63 OFFCURVE",
"188 73 OFFCURVE",
"131 96 OFFCURVE",
"73 135 OFFCURVE",
"44 164 QCURVE",
"44 71 LINE",
"92 25 OFFCURVE",
"201 -12 OFFCURVE",
"263 -12 QCURVE SMOOTH",
"308 -12 OFFCURVE",
"394 8 OFFCURVE",
"463 53 OFFCURVE",
"505 126 OFFCURVE",
"505 178 QCURVE SMOOTH",
"505 234 OFFCURVE",
"452 312 OFFCURVE",
"372 371 OFFCURVE",
"278 416 OFFCURVE",
"198 462 OFFCURVE",
"145 515 OFFCURVE",
"145 552 QCURVE SMOOTH",
"145 596 OFFCURVE",
"220 643 OFFCURVE",
"277 643 QCURVE SMOOTH",
"297 643 OFFCURVE",
"340 636 OFFCURVE",
"384 617 OFFCURVE",
"427 584 OFFCURVE",
"447 558 QCURVE",
"447 661 LINE",
"412 691 OFFCURVE",
"325 718 OFFCURVE",
"276 718 QCURVE SMOOTH",
"234 718 OFFCURVE",
"155 696 OFFCURVE",
"95 654 OFFCURVE",
"59 593 OFFCURVE",
"59 554 QCURVE SMOOTH",
"59 500 OFFCURVE",
"112 424 OFFCURVE",
"192 366 OFFCURVE",
"286 319 OFFCURVE",
"366 270 OFFCURVE",
"419 211 OFFCURVE",
"419 170 QCURVE SMOOTH",
"419 140 OFFCURVE",
"391 99 OFFCURVE",
"348 74 OFFCURVE",
"295 63 OFFCURVE",
"269 63 QCURVE SMOOTH"
);
}
);
width = 550;
}
);
unicode = 0053;
},
{
glyphname = T;
layers = (
{
layerId = "0E77000D-43E9-4C80-9DAA-F2DD3D3A742F";
paths = (
{
closed = 1;
nodes = (
"426 530 LINE",
"636 530 LINE",
"636 700 LINE",
"22 700 LINE",
"22 530 LINE",
"232 530 LINE",
"232 0 LINE",
"426 0 LINE"
);
}
);
width = 658;
},
{
layerId = "A901A9D0-A2D8-4DE6-ABBE-EA4AB0B05523";
paths = (
{
closed = 1;
nodes = (
"293 629 LINE",
"503 629 LINE",
"503 705 LINE",
"-1 705 LINE",
"-1 629 LINE",
"209 629 LINE",
"209 0 LINE",
"293 0 LINE"
);
}
);
width = 502;
}
);
unicode = 0054;
},
{
glyphname = U;
layers = (
{
layerId = "0E77000D-43E9-4C80-9DAA-F2DD3D3A742F";
paths = (
{
closed = 1;
nodes = (
"463 -13 OFFCURVE",
"584 25 OFFCURVE",
"669 105 OFFCURVE",
"716 227 OFFCURVE",
"716 312 QCURVE SMOOTH",
"716 700 LINE",
"519 700 LINE",
"519 306 LINE SMOOTH",
"519 232 OFFCURVE",
"449 162 OFFCURVE",
"390 162 QCURVE SMOOTH",
"331 162 OFFCURVE",
"261 235 OFFCURVE",
"261 311 QCURVE SMOOTH",
"261 700 LINE",
"64 700 LINE",
"64 307 LINE SMOOTH",
"64 225 OFFCURVE",
"109 104 OFFCURVE",
"193 25 OFFCURVE",
"313 -13 OFFCURVE",
"388 -13 QCURVE SMOOTH"
);
}
);
width = 780;
},
{
layerId = "A901A9D0-A2D8-4DE6-ABBE-EA4AB0B05523";
paths = (
{
closed = 1;
nodes = (
"429 -15 OFFCURVE",
"533 27 OFFCURVE",
"603 105 OFFCURVE",
"638 217 OFFCURVE",
"638 287 QCURVE SMOOTH",
"638 706 LINE",
"554 706 LINE",
"554 285 LINE SMOOTH",
"554 173 OFFCURVE",
"453 63 OFFCURVE",
"359 63 QCURVE SMOOTH",
"260 63 OFFCURVE",
"163 184 OFFCURVE",
"163 288 QCURVE SMOOTH",
"163 706 LINE",
"79 706 LINE",
"79 284 LINE SMOOTH",
"79 217 OFFCURVE",
"115 107 OFFCURVE",
"186 28 OFFCURVE",
"291 -15 OFFCURVE",
"360 -15 QCURVE SMOOTH"
);
}
);
width = 717;
}
);
unicode = 0055;
},
{
glyphname = V;
layers = (
{
layerId = "0E77000D-43E9-4C80-9DAA-F2DD3D3A742F";
paths = (
{
closed = 1;
nodes = (
"13 700 LINE",
"297 -5 LINE",
"477 -5 LINE",
"761 700 LINE",
"548 700 LINE",
"389 257 LINE",
"230 700 LINE"
);
}
);
width = 773;
},
{
layerId = "A901A9D0-A2D8-4DE6-ABBE-EA4AB0B05523";
paths = (
{
closed = 1;
nodes = (
"4 705 LINE",
"281 0 LINE",
"382 0 LINE",
"657 705 LINE",
"565 705 LINE",
"333 88 LINE",
"98 705 LINE"
);
}
);
width = 653;
}
);
unicode = 0056;
},
{
glyphname = W;
layers = (
{
layerId = "0E77000D-43E9-4C80-9DAA-F2DD3D3A742F";
paths = (
{
closed = 1;
nodes = (
"221 700 LINE",
"16 700 LINE",
"250 -5 LINE",
"419 -5 LINE",
"559 398 LINE",
"700 -5 LINE",
"869 -5 LINE",
"1103 700 LINE",
"902 700 LINE",
"780 295 LINE",
"645 702 LINE",
"478 702 LINE",
"343 295 LINE"
);
}
);
width = 1119;
},
{
layerId = "A901A9D0-A2D8-4DE6-ABBE-EA4AB0B05523";
paths = (
{
closed = 1;
nodes = (
"107 705 LINE",
"16 705 LINE",
"253 0 LINE",
"335 0 LINE",
"508 582 LINE",
"687 0 LINE",
"767 0 LINE",
"1001 705 LINE",
"913 705 LINE",
"729 126 LINE",
"551 706 LINE",
"470 706 LINE",
"297 126 LINE"
);
}
);
width = 1009;
}
);
unicode = 0057;
},
{
glyphname = X;
layers = (
{
layerId = "0E77000D-43E9-4C80-9DAA-F2DD3D3A742F";
paths = (
{
closed = 1;
nodes = (
"24 700 LINE",
"254 356 LINE",
"14 0 LINE",
"232 0 LINE",
"367 211 LINE",
"501 0 LINE",
"724 0 LINE",
"484 358 LINE",
"714 700 LINE",
"496 700 LINE",
"371 503 LINE",
"247 700 LINE"
);
}
);
width = 737;
},
{
layerId = "A901A9D0-A2D8-4DE6-ABBE-EA4AB0B05523";
paths = (
{
closed = 1;
nodes = (
"38 705 LINE",
"281 361 LINE",
"26 0 LINE",
"125 0 LINE",
"329 296 LINE",
"535 0 LINE",
"632 0 LINE",
"379 363 LINE",
"619 705 LINE",
"523 705 LINE",
"332 426 LINE",
"137 705 LINE"
);
}
);
width = 658;
}
);
unicode = 0058;
},
{
glyphname = Y;
layers = (
{
layerId = "0E77000D-43E9-4C80-9DAA-F2DD3D3A742F";
paths = (
{
closed = 1;
nodes = (
"468 265 LINE",
"734 700 LINE",
"517 700 LINE",
"372 445 LINE",
"228 700 LINE",
"7 700 LINE",
"273 262 LINE",
"273 0 LINE",
"468 0 LINE"
);
}
);
width = 743;
},
{
layerId = "A901A9D0-A2D8-4DE6-ABBE-EA4AB0B05523";
paths = (
{
closed = 1;
nodes = (
"369 281 LINE",
"639 705 LINE",
"544 705 LINE",
"330 358 LINE",
"114 705 LINE",
"14 705 LINE",
"285 280 LINE",
"285 0 LINE",
"369 0 LINE"
);
}
);
width = 640;
}
);
unicode = 0059;
},
{
glyphname = Z;
layers = (
{
layerId = "0E77000D-43E9-4C80-9DAA-F2DD3D3A742F";
paths = (
{
closed = 1;
nodes = (
"641 559 LINE",
"641 700 LINE",
"34 700 LINE",
"34 536 LINE",
"373 536 LINE",
"22 141 LINE",
"22 0 LINE",
"641 0 LINE",
"641 164 LINE",
"290 164 LINE"
);
}
);
width = 673;
},
{
layerId = "A901A9D0-A2D8-4DE6-ABBE-EA4AB0B05523";
paths = (
{
closed = 1;
nodes = (
"634 632 LINE",
"634 705 LINE",
"59 705 LINE",
"59 630 LINE",
"531 630 LINE",
"31 72 LINE",
"31 0 LINE",
"613 0 LINE",
"613 75 LINE",
"141 75 LINE"
);
}
);
width = 666;
}
);
unicode = 005A;
},
{
glyphname = bracketleft;
layers = (
{
layerId = "0E77000D-43E9-4C80-9DAA-F2DD3D3A742F";
paths = (
{
closed = 1;
nodes = (
"412 700 LINE",
"66 700 LINE",
"66 -130 LINE",
"412 -130 LINE",
"412 -1 LINE",
"236 -1 LINE",
"236 571 LINE",
"412 571 LINE"
);
}
);
width = 467;
},
{
layerId = "A901A9D0-A2D8-4DE6-ABBE-EA4AB0B05523";
paths = (
{
closed = 1;
nodes = (
"326 726 LINE",
"86 726 LINE",
"86 -158 LINE",
"326 -158 LINE",
"326 -92 LINE",
"163 -92 LINE",
"163 660 LINE",
"326 660 LINE"
);
}
);
width = 345;
}
);
unicode = 005B;
},
{
glyphname = backslash;
layers = (
{
layerId = "0E77000D-43E9-4C80-9DAA-F2DD3D3A742F";
paths = (
{
closed = 1;
nodes = (
"449 -128 LINE",
"591 -103 LINE",
"160 798 LINE",
"17 776 LINE"
);
}
);
width = 616;
},
{
layerId = "A901A9D0-A2D8-4DE6-ABBE-EA4AB0B05523";
paths = (
{
closed = 1;
nodes = (
"413 -117 LINE",
"486 -111 LINE",
"74 781 LINE",
"2 773 LINE"
);
}
);
width = 485;
}
);
unicode = 005C;
},
{
glyphname = bracketright;
layers = (
{
layerId = "0E77000D-43E9-4C80-9DAA-F2DD3D3A742F";
paths = (
{
closed = 1;
nodes = (
"54 -130 LINE",
"400 -130 LINE",
"400 700 LINE",
"54 700 LINE",
"54 571 LINE",
"230 571 LINE",
"230 -1 LINE",
"54 -1 LINE"
);
}
);
width = 466;
},
{
layerId = "A901A9D0-A2D8-4DE6-ABBE-EA4AB0B05523";
paths = (
{
closed = 1;
nodes = (
"20 -159 LINE",
"262 -159 LINE",
"262 726 LINE",
"20 726 LINE",
"20 659 LINE",
"183 659 LINE",
"183 -92 LINE",
"20 -92 LINE"
);
}
);
width = 347;
}
);
unicode = 005D;
},
{
glyphname = asciicircum;
layers = (
{
layerId = "0E77000D-43E9-4C80-9DAA-F2DD3D3A742F";
paths = (
{
closed = 1;
nodes = (
"37 493 LINE",
"168 493 LINE",
"244 590 LINE",
"320 493 LINE",
"453 493 LINE",
"309 699 LINE",
"181 699 LINE"
);
}
);
width = 488;
},
{
layerId = "A901A9D0-A2D8-4DE6-ABBE-EA4AB0B05523";
paths = (
{
closed = 1;
nodes = (
"63 418 LINE",
"136 418 LINE",
"277 642 LINE",
"418 418 LINE",
"494 418 LINE",
"313 706 LINE",
"241 706 LINE"
);
}
);
width = 557;
}
);
unicode = 005E;
},
{
glyphname = underscore;
layers = (
{
layerId = "0E77000D-43E9-4C80-9DAA-F2DD3D3A742F";
paths = (
{
closed = 1;
nodes = (
"0 -160 LINE",
"604 -160 LINE",
"604 -44 LINE",
"0 -44 LINE"
);
}
);
width = 604;
},
{
layerId = "A901A9D0-A2D8-4DE6-ABBE-EA4AB0B05523";
paths = (
{
closed = 1;
nodes = (
"0 -147 LINE",
"561 -147 LINE",
"561 -82 LINE",
"0 -82 LINE"
);
}
);
width = 561;
}
);
unicode = 005F;
},
{
glyphname = grave;
layers = (
{
layerId = "0E77000D-43E9-4C80-9DAA-F2DD3D3A742F";
paths = (
{
closed = 1;
nodes = (
"143 587 LINE",
"277 587 LINE",
"173 772 LINE",
"-4 715 LINE"
);
}
);
width = 339;
},
{
layerId = "A901A9D0-A2D8-4DE6-ABBE-EA4AB0B05523";
paths = (
{
closed = 1;
nodes = (
"149 563 LINE",
"212 563 LINE",
"117 712 LINE",
"23 692 LINE"
);
}
);
width = 310;
}
);
unicode = 0060;
},
{
glyphname = a;
layers = (
{
layerId = "0E77000D-43E9-4C80-9DAA-F2DD3D3A742F";
paths = (
{
closed = 1;
nodes = (
"371 139 LINE",
"351 122 OFFCURVE",
"307 107 OFFCURVE",
"284 107 QCURVE SMOOTH",
"269 107 OFFCURVE",
"243 116 OFFCURVE",
"224 133 OFFCURVE",
"212 156 OFFCURVE",
"212 170 QCURVE SMOOTH",
"212 184 OFFCURVE",
"224 207 OFFCURVE",
"246 225 OFFCURVE",
"279 235 OFFCURVE",
"300 235 QCURVE SMOOTH",
"320 235 OFFCURVE",
"358 227 OFFCURVE",
"371 221 QCURVE"
);
},
{
closed = 1;
nodes = (
"556 -12 LINE",
"556 311 LINE SMOOTH",
"556 369 OFFCURVE",
"525 458 OFFCURVE",
"460 518 OFFCURVE",
"359 549 OFFCURVE",
"288 549 QCURVE SMOOTH",
"222 549 OFFCURVE",
"121 526 OFFCURVE",
"74 507 QCURVE",
"74 373 LINE",
"119 390 OFFCURVE",
"198 404 OFFCURVE",
"238 404 QCURVE SMOOTH",
"305 404 OFFCURVE",
"371 362 OFFCURVE",
"371 315 QCURVE SMOOTH",
"371 306 LINE",
"348 314 OFFCURVE",
"278 327 OFFCURVE",
"239 327 QCURVE SMOOTH",
"192 327 OFFCURVE",
"114 305 OFFCURVE",
"58 263 OFFCURVE",
"27 199 OFFCURVE",
"27 157 QCURVE SMOOTH",
"27 117 OFFCURVE",
"55 54 OFFCURVE",
"105 10 OFFCURVE",
"173 -12 OFFCURVE",
"212 -12 QCURVE SMOOTH",
"265 -12 OFFCURVE",
"342 25 OFFCURVE",
"370 56 QCURVE"
);
}
);
width = 605;
},
{
layerId = "A901A9D0-A2D8-4DE6-ABBE-EA4AB0B05523";
paths = (
{
closed = 1;
nodes = (
"400 122 LINE",
"375 92 OFFCURVE",
"304 57 OFFCURVE",
"255 57 QCURVE SMOOTH",
"228 57 OFFCURVE",
"179 70 OFFCURVE",
"141 95 OFFCURVE",
"119 134 OFFCURVE",
"119 161 QCURVE SMOOTH",
"119 190 OFFCURVE",
"145 230 OFFCURVE",
"185 255 OFFCURVE",
"236 266 OFFCURVE",
"260 266 QCURVE SMOOTH",
"308 266 OFFCURVE",
"375 242 OFFCURVE",
"400 228 QCURVE"
);
},
{
closed = 1;
nodes = (
"482 0 LINE",
"482 308 LINE SMOOTH",
"482 354 OFFCURVE",
"445 423 OFFCURVE",
"383 469 OFFCURVE",
"303 492 OFFCURVE",
"259 492 QCURVE SMOOTH",
"203 492 OFFCURVE",
"103 465 OFFCURVE",
"69 450 QCURVE",
"69 372 LINE",
"113 399 OFFCURVE",
"208 422 OFFCURVE",
"256 422 QCURVE SMOOTH",
"319 422 OFFCURVE",
"400 375 OFFCURVE",
"400 318 QCURVE SMOOTH",
"400 299 LINE",
"368 318 OFFCURVE",
"291 333 OFFCURVE",
"248 333 QCURVE SMOOTH",
"211 333 OFFCURVE",
"135 318 OFFCURVE",
"75 280 OFFCURVE",
"37 218 OFFCURVE",
"37 171 QCURVE SMOOTH",
"37 127 OFFCURVE",
"73 59 OFFCURVE",
"130 13 OFFCURVE",
"201 -11 OFFCURVE",
"237 -11 QCURVE SMOOTH",
"287 -11 OFFCURVE",
"364 19 OFFCURVE",
"398 49 QCURVE"
);
}
);
width = 546;
}
);
unicode = 0061;
},
{
glyphname = b;
layers = (
{
layerId = "0E77000D-43E9-4C80-9DAA-F2DD3D3A742F";
paths = (
{
closed = 1;
nodes = (
"456 -12 OFFCURVE",
"543 27 OFFCURVE",
"608 100 OFFCURVE",
"647 205 OFFCURVE",
"647 271 QCURVE SMOOTH",
"647 337 OFFCURVE",
"608 441 OFFCURVE",
"542 514 OFFCURVE",
"455 553 OFFCURVE",
"407 553 QCURVE SMOOTH",
"346 553 OFFCURVE",
"271 503 OFFCURVE",
"243 469 QCURVE",
"243 730 LINE",
"53 730 LINE",
"53 -12 LINE",
"243 66 LINE",
"269 35 OFFCURVE",
"346 -12 OFFCURVE",
"408 -12 QCURVE SMOOTH"
);
},
{
closed = 1;
nodes = (
"460 244 OFFCURVE",
"443 198 OFFCURVE",
"413 165 OFFCURVE",
"372 147 OFFCURVE",
"349 147 QCURVE SMOOTH",
"326 147 OFFCURVE",
"286 165 OFFCURVE",
"257 198 OFFCURVE",
"240 243 OFFCURVE",
"240 270 QCURVE SMOOTH",
"240 297 OFFCURVE",
"257 343 OFFCURVE",
"286 376 OFFCURVE",
"326 394 OFFCURVE",
"349 394 QCURVE SMOOTH",
"372 394 OFFCURVE",
"413 376 OFFCURVE",
"443 343 OFFCURVE",
"460 299 OFFCURVE",
"460 272 QCURVE SMOOTH"
);
}
);
width = 678;
},
{
layerId = "A901A9D0-A2D8-4DE6-ABBE-EA4AB0B05523";
paths = (
{
closed = 1;
nodes = (
"388 -10 OFFCURVE",
"475 26 OFFCURVE",
"539 92 OFFCURVE",
"577 185 OFFCURVE",
"577 241 QCURVE SMOOTH",
"577 298 OFFCURVE",
"540 391 OFFCURVE",
"475 458 OFFCURVE",
"389 494 OFFCURVE",
"340 494 QCURVE SMOOTH",
"280 494 OFFCURVE",
"186 439 OFFCURVE",
"154 394 QCURVE",
"154 732 LINE",
"72 732 LINE",
"72 1 LINE",
"163 71 LINE",
"191 36 OFFCURVE",
"279 -10 OFFCURVE",
"338 -10 QCURVE SMOOTH"
);
},
{
closed = 1;
nodes = (
"495 200 OFFCURVE",
"469 134 OFFCURVE",
"423 86 OFFCURVE",
"360 59 OFFCURVE",
"323 59 QCURVE SMOOTH",
"288 59 OFFCURVE",
"225 87 OFFCURVE",
"178 136 OFFCURVE",
"151 202 OFFCURVE",
"151 241 QCURVE SMOOTH",
"151 280 OFFCURVE",
"178 347 OFFCURVE",
"225 395 OFFCURVE",
"288 422 OFFCURVE",
"323 422 QCURVE SMOOTH",
"362 422 OFFCURVE",
"425 394 OFFCURVE",
"470 345 OFFCURVE",
"495 278 OFFCURVE",
"495 240 QCURVE SMOOTH"
);
}
);
width = 616;
}
);
unicode = 0062;
},
{
glyphname = c;
layers = (
{
layerId = "0E77000D-43E9-4C80-9DAA-F2DD3D3A742F";
paths = (
{
closed = 1;
nodes = (
"434 537 LINE",
"411 545 OFFCURVE",
"350 552 OFFCURVE",
"322 552 QCURVE SMOOTH",
"258 552 OFFCURVE",
"151 507 OFFCURVE",
"75 429 OFFCURVE",
"32 327 OFFCURVE",
"32 270 QCURVE SMOOTH",
"32 212 OFFCURVE",
"76 109 OFFCURVE",
"154 32 OFFCURVE",
"259 -13 OFFCURVE",
"320 -13 QCURVE SMOOTH",
"350 -13 OFFCURVE",
"414 -3 OFFCURVE",
"439 6 QCURVE",
"439 183 LINE",
"414 163 OFFCURVE",
"363 147 OFFCURVE",
"340 147 QCURVE SMOOTH",
"314 147 OFFCURVE",
"269 166 OFFCURVE",
"236 199 OFFCURVE",
"217 244 OFFCURVE",
"217 270 QCURVE SMOOTH",
"217 296 OFFCURVE",
"235 340 OFFCURVE",
"266 373 OFFCURVE",
"310 392 OFFCURVE",
"337 392 QCURVE SMOOTH",
"366 392 OFFCURVE",
"412 372 OFFCURVE",
"434 355 QCURVE"
);
}
);
width = 458;
},
{
layerId = "A901A9D0-A2D8-4DE6-ABBE-EA4AB0B05523";
paths = (
{
closed = 1;
nodes = (
"425 452 LINE",
"398 472 OFFCURVE",
"325 492 OFFCURVE",
"289 492 QCURVE SMOOTH",
"233 492 OFFCURVE",
"141 452 OFFCURVE",
"76 384 OFFCURVE",
"40 292 OFFCURVE",
"40 240 QCURVE SMOOTH",
"40 187 OFFCURVE",
"77 96 OFFCURVE",
"142 29 OFFCURVE",
"230 -9 OFFCURVE",
"282 -9 QCURVE SMOOTH",
"327 -9 OFFCURVE",
"401 17 OFFCURVE",
"430 35 QCURVE",
"430 125 LINE",
"403 96 OFFCURVE",
"333 60 OFFCURVE",
"291 60 QCURVE SMOOTH",
"255 60 OFFCURVE",
"194 90 OFFCURVE",
"149 141 OFFCURVE",
"123 209 OFFCURVE",
"123 246 QCURVE SMOOTH",
"123 284 OFFCURVE",
"148 349 OFFCURVE",
"191 396 OFFCURVE",
"252 423 OFFCURVE",
"288 423 QCURVE SMOOTH",
"328 423 OFFCURVE",
"397 389 OFFCURVE",
"425 359 QCURVE"
);
}
);
width = 459;
}
);
unicode = 0063;
},
{
glyphname = d;
layers = (
{
layerId = "0E77000D-43E9-4C80-9DAA-F2DD3D3A742F";
paths = (
{
closed = 1;
nodes = (
"625 -12 LINE",
"625 730 LINE",
"435 730 LINE",
"435 475 LINE",
"408 506 OFFCURVE",
"331 553 OFFCURVE",
"270 553 QCURVE SMOOTH",
"222 553 OFFCURVE",
"135 514 OFFCURVE",
"70 441 OFFCURVE",
"31 336 OFFCURVE",
"31 270 QCURVE SMOOTH",
"31 204 OFFCURVE",
"70 100 OFFCURVE",
"136 27 OFFCURVE",
"223 -12 OFFCURVE",
"271 -12 QCURVE SMOOTH",
"331 -12 OFFCURVE",
"407 38 OFFCURVE",
"435 72 QCURVE"
);
},
{
closed = 1;
nodes = (
"218 298 OFFCURVE",
"236 343 OFFCURVE",
"266 376 OFFCURVE",
"306 394 OFFCURVE",
"328 394 QCURVE SMOOTH",
"351 394 OFFCURVE",
"391 376 OFFCURVE",
"421 343 OFFCURVE",
"438 299 OFFCURVE",
"438 272 QCURVE SMOOTH",
"438 244 OFFCURVE",
"421 198 OFFCURVE",
"391 165 OFFCURVE",
"351 147 OFFCURVE",
"328 147 QCURVE SMOOTH",
"306 147 OFFCURVE",
"266 165 OFFCURVE",
"236 198 OFFCURVE",
"218 243 OFFCURVE",
"218 270 QCURVE SMOOTH"
);
}
);
width = 680;
},
{
layerId = "A901A9D0-A2D8-4DE6-ABBE-EA4AB0B05523";
paths = (
{
closed = 1;
nodes = (
"542 1 LINE",
"542 732 LINE",
"460 732 LINE",
"460 398 LINE",
"429 442 OFFCURVE",
"336 494 OFFCURVE",
"275 494 QCURVE SMOOTH",
"227 494 OFFCURVE",
"141 458 OFFCURVE",
"77 392 OFFCURVE",
"39 298 OFFCURVE",
"39 241 QCURVE SMOOTH",
"39 184 OFFCURVE",
"77 91 OFFCURVE",
"142 25 OFFCURVE",
"229 -10 OFFCURVE",
"278 -10 QCURVE SMOOTH",
"337 -10 OFFCURVE",
"417 37 OFFCURVE",
"450 77 QCURVE"
);
},
{
closed = 1;
nodes = (
"122 283 OFFCURVE",
"148 350 OFFCURVE",
"193 398 OFFCURVE",
"254 424 OFFCURVE",
"288 424 QCURVE SMOOTH",
"323 424 OFFCURVE",
"386 397 OFFCURVE",
"434 348 OFFCURVE",
"463 281 OFFCURVE",
"463 242 QCURVE SMOOTH",
"463 203 OFFCURVE",
"435 136 OFFCURVE",
"387 87 OFFCURVE",
"324 60 OFFCURVE",
"288 60 QCURVE SMOOTH",
"252 60 OFFCURVE",
"192 87 OFFCURVE",
"147 135 OFFCURVE",
"122 202 OFFCURVE",
"122 242 QCURVE SMOOTH"
);
}
);
width = 615;
}
);
unicode = 0064;
},
{
glyphname = e;
layers = (
{
layerId = "0E77000D-43E9-4C80-9DAA-F2DD3D3A742F";
paths = (
{
closed = 1;
nodes = (
"290 121 OFFCURVE",
"245 133 OFFCURVE",
"227 148 QCURVE",
"582 240 LINE",
"582 300 OFFCURVE",
"548 412 OFFCURVE",
"480 497 OFFCURVE",
"380 548 OFFCURVE",
"314 548 QCURVE SMOOTH",
"253 548 OFFCURVE",
"149 506 OFFCURVE",
"74 431 OFFCURVE",
"32 329 OFFCURVE",
"32 269 QCURVE SMOOTH",
"32 207 OFFCURVE",
"73 102 OFFCURVE",
"148 26 OFFCURVE",
"251 -17 OFFCURVE",
"314 -17 QCURVE SMOOTH",
"336 -17 OFFCURVE",
"389 -11 OFFCURVE",
"446 2 OFFCURVE",
"503 25 OFFCURVE",
"529 42 QCURVE",
"529 190 LINE",
"510 173 OFFCURVE",
"457 147 OFFCURVE",
"400 130 OFFCURVE",
"342 121 OFFCURVE",
"317 121 QCURVE SMOOTH"
);
},
{
closed = 1;
nodes = (
"212 275 LINE SMOOTH",
"212 297 OFFCURVE",
"221 344 OFFCURVE",
"242 382 OFFCURVE",
"277 407 OFFCURVE",
"303 407 QCURVE SMOOTH",
"338 407 OFFCURVE",
"387 361 OFFCURVE",
"396 319 QCURVE",
"212 272 LINE"
);
}
);
width = 610;
},
{
layerId = "A901A9D0-A2D8-4DE6-ABBE-EA4AB0B05523";
paths = (
{
closed = 1;
nodes = (
"229 59 OFFCURVE",
"146 124 OFFCURVE",
"129 175 QCURVE",
"504 266 LINE",
"498 313 OFFCURVE",
"463 396 OFFCURVE",
"404 458 OFFCURVE",
"323 495 OFFCURVE",
"271 495 QCURVE SMOOTH",
"218 495 OFFCURVE",
"133 455 OFFCURVE",
"73 386 OFFCURVE",
"40 293 OFFCURVE",
"40 239 QCURVE SMOOTH",
"40 184 OFFCURVE",
"78 92 OFFCURVE",
"145 26 OFFCURVE",
"236 -11 OFFCURVE",
"290 -11 QCURVE SMOOTH",
"317 -11 OFFCURVE",
"365 -3 OFFCURVE",
"408 12 OFFCURVE",
"445 32 OFFCURVE",
"460 44 QCURVE",
"460 132 LINE",
"446 118 OFFCURVE",
"412 92 OFFCURVE",
"371 71 OFFCURVE",
"323 59 OFFCURVE",
"295 59 QCURVE SMOOTH"
);
},
{
closed = 1;
nodes = (
"120 247 LINE",
"120 281 OFFCURVE",
"140 345 OFFCURVE",
"179 395 OFFCURVE",
"237 425 OFFCURVE",
"274 425 QCURVE SMOOTH",
"331 425 OFFCURVE",
"408 362 OFFCURVE",
"421 316 QCURVE",
"124 240 LINE"
);
}
);
width = 542;
}
);
unicode = 0065;
},
{
glyphname = f;
layers = (
{
layerId = "0E77000D-43E9-4C80-9DAA-F2DD3D3A742F";
paths = (
{
closed = 1;
nodes = (
"409 722 LINE",
"386 729 OFFCURVE",
"330 737 OFFCURVE",
"293 737 QCURVE SMOOTH",
"202 737 OFFCURVE",
"98 648 OFFCURVE",
"98 550 QCURVE SMOOTH",
"98 535 LINE",
"15 389 LINE",
"98 389 LINE",
"98 0 LINE",
"287 0 LINE",
"287 389 LINE",
"408 389 LINE",
"408 535 LINE",
"254 535 LINE",
"254 548 LINE SMOOTH",
"254 561 OFFCURVE",
"269 580 OFFCURVE",
"291 593 OFFCURVE",
"319 599 OFFCURVE",
"332 599 QCURVE SMOOTH",
"349 599 OFFCURVE",
"392 593 OFFCURVE",
"409 588 QCURVE"
);
}
);
width = 405;
},
{
layerId = "A901A9D0-A2D8-4DE6-ABBE-EA4AB0B05523";
paths = (
{
closed = 1;
nodes = (
"329 726 LINE",
"317 730 OFFCURVE",
"286 736 OFFCURVE",
"268 736 QCURVE SMOOTH",
"197 736 OFFCURVE",
"113 653 OFFCURVE",
"113 557 QCURVE SMOOTH",
"113 484 LINE",
"15 413 LINE",
"113 413 LINE",
"113 0 LINE",
"192 0 LINE",
"192 413 LINE",
"313 413 LINE",
"313 482 LINE",
"192 482 LINE",
"192 553 LINE SMOOTH",
"192 581 OFFCURVE",
"201 624 OFFCURVE",
"222 653 OFFCURVE",
"254 668 OFFCURVE",
"278 668 QCURVE SMOOTH",
"291 668 OFFCURVE",
"316 663 OFFCURVE",
"329 658 QCURVE"
);
}
);
width = 288;
}
);
unicode = 0066;
},
{
glyphname = g;
layers = (
{
layerId = "0E77000D-43E9-4C80-9DAA-F2DD3D3A742F";
paths = (
{
closed = 1;
nodes = (
"219 322 OFFCURVE",
"235 361 OFFCURVE",
"264 389 OFFCURVE",
"305 405 OFFCURVE",
"329 405 QCURVE SMOOTH",
"353 405 OFFCURVE",
"393 389 OFFCURVE",
"423 362 OFFCURVE",
"439 324 OFFCURVE",
"439 302 QCURVE SMOOTH",
"439 279 OFFCURVE",
"423 240 OFFCURVE",
"393 212 OFFCURVE",
"353 196 OFFCURVE",
"329 196 QCURVE SMOOTH",
"305 196 OFFCURVE",
"264 212 OFFCURVE",
"235 239 OFFCURVE",
"219 277 OFFCURVE",
"219 299 QCURVE SMOOTH"
);
},
{
closed = 1;
nodes = (
"250 -25 OFFCURVE",
"184 -11 OFFCURVE",
"122 11 OFFCURVE",
"68 37 OFFCURVE",
"47 50 QCURVE",
"47 -100 LINE",
"77 -115 OFFCURVE",
"131 -138 OFFCURVE",
"188 -154 OFFCURVE",
"249 -162 OFFCURVE",
"285 -162 QCURVE SMOOTH",
"359 -162 OFFCURVE",
"484 -126 OFFCURVE",
"575 -53 OFFCURVE",
"626 57 OFFCURVE",
"626 131 QCURVE SMOOTH",
"626 541 LINE",
"436 477 LINE",
"405 509 OFFCURVE",
"329 553 OFFCURVE",
"272 553 QCURVE SMOOTH",
"223 553 OFFCURVE",
"136 518 OFFCURVE",
"70 453 OFFCURVE",
"32 360 OFFCURVE",
"32 301 QCURVE SMOOTH",
"32 243 OFFCURVE",
"70 149 OFFCURVE",
"135 83 OFFCURVE",
"222 48 OFFCURVE",
"271 48 QCURVE SMOOTH",
"332 48 OFFCURVE",
"410 96 OFFCURVE",
"439 130 QCURVE",
"439 109 LINE SMOOTH",
"439 43 OFFCURVE",
"356 -25 OFFCURVE",
"283 -25 QCURVE SMOOTH"
);
}
);
width = 680;
},
{
layerId = "A901A9D0-A2D8-4DE6-ABBE-EA4AB0B05523";
paths = (
{
closed = 1;
nodes = (
"124 295 OFFCURVE",
"149 356 OFFCURVE",
"193 400 OFFCURVE",
"254 424 OFFCURVE",
"290 424 QCURVE SMOOTH",
"326 424 OFFCURVE",
"389 399 OFFCURVE",
"435 354 OFFCURVE",
"462 292 OFFCURVE",
"462 255 QCURVE SMOOTH",
"462 219 OFFCURVE",
"435 158 OFFCURVE",
"389 114 OFFCURVE",
"326 89 OFFCURVE",
"291 89 QCURVE SMOOTH",
"255 89 OFFCURVE",
"194 114 OFFCURVE",
"149 159 OFFCURVE",
"124 221 OFFCURVE",
"124 258 QCURVE SMOOTH"
);
},
{
closed = 1;
nodes = (
"247 -124 OFFCURVE",
"195 -116 OFFCURVE",
"147 -99 OFFCURVE",
"102 -74 OFFCURVE",
"81 -57 QCURVE",
"81 -147 LINE",
"99 -157 OFFCURVE",
"142 -174 OFFCURVE",
"191 -187 OFFCURVE",
"246 -194 OFFCURVE",
"275 -194 QCURVE SMOOTH",
"334 -194 OFFCURVE",
"433 -162 OFFCURVE",
"504 -99 OFFCURVE",
"543 -6 OFFCURVE",
"543 56 QCURVE SMOOTH",
"543 482 LINE",
"451 412 LINE",
"420 449 OFFCURVE",
"335 494 OFFCURVE",
"275 494 QCURVE SMOOTH",
"227 494 OFFCURVE",
"142 459 OFFCURVE",
"77 396 OFFCURVE",
"40 307 OFFCURVE",
"40 253 QCURVE SMOOTH",
"40 202 OFFCURVE",
"76 116 OFFCURVE",
"139 54 OFFCURVE",
"225 19 OFFCURVE",
"275 19 QCURVE SMOOTH",
"336 19 OFFCURVE",
"427 71 OFFCURVE",
"462 115 QCURVE",
"462 55 LINE SMOOTH",
"462 -41 OFFCURVE",
"366 -124 OFFCURVE",
"275 -124 QCURVE SMOOTH"
);
}
);
width = 616;
}
);
unicode = 0067;
},
{
glyphname = h;
layers = (
{
layerId = "0E77000D-43E9-4C80-9DAA-F2DD3D3A742F";
paths = (
{
closed = 1;
nodes = (
"352 553 OFFCURVE",
"274 501 OFFCURVE",
"248 467 QCURVE",
"248 730 LINE",
"58 730 LINE",
"58 0 LINE",
"248 0 LINE",
"248 293 LINE SMOOTH",
"248 315 OFFCURVE",
"261 349 OFFCURVE",
"283 372 OFFCURVE",
"312 384 OFFCURVE",
"328 384 QCURVE SMOOTH",
"360 384 OFFCURVE",
"404 338 OFFCURVE",
"404 293 QCURVE SMOOTH",
"404 0 LINE",
"594 0 LINE",
"594 354 LINE SMOOTH",
"594 400 OFFCURVE",
"567 474 OFFCURVE",
"518 525 OFFCURVE",
"451 553 OFFCURVE",
"410 553 QCURVE SMOOTH"
);
}
);
width = 651;
},
{
layerId = "A901A9D0-A2D8-4DE6-ABBE-EA4AB0B05523";
paths = (
{
closed = 1;
nodes = (
"263 493 OFFCURVE",
"176 448 OFFCURVE",
"150 416 QCURVE",
"150 732 LINE",
"76 732 LINE",
"76 0 LINE",
"158 0 LINE",
"158 280 LINE SMOOTH",
"158 313 OFFCURVE",
"181 363 OFFCURVE",
"220 396 OFFCURVE",
"270 412 OFFCURVE",
"297 412 QCURVE SMOOTH",
"353 412 OFFCURVE",
"408 346 OFFCURVE",
"408 280 QCURVE SMOOTH",
"408 0 LINE",
"490 0 LINE",
"490 303 LINE SMOOTH",
"490 353 OFFCURVE",
"466 425 OFFCURVE",
"421 471 OFFCURVE",
"358 493 OFFCURVE",
"318 493 QCURVE SMOOTH"
);
}
);
width = 563;
}
);
unicode = 0068;
},
{
glyphname = i;
layers = (
{
layerId = "0E77000D-43E9-4C80-9DAA-F2DD3D3A742F";
paths = (
{
closed = 1;
nodes = (
"260 541 LINE",
"70 541 LINE",
"70 0 LINE",
"260 0 LINE"
);
},
{
closed = 1;
nodes = (
"57 636 OFFCURVE",
"119 587 OFFCURVE",
"164 587 QCURVE SMOOTH",
"209 587 OFFCURVE",
"272 636 OFFCURVE",
"272 684 QCURVE SMOOTH",
"272 732 OFFCURVE",
"209 780 OFFCURVE",
"164 780 QCURVE SMOOTH",
"119 780 OFFCURVE",
"57 732 OFFCURVE",
"57 684 QCURVE SMOOTH"
);
}
);
width = 329;
},
{
layerId = "A901A9D0-A2D8-4DE6-ABBE-EA4AB0B05523";
paths = (
{
closed = 1;
nodes = (
"167 482 LINE",
"86 482 LINE",
"86 0 LINE",
"167 0 LINE"
);
},
{
closed = 1;
nodes = (
"65 614 OFFCURVE",
"101 578 OFFCURVE",
"125 578 QCURVE SMOOTH",
"151 578 OFFCURVE",
"186 614 OFFCURVE",
"186 637 QCURVE SMOOTH",
"186 664 OFFCURVE",
"151 698 OFFCURVE",
"125 698 QCURVE SMOOTH",
"101 698 OFFCURVE",
"65 664 OFFCURVE",
"65 637 QCURVE SMOOTH"
);
}
);
width = 251;
}
);
unicode = 0069;
},
{
glyphname = j;
layers = (
{
layerId = "0E77000D-43E9-4C80-9DAA-F2DD3D3A742F";
paths = (
{
closed = 1;
nodes = (
"-39 -156 LINE",
"-22 -159 OFFCURVE",
"16 -163 OFFCURVE",
"39 -163 QCURVE SMOOTH",
"85 -163 OFFCURVE",
"157 -143 OFFCURVE",
"206 -99 OFFCURVE",
"232 -27 OFFCURVE",
"232 24 QCURVE SMOOTH",
"232 541 LINE",
"42 541 LINE",
"42 32 LINE SMOOTH",
"42 -3 OFFCURVE",
"17 -31 OFFCURVE",
"-1 -31 QCURVE SMOOTH",
"-10 -31 OFFCURVE",
"-28 -27 OFFCURVE",
"-39 -23 QCURVE"
);
},
{
closed = 1;
nodes = (
"29 636 OFFCURVE",
"91 587 OFFCURVE",
"136 587 QCURVE SMOOTH",
"181 587 OFFCURVE",
"244 636 OFFCURVE",
"244 684 QCURVE SMOOTH",
"244 732 OFFCURVE",
"181 780 OFFCURVE",
"136 780 QCURVE SMOOTH",
"91 780 OFFCURVE",
"29 732 OFFCURVE",
"29 684 QCURVE SMOOTH"
);
}
);
width = 298;
},
{
layerId = "A901A9D0-A2D8-4DE6-ABBE-EA4AB0B05523";
paths = (
{
closed = 1;
nodes = (
"-47 -187 LINE",
"-36 -190 OFFCURVE",
"-12 -194 OFFCURVE",
"3 -194 QCURVE SMOOTH",
"41 -194 OFFCURVE",
"86 -169 OFFCURVE",
"110 -126 OFFCURVE",
"117 -69 OFFCURVE",
"117 -37 QCURVE SMOOTH",
"117 482 LINE",
"36 482 LINE",
"36 -62 LINE SMOOTH",
"36 -86 OFFCURVE",
"18 -125 OFFCURVE",
"-14 -125 QCURVE SMOOTH",
"-22 -125 OFFCURVE",
"-39 -122 OFFCURVE",
"-47 -119 QCURVE"
);
},
{
closed = 1;
nodes = (
"12 614 OFFCURVE",
"47 578 OFFCURVE",
"72 578 QCURVE SMOOTH",
"95 578 OFFCURVE",
"132 614 OFFCURVE",
"132 637 QCURVE SMOOTH",
"132 664 OFFCURVE",
"95 698 OFFCURVE",
"72 698 QCURVE SMOOTH",
"47 698 OFFCURVE",
"12 664 OFFCURVE",
"12 637 QCURVE SMOOTH"
);
}
);
width = 195;
}
);
unicode = 006A;
},
{
glyphname = k;
layers = (
{
layerId = "0E77000D-43E9-4C80-9DAA-F2DD3D3A742F";
paths = (
{
closed = 1;
nodes = (
"248 730 LINE",
"58 730 LINE",
"58 0 LINE",
"248 0 LINE",
"248 283 LINE",
"406 0 LINE",
"615 0 LINE",
"422 324 LINE",
"610 541 LINE",
"395 541 LINE",
"248 360 LINE"
);
}
);
width = 598;
},
{
layerId = "A901A9D0-A2D8-4DE6-ABBE-EA4AB0B05523";
paths = (
{
closed = 1;
nodes = (
"158 732 LINE",
"76 732 LINE",
"76 0 LINE",
"158 0 LINE",
"158 216 LINE",
"355 0 LINE",
"456 0 LINE",
"228 254 LINE",
"447 482 LINE",
"342 482 LINE",
"158 281 LINE"
);
}
);
width = 445;
}
);
unicode = 006B;
},
{
glyphname = l;
layers = (
{
layerId = "0E77000D-43E9-4C80-9DAA-F2DD3D3A742F";
paths = (
{
closed = 1;
nodes = (
"248 730 LINE",
"58 730 LINE",
"58 0 LINE",
"248 0 LINE"
);
}
);
width = 307;
},
{
layerId = "A901A9D0-A2D8-4DE6-ABBE-EA4AB0B05523";
paths = (
{
closed = 1;
nodes = (
"157 732 LINE",
"76 732 LINE",
"76 0 LINE",
"157 0 LINE"
);
}
);
width = 235;
}
);
unicode = 006C;
},
{
glyphname = m;
layers = (
{
layerId = "0E77000D-43E9-4C80-9DAA-F2DD3D3A742F";
paths = (
{
closed = 1;
nodes = (
"927 0 LINE",
"927 355 LINE SMOOTH",
"927 395 OFFCURVE",
"902 467 OFFCURVE",
"854 521 OFFCURVE",
"786 553 OFFCURVE",
"743 553 QCURVE SMOOTH",
"683 553 OFFCURVE",
"596 506 OFFCURVE",
"561 465 QCURVE",
"539 510 OFFCURVE",
"455 553 OFFCURVE",
"407 553 QCURVE SMOOTH",
"356 553 OFFCURVE",
"276 507 OFFCURVE",
"244 467 QCURVE",
"54 541 LINE",
"54 0 LINE",
"244 0 LINE",
"244 294 LINE SMOOTH",
"244 316 OFFCURVE",
"256 350 OFFCURVE",
"277 372 OFFCURVE",
"305 384 OFFCURVE",
"321 384 QCURVE SMOOTH",
"337 384 OFFCURVE",
"364 372 OFFCURVE",
"384 350 OFFCURVE",
"395 316 OFFCURVE",
"395 294 QCURVE SMOOTH",
"395 0 LINE",
"585 0 LINE",
"585 294 LINE SMOOTH",
"585 312 OFFCURVE",
"595 344 OFFCURVE",
"615 369 OFFCURVE",
"644 384 OFFCURVE",
"663 384 QCURVE SMOOTH",
"695 384 OFFCURVE",
"737 339 OFFCURVE",
"737 294 QCURVE SMOOTH",
"737 0 LINE"
);
}
);
width = 983;
},
{
layerId = "A901A9D0-A2D8-4DE6-ABBE-EA4AB0B05523";
paths = (
{
closed = 1;
nodes = (
"781 0 LINE",
"781 304 LINE SMOOTH",
"781 344 OFFCURVE",
"761 413 OFFCURVE",
"720 464 OFFCURVE",
"657 493 OFFCURVE",
"614 493 QCURVE SMOOTH",
"561 493 OFFCURVE",
"472 447 OFFCURVE",
"449 404 QCURVE",
"429 451 OFFCURVE",
"351 493 OFFCURVE",
"302 493 QCURVE SMOOTH",
"259 493 OFFCURVE",
"177 460 OFFCURVE",
"151 424 QCURVE",
"72 481 LINE",
"72 0 LINE",
"154 0 LINE",
"154 279 LINE SMOOTH",
"154 308 OFFCURVE",
"170 359 OFFCURVE",
"201 398 OFFCURVE",
"247 421 OFFCURVE",
"277 421 QCURVE SMOOTH",
"307 421 OFFCURVE",
"349 399 OFFCURVE",
"374 361 OFFCURVE",
"385 309 OFFCURVE",
"385 279 QCURVE SMOOTH",
"385 0 LINE",
"467 0 LINE",
"467 279 LINE SMOOTH",
"467 308 OFFCURVE",
"483 359 OFFCURVE",
"514 398 OFFCURVE",
"561 421 OFFCURVE",
"591 421 QCURVE SMOOTH",
"642 421 OFFCURVE",
"699 354 OFFCURVE",
"699 279 QCURVE SMOOTH",
"699 0 LINE"
);
}
);
width = 855;
}
);
unicode = 006D;
},
{
glyphname = n;
layers = (
{
layerId = "0E77000D-43E9-4C80-9DAA-F2DD3D3A742F";
paths = (
{
closed = 1;
nodes = (
"347 553 OFFCURVE",
"269 499 OFFCURVE",
"243 465 QCURVE",
"53 541 LINE",
"53 0 LINE",
"243 0 LINE",
"243 293 LINE SMOOTH",
"243 315 OFFCURVE",
"256 349 OFFCURVE",
"278 372 OFFCURVE",
"307 384 OFFCURVE",
"323 384 QCURVE SMOOTH",
"339 384 OFFCURVE",
"367 372 OFFCURVE",
"387 349 OFFCURVE",
"399 315 OFFCURVE",
"399 293 QCURVE SMOOTH",
"399 0 LINE",
"589 0 LINE",
"589 354 LINE SMOOTH",
"589 400 OFFCURVE",
"561 474 OFFCURVE",
"512 525 OFFCURVE",
"444 553 OFFCURVE",
"405 553 QCURVE SMOOTH"
);
}
);
width = 646;
},
{
layerId = "A901A9D0-A2D8-4DE6-ABBE-EA4AB0B05523";
paths = (
{
closed = 1;
nodes = (
"260 493 OFFCURVE",
"183 453 OFFCURVE",
"156 421 QCURVE",
"72 482 LINE",
"72 0 LINE",
"154 0 LINE",
"154 280 LINE SMOOTH",
"154 321 OFFCURVE",
"180 376 OFFCURVE",
"219 408 OFFCURVE",
"265 421 OFFCURVE",
"286 421 QCURVE SMOOTH",
"307 421 OFFCURVE",
"350 407 OFFCURVE",
"383 375 OFFCURVE",
"404 321 OFFCURVE",
"404 280 QCURVE SMOOTH",
"404 0 LINE",
"486 0 LINE",
"486 303 LINE SMOOTH",
"486 350 OFFCURVE",
"461 421 OFFCURVE",
"416 469 OFFCURVE",
"352 493 OFFCURVE",
"312 493 QCURVE SMOOTH"
);
}
);
width = 559;
}
);
unicode = 006E;
},
{
glyphname = o;
layers = (
{
layerId = "0E77000D-43E9-4C80-9DAA-F2DD3D3A742F";
paths = (
{
closed = 1;
nodes = (
"630 330 OFFCURVE",
"586 432 OFFCURVE",
"506 509 OFFCURVE",
"397 553 OFFCURVE",
"332 553 QCURVE SMOOTH",
"267 553 OFFCURVE",
"157 508 OFFCURVE",
"77 431 OFFCURVE",
"32 328 OFFCURVE",
"32 270 QCURVE SMOOTH",
"32 212 OFFCURVE",
"76 109 OFFCURVE",
"156 32 OFFCURVE",
"265 -13 OFFCURVE",
"330 -13 QCURVE SMOOTH",
"395 -13 OFFCURVE",
"505 33 OFFCURVE",
"585 111 OFFCURVE",
"630 214 OFFCURVE",
"630 272 QCURVE SMOOTH"
);
},
{
closed = 1;
nodes = (
"445 246 OFFCURVE",
"429 201 OFFCURVE",
"400 168 OFFCURVE",
"358 148 OFFCURVE",
"332 148 QCURVE SMOOTH",
"307 148 OFFCURVE",
"265 168 OFFCURVE",
"234 202 OFFCURVE",
"217 247 OFFCURVE",
"217 272 QCURVE SMOOTH",
"217 296 OFFCURVE",
"233 340 OFFCURVE",
"262 373 OFFCURVE",
"304 392 OFFCURVE",
"330 392 QCURVE SMOOTH",
"355 392 OFFCURVE",
"397 372 OFFCURVE",
"428 339 OFFCURVE",
"445 295 OFFCURVE",
"445 270 QCURVE SMOOTH"
);
}
);
width = 663;
},
{
layerId = "A901A9D0-A2D8-4DE6-ABBE-EA4AB0B05523";
paths = (
{
closed = 1;
nodes = (
"556 295 OFFCURVE",
"517 387 OFFCURVE",
"448 455 OFFCURVE",
"353 494 OFFCURVE",
"297 494 QCURVE SMOOTH",
"241 494 OFFCURVE",
"147 455 OFFCURVE",
"78 386 OFFCURVE",
"40 293 OFFCURVE",
"40 240 QCURVE SMOOTH",
"40 187 OFFCURVE",
"78 96 OFFCURVE",
"147 28 OFFCURVE",
"241 -10 OFFCURVE",
"296 -10 QCURVE SMOOTH",
"352 -10 OFFCURVE",
"448 29 OFFCURVE",
"517 98 OFFCURVE",
"556 190 OFFCURVE",
"556 242 QCURVE SMOOTH"
);
},
{
closed = 1;
nodes = (
"473 204 OFFCURVE",
"447 138 OFFCURVE",
"400 88 OFFCURVE",
"335 59 OFFCURVE",
"297 59 QCURVE SMOOTH",
"260 59 OFFCURVE",
"196 87 OFFCURVE",
"150 136 OFFCURVE",
"123 203 OFFCURVE",
"123 242 QCURVE SMOOTH",
"123 280 OFFCURVE",
"148 347 OFFCURVE",
"193 396 OFFCURVE",
"257 425 OFFCURVE",
"296 425 QCURVE SMOOTH",
"335 425 OFFCURVE",
"400 396 OFFCURVE",
"447 346 OFFCURVE",
"473 279 OFFCURVE",
"473 241 QCURVE SMOOTH"
);
}
);
width = 596;
}
);
unicode = 006F;
},
{
glyphname = p;
layers = (
{
layerId = "0E77000D-43E9-4C80-9DAA-F2DD3D3A742F";
paths = (
{
closed = 1;
nodes = (
"243 66 LINE",
"269 35 OFFCURVE",
"346 -12 OFFCURVE",
"408 -12 QCURVE SMOOTH",
"456 -12 OFFCURVE",
"543 27 OFFCURVE",
"608 100 OFFCURVE",
"647 205 OFFCURVE",
"647 271 QCURVE SMOOTH",
"647 337 OFFCURVE",
"608 441 OFFCURVE",
"542 514 OFFCURVE",
"455 553 OFFCURVE",
"407 553 QCURVE SMOOTH",
"346 553 OFFCURVE",
"271 503 OFFCURVE",
"243 469 QCURVE",
"53 541 LINE",
"53 -160 LINE",
"243 -160 LINE"
);
},
{
closed = 1;
nodes = (
"460 244 OFFCURVE",
"443 198 OFFCURVE",
"413 165 OFFCURVE",
"372 147 OFFCURVE",
"349 147 QCURVE SMOOTH",
"326 147 OFFCURVE",
"286 165 OFFCURVE",
"257 198 OFFCURVE",
"240 243 OFFCURVE",
"240 270 QCURVE SMOOTH",
"240 297 OFFCURVE",
"257 343 OFFCURVE",
"286 376 OFFCURVE",
"326 394 OFFCURVE",
"349 394 QCURVE SMOOTH",
"372 394 OFFCURVE",
"413 376 OFFCURVE",
"443 343 OFFCURVE",
"460 299 OFFCURVE",
"460 272 QCURVE SMOOTH"
);
}
);
width = 680;
},
{
layerId = "A901A9D0-A2D8-4DE6-ABBE-EA4AB0B05523";
paths = (
{
closed = 1;
nodes = (
"154 84 LINE",
"187 39 OFFCURVE",
"279 -10 OFFCURVE",
"339 -10 QCURVE SMOOTH",
"386 -10 OFFCURVE",
"472 26 OFFCURVE",
"538 92 OFFCURVE",
"577 185 OFFCURVE",
"577 242 QCURVE SMOOTH",
"577 299 OFFCURVE",
"539 392 OFFCURVE",
"474 458 OFFCURVE",
"387 494 OFFCURVE",
"339 494 QCURVE SMOOTH",
"279 494 OFFCURVE",
"198 445 OFFCURVE",
"164 406 QCURVE",
"72 482 LINE",
"72 -188 LINE",
"154 -188 LINE"
);
},
{
closed = 1;
nodes = (
"495 200 OFFCURVE",
"469 133 OFFCURVE",
"423 85 OFFCURVE",
"361 59 OFFCURVE",
"326 59 QCURVE SMOOTH",
"291 59 OFFCURVE",
"227 87 OFFCURVE",
"179 136 OFFCURVE",
"150 202 OFFCURVE",
"150 241 QCURVE SMOOTH",
"150 280 OFFCURVE",
"178 347 OFFCURVE",
"225 395 OFFCURVE",
"288 422 OFFCURVE",
"323 422 QCURVE SMOOTH",
"360 422 OFFCURVE",
"423 396 OFFCURVE",
"469 348 OFFCURVE",
"495 282 OFFCURVE",
"495 242 QCURVE SMOOTH"
);
}
);
width = 617;
}
);
unicode = 0070;
},
{
glyphname = q;
layers = (
{
layerId = "0E77000D-43E9-4C80-9DAA-F2DD3D3A742F";
paths = (
{
closed = 1;
nodes = (
"626 -160 LINE",
"626 541 LINE",
"436 475 LINE",
"409 506 OFFCURVE",
"332 553 OFFCURVE",
"271 553 QCURVE SMOOTH",
"223 553 OFFCURVE",
"136 514 OFFCURVE",
"71 441 OFFCURVE",
"32 336 OFFCURVE",
"32 270 QCURVE SMOOTH",
"32 205 OFFCURVE",
"71 101 OFFCURVE",
"137 27 OFFCURVE",
"224 -12 OFFCURVE",
"272 -12 QCURVE SMOOTH",
"332 -12 OFFCURVE",
"408 38 OFFCURVE",
"436 72 QCURVE",
"436 -160 LINE"
);
},
{
closed = 1;
nodes = (
"219 299 OFFCURVE",
"237 344 OFFCURVE",
"267 376 OFFCURVE",
"307 394 OFFCURVE",
"329 394 QCURVE SMOOTH",
"352 394 OFFCURVE",
"392 376 OFFCURVE",
"422 343 OFFCURVE",
"439 299 OFFCURVE",
"439 272 QCURVE SMOOTH",
"439 245 OFFCURVE",
"422 199 OFFCURVE",
"392 166 OFFCURVE",
"352 147 OFFCURVE",
"329 147 QCURVE SMOOTH",
"307 147 OFFCURVE",
"267 166 OFFCURVE",
"237 199 OFFCURVE",
"219 245 OFFCURVE",
"219 272 QCURVE SMOOTH"
);
}
);
width = 681;
},
{
layerId = "A901A9D0-A2D8-4DE6-ABBE-EA4AB0B05523";
paths = (
{
closed = 1;
nodes = (
"543 -188 LINE",
"543 482 LINE",
"451 410 LINE",
"418 447 OFFCURVE",
"339 494 OFFCURVE",
"279 494 QCURVE SMOOTH",
"230 494 OFFCURVE",
"142 458 OFFCURVE",
"78 392 OFFCURVE",
"40 298 OFFCURVE",
"40 241 QCURVE SMOOTH",
"40 186 OFFCURVE",
"77 93 OFFCURVE",
"142 26 OFFCURVE",
"229 -11 OFFCURVE",
"279 -11 QCURVE SMOOTH",
"338 -11 OFFCURVE",
"427 42 OFFCURVE",
"461 87 QCURVE",
"461 -188 LINE"
);
},
{
closed = 1;
nodes = (
"123 284 OFFCURVE",
"149 350 OFFCURVE",
"194 398 OFFCURVE",
"256 424 OFFCURVE",
"293 424 QCURVE SMOOTH",
"328 424 OFFCURVE",
"391 397 OFFCURVE",
"438 348 OFFCURVE",
"466 281 OFFCURVE",
"466 242 QCURVE SMOOTH",
"466 203 OFFCURVE",
"438 136 OFFCURVE",
"390 87 OFFCURVE",
"327 59 OFFCURVE",
"292 59 QCURVE SMOOTH",
"256 59 OFFCURVE",
"194 87 OFFCURVE",
"149 136 OFFCURVE",
"123 204 OFFCURVE",
"123 243 QCURVE SMOOTH"
);
}
);
width = 616;
}
);
unicode = 0071;
},
{
glyphname = r;
layers = (
{
layerId = "0E77000D-43E9-4C80-9DAA-F2DD3D3A742F";
paths = (
{
closed = 1;
nodes = (
"414 550 LINE",
"412 550 OFFCURVE",
"407 550 OFFCURVE",
"405 550 QCURVE",
"341 550 OFFCURVE",
"266 486 OFFCURVE",
"243 432 QCURVE",
"53 541 LINE",
"53 0 LINE",
"243 0 LINE",
"243 168 LINE SMOOTH",
"243 215 OFFCURVE",
"264 283 OFFCURVE",
"303 328 OFFCURVE",
"361 350 OFFCURVE",
"398 350 QCURVE SMOOTH",
"403 350 OFFCURVE",
"412 350 OFFCURVE",
"414 350 QCURVE"
);
}
);
width = 435;
},
{
layerId = "A901A9D0-A2D8-4DE6-ABBE-EA4AB0B05523";
paths = (
{
closed = 1;
nodes = (
"346 486 LINE",
"336 488 OFFCURVE",
"316 491 OFFCURVE",
"304 491 QCURVE SMOOTH",
"265 491 OFFCURVE",
"184 459 OFFCURVE",
"156 428 QCURVE",
"72 482 LINE",
"72 0 LINE",
"154 0 LINE",
"154 271 LINE SMOOTH",
"154 311 OFFCURVE",
"182 367 OFFCURVE",
"226 403 OFFCURVE",
"278 419 OFFCURVE",
"302 419 QCURVE SMOOTH",
"315 419 OFFCURVE",
"336 415 OFFCURVE",
"346 410 QCURVE"
);
}
);
width = 362;
}
);
unicode = 0072;
},
{
glyphname = s;
layers = (
{
layerId = "0E77000D-43E9-4C80-9DAA-F2DD3D3A742F";
paths = (
{
closed = 1;
nodes = (
"227 121 OFFCURVE",
"176 132 OFFCURVE",
"122 151 OFFCURVE",
"68 178 OFFCURVE",
"45 193 QCURVE",
"45 38 LINE",
"101 15 OFFCURVE",
"204 -12 OFFCURVE",
"260 -12 QCURVE SMOOTH",
"310 -12 OFFCURVE",
"391 12 OFFCURVE",
"449 57 OFFCURVE",
"481 122 OFFCURVE",
"481 164 QCURVE SMOOTH",
"481 211 OFFCURVE",
"440 271 OFFCURVE",
"378 310 OFFCURVE",
"305 333 OFFCURVE",
"243 352 OFFCURVE",
"202 374 OFFCURVE",
"202 391 QCURVE SMOOTH",
"202 404 OFFCURVE",
"224 419 OFFCURVE",
"246 419 QCURVE SMOOTH",
"263 419 OFFCURVE",
"311 409 OFFCURVE",
"363 393 OFFCURVE",
"414 372 OFFCURVE",
"435 360 QCURVE",
"435 513 LINE",
"412 522 OFFCURVE",
"369 536 OFFCURVE",
"326 546 OFFCURVE",
"277 552 OFFCURVE",
"248 552 QCURVE SMOOTH",
"201 552 OFFCURVE",
"121 528 OFFCURVE",
"63 482 OFFCURVE",
"30 416 OFFCURVE",
"30 373 QCURVE SMOOTH",
"30 325 OFFCURVE",
"71 263 OFFCURVE",
"133 224 OFFCURVE",
"206 202 OFFCURVE",
"268 185 OFFCURVE",
"309 167 OFFCURVE",
"309 152 QCURVE SMOOTH",
"309 136 OFFCURVE",
"271 121 OFFCURVE",
"248 121 QCURVE SMOOTH"
);
}
);
width = 510;
},
{
layerId = "A901A9D0-A2D8-4DE6-ABBE-EA4AB0B05523";
paths = (
{
closed = 1;
nodes = (
"179 58 OFFCURVE",
"135 71 OFFCURVE",
"94 92 OFFCURVE",
"57 119 OFFCURVE",
"41 134 QCURVE",
"41 46 LINE",
"70 26 OFFCURVE",
"148 -10 OFFCURVE",
"205 -10 QCURVE SMOOTH",
"244 -10 OFFCURVE",
"305 13 OFFCURVE",
"348 52 OFFCURVE",
"371 104 OFFCURVE",
"371 133 QCURVE SMOOTH",
"371 171 OFFCURVE",
"336 225 OFFCURVE",
"283 264 OFFCURVE",
"221 293 OFFCURVE",
"168 320 OFFCURVE",
"133 351 OFFCURVE",
"133 373 QCURVE SMOOTH",
"133 393 OFFCURVE",
"170 425 OFFCURVE",
"206 425 QCURVE SMOOTH",
"224 425 OFFCURVE",
"259 415 OFFCURVE",
"291 399 OFFCURVE",
"321 376 OFFCURVE",
"336 363 QCURVE",
"336 453 LINE",
"322 464 OFFCURVE",
"290 479 OFFCURVE",
"256 488 OFFCURVE",
"221 493 OFFCURVE",
"204 493 QCURVE SMOOTH",
"169 493 OFFCURVE",
"113 476 OFFCURVE",
"74 446 OFFCURVE",
"54 403 OFFCURVE",
"54 376 QCURVE SMOOTH",
"54 339 OFFCURVE",
"89 290 OFFCURVE",
"142 255 OFFCURVE",
"204 228 OFFCURVE",
"257 199 OFFCURVE",
"292 160 OFFCURVE",
"292 131 QCURVE SMOOTH",
"292 93 OFFCURVE",
"239 58 OFFCURVE",
"203 58 QCURVE SMOOTH"
);
}
);
width = 413;
}
);
unicode = 0073;
},
{
glyphname = t;
layers = (
{
layerId = "0E77000D-43E9-4C80-9DAA-F2DD3D3A742F";
paths = (
{
closed = 1;
nodes = (
"121 168 LINE SMOOTH",
"121 71 OFFCURVE",
"221 -11 OFFCURVE",
"303 -11 QCURVE SMOOTH",
"343 -11 OFFCURVE",
"409 6 OFFCURVE",
"435 20 QCURVE",
"435 169 LINE",
"416 161 OFFCURVE",
"382 151 OFFCURVE",
"363 151 QCURVE SMOOTH",
"337 151 OFFCURVE",
"311 176 OFFCURVE",
"311 205 QCURVE SMOOTH",
"311 388 LINE",
"437 388 LINE",
"437 541 LINE",
"311 541 LINE",
"311 708 LINE",
"17 388 LINE",
"121 388 LINE"
);
}
);
width = 466;
},
{
layerId = "A901A9D0-A2D8-4DE6-ABBE-EA4AB0B05523";
paths = (
{
closed = 1;
nodes = (
"117 120 LINE SMOOTH",
"117 59 OFFCURVE",
"179 -11 OFFCURVE",
"231 -11 QCURVE SMOOTH",
"245 -11 OFFCURVE",
"269 -6 OFFCURVE",
"280 -1 QCURVE",
"280 68 LINE",
"269 63 OFFCURVE",
"249 59 OFFCURVE",
"241 59 QCURVE SMOOTH",
"217 59 OFFCURVE",
"197 92 OFFCURVE",
"197 112 QCURVE SMOOTH",
"197 412 LINE",
"325 412 LINE",
"325 482 LINE",
"197 482 LINE",
"197 649 LINE",
"19 412 LINE",
"117 412 LINE"
);
}
);
width = 353;
}
);
unicode = 0074;
},
{
glyphname = u;
layers = (
{
layerId = "0E77000D-43E9-4C80-9DAA-F2DD3D3A742F";
paths = (
{
closed = 1;
nodes = (
"299 -12 OFFCURVE",
"377 40 OFFCURVE",
"403 74 QCURVE",
"593 0 LINE",
"593 541 LINE",
"403 541 LINE",
"403 248 LINE SMOOTH",
"403 226 OFFCURVE",
"391 192 OFFCURVE",
"370 169 OFFCURVE",
"341 157 OFFCURVE",
"324 157 QCURVE SMOOTH",
"307 157 OFFCURVE",
"278 169 OFFCURVE",
"258 192 OFFCURVE",
"247 226 OFFCURVE",
"247 248 QCURVE SMOOTH",
"247 541 LINE",
"57 541 LINE",
"57 187 LINE SMOOTH",
"57 94 OFFCURVE",
"154 -12 OFFCURVE",
"241 -12 QCURVE SMOOTH"
);
}
);
width = 648;
},
{
layerId = "A901A9D0-A2D8-4DE6-ABBE-EA4AB0B05523";
paths = (
{
closed = 1;
nodes = (
"300 -10 OFFCURVE",
"376 30 OFFCURVE",
"403 62 QCURVE",
"487 1 LINE",
"487 483 LINE",
"405 483 LINE",
"405 203 LINE SMOOTH",
"405 162 OFFCURVE",
"380 107 OFFCURVE",
"341 75 OFFCURVE",
"294 62 OFFCURVE",
"273 62 QCURVE SMOOTH",
"252 62 OFFCURVE",
"209 76 OFFCURVE",
"176 108 OFFCURVE",
"155 163 OFFCURVE",
"155 203 QCURVE SMOOTH",
"155 483 LINE",
"73 483 LINE",
"73 180 LINE SMOOTH",
"73 85 OFFCURVE",
"167 -10 OFFCURVE",
"247 -10 QCURVE SMOOTH"
);
}
);
width = 559;
}
);
unicode = 0075;
},
{
glyphname = v;
layers = (
{
layerId = "0E77000D-43E9-4C80-9DAA-F2DD3D3A742F";
paths = (
{
closed = 1;
nodes = (
"613 541 LINE",
"416 541 LINE",
"312 225 LINE",
"208 541 LINE",
"8 541 LINE",
"224 -4 LINE",
"397 -4 LINE"
);
}
);
width = 621;
},
{
layerId = "A901A9D0-A2D8-4DE6-ABBE-EA4AB0B05523";
paths = (
{
closed = 1;
nodes = (
"499 481 LINE",
"413 481 LINE",
"258 91 LINE",
"104 481 LINE",
"14 481 LINE",
"216 0 LINE",
"297 0 LINE"
);
}
);
width = 510;
}
);
unicode = 0076;
},
{
glyphname = w;
layers = (
{
layerId = "0E77000D-43E9-4C80-9DAA-F2DD3D3A742F";
paths = (
{
closed = 1;
nodes = (
"8 541 LINE",
"173 -4 LINE",
"336 -4 LINE",
"426 277 LINE",
"514 -4 LINE",
"678 -4 LINE",
"845 541 LINE",
"662 541 LINE",
"589 267 LINE",
"505 543 LINE",
"348 543 LINE",
"265 269 LINE",
"194 541 LINE"
);
}
);
width = 854;
},
{
layerId = "A901A9D0-A2D8-4DE6-ABBE-EA4AB0B05523";
paths = (
{
closed = 1;
nodes = (
"19 482 LINE",
"184 0 LINE",
"262 0 LINE",
"383 395 LINE",
"506 0 LINE",
"587 0 LINE",
"751 482 LINE",
"665 482 LINE",
"545 100 LINE",
"428 483 LINE",
"345 483 LINE",
"227 99 LINE",
"104 482 LINE"
);
}
);
width = 767;
}
);
unicode = 0077;
},
{
glyphname = x;
layers = (
{
layerId = "0E77000D-43E9-4C80-9DAA-F2DD3D3A742F";
paths = (
{
closed = 1;
nodes = (
"1 0 LINE",
"201 0 LINE",
"286 139 LINE",
"370 0 LINE",
"574 0 LINE",
"392 274 LINE",
"570 541 LINE",
"369 541 LINE",
"289 408 LINE",
"209 541 LINE",
"4 541 LINE",
"183 273 LINE"
);
}
);
width = 575;
},
{
layerId = "A901A9D0-A2D8-4DE6-ABBE-EA4AB0B05523";
paths = (
{
closed = 1;
nodes = (
"8 0 LINE",
"100 0 LINE",
"246 192 LINE",
"393 0 LINE",
"486 0 LINE",
"294 251 LINE",
"472 481 LINE",
"382 481 LINE",
"248 307 LINE",
"115 481 LINE",
"21 481 LINE",
"202 249 LINE"
);
}
);
width = 499;
}
);
unicode = 0078;
},
{
glyphname = y;
layers = (
{
layerId = "0E77000D-43E9-4C80-9DAA-F2DD3D3A742F";
paths = (
{
closed = 1;
nodes = (
"227 -6 LINE",
"178 -160 LINE",
"339 -160 LINE",
"603 541 LINE",
"408 541 LINE",
"306 195 LINE",
"198 541 LINE",
"-1 541 LINE"
);
}
);
width = 610;
},
{
layerId = "A901A9D0-A2D8-4DE6-ABBE-EA4AB0B05523";
paths = (
{
closed = 1;
nodes = (
"214 0 LINE",
"139 -188 LINE",
"217 -188 LINE",
"485 481 LINE",
"399 481 LINE",
"250 98 LINE",
"85 481 LINE",
"-4 481 LINE"
);
}
);
width = 505;
}
);
unicode = 0079;
},
{
glyphname = z;
layers = (
{
layerId = "0E77000D-43E9-4C80-9DAA-F2DD3D3A742F";
paths = (
{
closed = 1;
nodes = (
"527 416 LINE",
"527 541 LINE",
"34 541 LINE",
"34 390 LINE",
"275 390 LINE",
"25 125 LINE",
"25 0 LINE",
"527 0 LINE",
"527 151 LINE",
"276 151 LINE"
);
}
);
width = 551;
},
{
layerId = "A901A9D0-A2D8-4DE6-ABBE-EA4AB0B05523";
paths = (
{
closed = 1;
nodes = (
"486 414 LINE",
"486 482 LINE",
"40 482 LINE",
"40 414 LINE",
"388 414 LINE",
"19 69 LINE",
"19 0 LINE",
"480 0 LINE",
"480 70 LINE",
"117 70 LINE"
);
}
);
width = 503;
}
);
unicode = 007A;
},
{
glyphname = braceleft;
layers = (
{
layerId = "0E77000D-43E9-4C80-9DAA-F2DD3D3A742F";
paths = (
{
closed = 1;
nodes = (
"32 224 LINE",
"59 224 OFFCURVE",
"109 219 OFFCURVE",
"147 199 OFFCURVE",
"168 160 OFFCURVE",
"166 126 QCURVE SMOOTH",
"163 48 OFFCURVE",
"186 -47 OFFCURVE",
"247 -103 OFFCURVE",
"350 -131 OFFCURVE",
"427 -141 QCURVE",
"427 -24 LINE",
"384 -17 OFFCURVE",
"344 16 OFFCURVE",
"330 62 OFFCURVE",
"334 120 OFFCURVE",
"335 153 QCURVE SMOOTH",
"336 181 OFFCURVE",
"320 225 OFFCURVE",
"290 258 OFFCURVE",
"248 280 OFFCURVE",
"223 287 QCURVE",
"273 301 OFFCURVE",
"319 342 OFFCURVE",
"335 396 OFFCURVE",
"332 461 OFFCURVE",
"332 500 QCURVE SMOOTH",
"332 525 OFFCURVE",
"345 559 OFFCURVE",
"369 581 OFFCURVE",
"404 594 OFFCURVE",
"427 598 QCURVE",
"427 715 LINE",
"385 709 OFFCURVE",
"292 691 OFFCURVE",
"214 653 OFFCURVE",
"163 587 OFFCURVE",
"163 533 QCURVE SMOOTH",
"163 489 OFFCURVE",
"168 421 OFFCURVE",
"150 374 OFFCURVE",
"94 350 OFFCURVE",
"32 350 QCURVE"
);
}
);
width = 465;
},
{
layerId = "A901A9D0-A2D8-4DE6-ABBE-EA4AB0B05523";
paths = (
{
closed = 1;
nodes = (
"29 252 LINE",
"80 252 OFFCURVE",
"126 216 OFFCURVE",
"141 158 OFFCURVE",
"136 86 OFFCURVE",
"136 51 QCURVE SMOOTH",
"136 -8 OFFCURVE",
"154 -85 OFFCURVE",
"200 -132 OFFCURVE",
"278 -152 OFFCURVE",
"338 -155 QCURVE",
"350 -97 LINE",
"321 -91 OFFCURVE",
"273 -78 OFFCURVE",
"239 -52 OFFCURVE",
"220 -10 OFFCURVE",
"220 23 QCURVE SMOOTH",
"220 66 OFFCURVE",
"224 144 OFFCURVE",
"211 212 OFFCURVE",
"171 268 OFFCURVE",
"126 289 QCURVE",
"171 310 OFFCURVE",
"211 366 OFFCURVE",
"224 434 OFFCURVE",
"220 512 OFFCURVE",
"220 555 QCURVE SMOOTH",
"220 588 OFFCURVE",
"239 630 OFFCURVE",
"273 656 OFFCURVE",
"321 669 OFFCURVE",
"350 675 QCURVE",
"338 733 LINE",
"251 729 OFFCURVE",
"167 686 OFFCURVE",
"136 609 OFFCURVE",
"138 500 OFFCURVE",
"138 431 QCURVE SMOOTH",
"138 403 OFFCURVE",
"124 363 OFFCURVE",
"97 337 OFFCURVE",
"56 325 OFFCURVE",
"29 325 QCURVE"
);
}
);
width = 376;
}
);
unicode = 007B;
},
{
glyphname = bar;
layers = (
{
layerId = "0E77000D-43E9-4C80-9DAA-F2DD3D3A742F";
paths = (
{
closed = 1;
nodes = (
"93 798 LINE",
"93 -128 LINE",
"238 -128 LINE",
"238 798 LINE"
);
}
);
width = 332;
},
{
layerId = "A901A9D0-A2D8-4DE6-ABBE-EA4AB0B05523";
paths = (
{
closed = 1;
nodes = (
"90 767 LINE",
"90 -168 LINE",
"163 -168 LINE",
"163 767 LINE"
);
}
);
width = 253;
}
);
unicode = 007C;
},
{
glyphname = braceright;
layers = (
{
layerId = "0E77000D-43E9-4C80-9DAA-F2DD3D3A742F";
paths = (
{
closed = 1;
nodes = (
"432 350 LINE",
"371 350 OFFCURVE",
"315 375 OFFCURVE",
"296 421 OFFCURVE",
"301 490 OFFCURVE",
"301 533 QCURVE SMOOTH",
"301 587 OFFCURVE",
"250 653 OFFCURVE",
"172 691 OFFCURVE",
"79 709 OFFCURVE",
"37 715 QCURVE",
"37 598 LINE",
"81 591 OFFCURVE",
"121 559 OFFCURVE",
"134 512 OFFCURVE",
"130 454 OFFCURVE",
"129 421 QCURVE SMOOTH",
"128 393 OFFCURVE",
"143 349 OFFCURVE",
"173 316 OFFCURVE",
"216 294 OFFCURVE",
"241 287 QCURVE",
"216 280 OFFCURVE",
"174 257 OFFCURVE",
"144 224 OFFCURVE",
"128 181 OFFCURVE",
"129 153 QCURVE SMOOTH",
"131 120 OFFCURVE",
"134 62 OFFCURVE",
"120 16 OFFCURVE",
"80 -17 OFFCURVE",
"37 -24 QCURVE",
"37 -141 LINE",
"83 -135 OFFCURVE",
"177 -116 OFFCURVE",
"253 -75 OFFCURVE",
"301 -5 OFFCURVE",
"301 52 QCURVE SMOOTH",
"301 95 OFFCURVE",
"298 159 OFFCURVE",
"317 202 OFFCURVE",
"373 224 OFFCURVE",
"432 224 QCURVE"
);
}
);
width = 465;
},
{
layerId = "A901A9D0-A2D8-4DE6-ABBE-EA4AB0B05523";
paths = (
{
closed = 1;
nodes = (
"347 325 LINE",
"297 324 OFFCURVE",
"251 361 OFFCURVE",
"236 420 OFFCURVE",
"240 493 OFFCURVE",
"240 527 QCURVE SMOOTH",
"240 586 OFFCURVE",
"222 663 OFFCURVE",
"176 710 OFFCURVE",
"98 730 OFFCURVE",
"38 733 QCURVE",
"26 675 LINE",
"55 669 OFFCURVE",
"103 656 OFFCURVE",
"137 630 OFFCURVE",
"156 588 OFFCURVE",
"156 555 QCURVE SMOOTH",
"156 512 OFFCURVE",
"152 434 OFFCURVE",
"165 366 OFFCURVE",
"205 310 OFFCURVE",
"250 289 QCURVE",
"205 268 OFFCURVE",
"165 212 OFFCURVE",
"152 144 OFFCURVE",
"156 66 OFFCURVE",
"156 23 QCURVE SMOOTH",
"156 -10 OFFCURVE",
"137 -52 OFFCURVE",
"103 -78 OFFCURVE",
"55 -91 OFFCURVE",
"26 -97 QCURVE",
"38 -155 LINE",
"125 -151 OFFCURVE",
"209 -110 OFFCURVE",
"241 -35 OFFCURVE",
"238 75 OFFCURVE",
"238 147 QCURVE SMOOTH",
"238 175 OFFCURVE",
"252 215 OFFCURVE",
"279 240 OFFCURVE",
"320 252 OFFCURVE",
"347 252 QCURVE"
);
}
);
width = 376;
}
);
unicode = 007D;
},
{
glyphname = asciitilde;
layers = (
{
layerId = "0E77000D-43E9-4C80-9DAA-F2DD3D3A742F";
paths = (
{
closed = 1;
nodes = (
"369 401 LINE",
"359 378 OFFCURVE",
"338 355 OFFCURVE",
"318 355 QCURVE SMOOTH",
"302 355 OFFCURVE",
"268 367 OFFCURVE",
"229 382 OFFCURVE",
"186 394 OFFCURVE",
"162 394 QCURVE SMOOTH",
"116 394 OFFCURVE",
"59 335 OFFCURVE",
"42 260 QCURVE",
"130 220 LINE",
"140 243 OFFCURVE",
"160 266 OFFCURVE",
"180 266 QCURVE SMOOTH",
"196 266 OFFCURVE",
"232 254 OFFCURVE",
"272 239 OFFCURVE",
"315 227 OFFCURVE",
"337 227 QCURVE SMOOTH",
"377 227 OFFCURVE",
"440 283 OFFCURVE",
"456 357 QCURVE"
);
}
);
width = 491;
},
{
layerId = "A901A9D0-A2D8-4DE6-ABBE-EA4AB0B05523";
paths = (
{
closed = 1;
nodes = (
"413 369 LINE",
"400 341 OFFCURVE",
"360 309 OFFCURVE",
"336 309 QCURVE SMOOTH",
"317 309 OFFCURVE",
"280 326 OFFCURVE",
"241 347 OFFCURVE",
"197 364 OFFCURVE",
"171 364 QCURVE SMOOTH",
"126 364 OFFCURVE",
"69 307 OFFCURVE",
"47 253 QCURVE",
"96 229 LINE",
"110 258 OFFCURVE",
"146 290 OFFCURVE",
"172 290 QCURVE SMOOTH",
"193 290 OFFCURVE",
"235 273 OFFCURVE",
"278 252 OFFCURVE",
"322 235 OFFCURVE",
"345 235 QCURVE SMOOTH",
"386 235 OFFCURVE",
"443 296 OFFCURVE",
"463 347 QCURVE"
);
}
);
width = 508;
}
);
unicode = 007E;
},
{
glyphname = Euro;
layers = (
{
layerId = "0E77000D-43E9-4C80-9DAA-F2DD3D3A742F";
paths = (
{
closed = 1;
nodes = (
"192 401 LINE",
"195 448 OFFCURVE",
"223 506 OFFCURVE",
"262 537 OFFCURVE",
"304 548 OFFCURVE",
"322 548 QCURVE SMOOTH",
"350 548 OFFCURVE",
"405 525 OFFCURVE",
"427 497 QCURVE",
"440 507 OFFCURVE",
"475 535 OFFCURVE",
"513 564 OFFCURVE",
"549 591 OFFCURVE",
"561 601 QCURVE",
"521 652 OFFCURVE",
"403 714 OFFCURVE",
"321 714 QCURVE SMOOTH",
"240 714 OFFCURVE",
"121 652 OFFCURVE",
"42 550 OFFCURVE",
"3 418 OFFCURVE",
"3 348 QCURVE SMOOTH",
"3 253 OFFCURVE",
"55 116 OFFCURVE",
"143 28 OFFCURVE",
"258 -14 OFFCURVE",
"320 -14 QCURVE SMOOTH",
"403 -14 OFFCURVE",
"521 49 OFFCURVE",
"564 105 QCURVE",
"433 205 LINE",
"408 175 OFFCURVE",
"356 152 OFFCURVE",
"331 152 QCURVE SMOOTH",
"301 152 OFFCURVE",
"256 179 OFFCURVE",
"224 221 OFFCURVE",
"204 274 OFFCURVE",
"199 300 QCURVE",
"369 300 LINE",
"369 401 LINE"
);
}
);
width = 599;
},
{
layerId = "A901A9D0-A2D8-4DE6-ABBE-EA4AB0B05523";
paths = (
{
closed = 1;
nodes = (
"92 356 LINE",
"92 399 OFFCURVE",
"115 501 OFFCURVE",
"168 589 OFFCURVE",
"253 648 OFFCURVE",
"315 648 QCURVE SMOOTH",
"365 648 OFFCURVE",
"431 607 OFFCURVE",
"460 575 QCURVE",
"472 585 OFFCURVE",
"484 596 OFFCURVE",
"494 606 OFFCURVE",
"505 617 OFFCURVE",
"517 627 QCURVE",
"481 672 OFFCURVE",
"389 723 OFFCURVE",
"317 723 QCURVE SMOOTH",
"235 723 OFFCURVE",
"119 658 OFFCURVE",
"45 553 OFFCURVE",
"10 418 OFFCURVE",
"10 347 QCURVE SMOOTH",
"10 284 OFFCURVE",
"42 155 OFFCURVE",
"112 50 OFFCURVE",
"222 -17 OFFCURVE",
"301 -17 QCURVE SMOOTH",
"372 -17 OFFCURVE",
"481 34 OFFCURVE",
"517 80 QCURVE",
"460 133 LINE",
"433 100 OFFCURVE",
"356 58 OFFCURVE",
"305 58 QCURVE SMOOTH",
"253 58 OFFCURVE",
"177 98 OFFCURVE",
"126 163 OFFCURVE",
"99 246 OFFCURVE",
"96 289 QCURVE",
"341 289 LINE",
"341 356 LINE"
);
}
);
width = 534;
}
);
unicode = 20AC;
},
{
glyphname = quotesinglbase;
layers = (
{
layerId = "0E77000D-43E9-4C80-9DAA-F2DD3D3A742F";
paths = (
{
closed = 1;
nodes = (
"257 195 LINE",
"59 195 LINE",
"15 -167 LINE",
"144 -167 LINE"
);
}
);
width = 288;
},
{
layerId = "A901A9D0-A2D8-4DE6-ABBE-EA4AB0B05523";
paths = (
{
closed = 1;
nodes = (
"158 106 LINE",
"75 106 LINE",
"22 -140 LINE",
"87 -140 LINE"
);
}
);
width = 197;
}
);
unicode = 201A;
},
{
glyphname = florin;
layers = (
{
layerId = "0E77000D-43E9-4C80-9DAA-F2DD3D3A742F";
paths = (
{
closed = 1;
nodes = (
"36 -163 LINE",
"226 -163 LINE",
"317 329 LINE",
"427 329 LINE",
"457 473 LINE",
"343 473 LINE",
"358 536 LINE SMOOTH",
"362 553 OFFCURVE",
"374 576 OFFCURVE",
"393 592 OFFCURVE",
"418 599 OFFCURVE",
"436 599 QCURVE SMOOTH",
"444 599 OFFCURVE",
"463 598 OFFCURVE",
"474 596 QCURVE",
"499 731 LINE",
"478 736 OFFCURVE",
"422 743 OFFCURVE",
"393 743 QCURVE SMOOTH",
"344 743 OFFCURVE",
"272 722 OFFCURVE",
"219 679 OFFCURVE",
"185 614 OFFCURVE",
"175 571 QCURVE SMOOTH",
"152 473 LINE",
"96 473 LINE",
"66 329 LINE",
"127 329 LINE"
);
}
);
width = 552;
},
{
layerId = "A901A9D0-A2D8-4DE6-ABBE-EA4AB0B05523";
paths = (
{
closed = 1;
nodes = (
"12 -103 LINE",
"90 -103 LINE",
"197 371 LINE",
"299 371 LINE",
"311 439 LINE",
"210 439 LINE",
"222 500 LINE SMOOTH",
"230 542 OFFCURVE",
"252 596 OFFCURVE",
"279 628 OFFCURVE",
"313 641 OFFCURVE",
"334 641 QCURVE SMOOTH",
"346 641 OFFCURVE",
"370 636 OFFCURVE",
"379 631 QCURVE",
"393 703 LINE",
"378 708 OFFCURVE",
"346 713 OFFCURVE",
"329 713 QCURVE SMOOTH",
"303 713 OFFCURVE",
"248 697 OFFCURVE",
"199 655 OFFCURVE",
"158 585 OFFCURVE",
"147 531 QCURVE SMOOTH",
"128 439 LINE",
"44 439 LINE",
"31 371 LINE",
"114 371 LINE"
);
}
);
width = 432;
}
);
unicode = 0192;
},
{
glyphname = quotedblbase;
layers = (
{
layerId = "0E77000D-43E9-4C80-9DAA-F2DD3D3A742F";
paths = (
{
closed = 1;
nodes = (
"256 195 LINE",
"58 195 LINE",
"14 -167 LINE",
"143 -167 LINE"
);
},
{
closed = 1;
nodes = (
"522 195 LINE",
"324 195 LINE",
"280 -167 LINE",
"409 -167 LINE"
);
}
);
width = 558;
},
{
layerId = "A901A9D0-A2D8-4DE6-ABBE-EA4AB0B05523";
paths = (
{
closed = 1;
nodes = (
"157 106 LINE",
"75 106 LINE",
"21 -140 LINE",
"86 -140 LINE"
);
},
{
closed = 1;
nodes = (
"324 106 LINE",
"244 106 LINE",
"190 -140 LINE",
"255 -140 LINE"
);
}
);
width = 364;
}
);
unicode = 201E;
},
{
glyphname = ellipsis;
layers = (
{
layerId = "0E77000D-43E9-4C80-9DAA-F2DD3D3A742F";
paths = (
{
closed = 1;
nodes = (
"66 44 OFFCURVE",
"128 -7 OFFCURVE",
"173 -7 QCURVE SMOOTH",
"219 -7 OFFCURVE",
"282 44 OFFCURVE",
"282 95 QCURVE SMOOTH",
"282 145 OFFCURVE",
"219 196 OFFCURVE",
"173 196 QCURVE SMOOTH",
"128 196 OFFCURVE",
"66 145 OFFCURVE",
"66 95 QCURVE SMOOTH"
);
},
{
closed = 1;
nodes = (
"347 44 OFFCURVE",
"409 -7 OFFCURVE",
"454 -7 QCURVE SMOOTH",
"500 -7 OFFCURVE",
"563 44 OFFCURVE",
"563 95 QCURVE SMOOTH",
"563 145 OFFCURVE",
"500 196 OFFCURVE",
"454 196 QCURVE SMOOTH",
"409 196 OFFCURVE",
"347 145 OFFCURVE",
"347 95 QCURVE SMOOTH"
);
},
{
closed = 1;
nodes = (
"627 44 OFFCURVE",
"689 -7 OFFCURVE",
"734 -7 QCURVE SMOOTH",
"780 -7 OFFCURVE",
"843 44 OFFCURVE",
"843 95 QCURVE SMOOTH",
"843 145 OFFCURVE",
"780 196 OFFCURVE",
"734 196 QCURVE SMOOTH",
"689 196 OFFCURVE",
"627 145 OFFCURVE",
"627 95 QCURVE SMOOTH"
);
}
);
width = 909;
},
{
layerId = "A901A9D0-A2D8-4DE6-ABBE-EA4AB0B05523";
paths = (
{
closed = 1;
nodes = (
"112 25 OFFCURVE",
"148 -9 OFFCURVE",
"172 -9 QCURVE SMOOTH",
"196 -9 OFFCURVE",
"233 25 OFFCURVE",
"233 51 QCURVE SMOOTH",
"233 77 OFFCURVE",
"196 109 OFFCURVE",
"172 109 QCURVE SMOOTH",
"148 109 OFFCURVE",
"112 77 OFFCURVE",
"112 51 QCURVE SMOOTH"
);
},
{
closed = 1;
nodes = (
"359 25 OFFCURVE",
"394 -9 OFFCURVE",
"420 -9 QCURVE SMOOTH",
"445 -9 OFFCURVE",
"480 25 OFFCURVE",
"480 51 QCURVE SMOOTH",
"480 77 OFFCURVE",
"445 109 OFFCURVE",
"420 109 QCURVE SMOOTH",
"394 109 OFFCURVE",
"359 77 OFFCURVE",
"359 51 QCURVE SMOOTH"
);
},
{
closed = 1;
nodes = (
"607 25 OFFCURVE",
"641 -9 OFFCURVE",
"667 -9 QCURVE SMOOTH",
"692 -9 OFFCURVE",
"725 25 OFFCURVE",
"725 51 QCURVE SMOOTH",
"725 77 OFFCURVE",
"692 109 OFFCURVE",
"667 109 QCURVE SMOOTH",
"641 109 OFFCURVE",
"607 77 OFFCURVE",
"607 51 QCURVE SMOOTH"
);
}
);
width = 837;
}
);
unicode = 2026;
},
{
glyphname = dagger;
layers = (
{
layerId = "0E77000D-43E9-4C80-9DAA-F2DD3D3A742F";
paths = (
{
closed = 1;
nodes = (
"253 708 LINE",
"141 708 LINE",
"156 555 LINE",
"32 568 LINE",
"32 464 LINE",
"157 477 LINE",
"147 63 LINE",
"247 63 LINE",
"237 477 LINE",
"362 464 LINE",
"362 568 LINE",
"238 555 LINE"
);
}
);
width = 393;
},
{
layerId = "A901A9D0-A2D8-4DE6-ABBE-EA4AB0B05523";
paths = (
{
closed = 1;
nodes = (
"252 708 LINE",
"181 708 LINE",
"187 541 LINE",
"45 546 LINE",
"45 483 LINE",
"189 489 LINE",
"181 63 LINE",
"252 63 LINE",
"244 489 LINE",
"390 483 LINE",
"390 546 LINE",
"246 541 LINE"
);
}
);
width = 435;
}
);
unicode = 2020;
},
{
glyphname = daggerdbl;
layers = (
{
layerId = "0E77000D-43E9-4C80-9DAA-F2DD3D3A742F";
paths = (
{
closed = 1;
nodes = (
"140 -60 LINE",
"252 -60 LINE",
"237 83 LINE",
"361 70 LINE",
"361 174 LINE",
"235 161 LINE",
"235 181 OFFCURVE",
"235 271 OFFCURVE",
"235 370 OFFCURVE",
"235 460 OFFCURVE",
"235 480 QCURVE",
"361 467 LINE",
"361 571 LINE",
"237 558 LINE",
"252 709 LINE",
"140 709 LINE",
"155 558 LINE",
"31 571 LINE",
"31 467 LINE",
"157 480 LINE",
"157 460 OFFCURVE",
"157 370 OFFCURVE",
"157 271 OFFCURVE",
"157 181 OFFCURVE",
"157 161 QCURVE",
"31 174 LINE",
"31 70 LINE",
"155 83 LINE"
);
}
);
width = 392;
},
{
layerId = "A901A9D0-A2D8-4DE6-ABBE-EA4AB0B05523";
paths = (
{
closed = 1;
nodes = (
"182 -61 LINE",
"250 -61 LINE",
"245 94 LINE",
"385 90 LINE",
"385 154 LINE",
"245 149 LINE",
"247 192 OFFCURVE",
"248 277 OFFCURVE",
"248 363 OFFCURVE",
"247 448 OFFCURVE",
"245 491 QCURVE",
"385 485 LINE",
"385 549 LINE",
"245 545 LINE",
"250 708 LINE",
"182 708 LINE",
"184 545 LINE",
"45 549 LINE",
"45 485 LINE",
"185 491 LINE",
"184 448 OFFCURVE",
"182 363 OFFCURVE",
"182 277 OFFCURVE",
"184 192 OFFCURVE",
"185 149 QCURVE",
"45 154 LINE",
"45 90 LINE",
"184 94 LINE"
);
}
);
width = 430;
}
);
unicode = 2021;
},
{
glyphname = circumflex;
layers = (
{
layerId = "0E77000D-43E9-4C80-9DAA-F2DD3D3A742F";
paths = (
{
closed = 1;
nodes = (
"227 699 LINE",
"128 699 LINE",
"-12 513 LINE",
"119 513 LINE",
"178 574 LINE",
"237 513 LINE",
"367 513 LINE"
);
}
);
width = 354;
},
{
layerId = "A901A9D0-A2D8-4DE6-ABBE-EA4AB0B05523";
paths = (
{
closed = 1;
nodes = (
"206 699 LINE",
"133 699 LINE",
"26 558 LINE",
"92 558 LINE",
"168 640 LINE",
"246 558 LINE",
"312 558 LINE"
);
}
);
width = 337;
}
);
unicode = 02C6;
},
{
glyphname = perthousand;
layers = (
{
layerId = "0E77000D-43E9-4C80-9DAA-F2DD3D3A742F";
paths = (
{
closed = 1;
nodes = (
"388 561 OFFCURVE",
"362 629 OFFCURVE",
"315 680 OFFCURVE",
"249 710 OFFCURVE",
"208 710 QCURVE SMOOTH",
"167 710 OFFCURVE",
"100 680 OFFCURVE",
"53 629 OFFCURVE",
"27 561 OFFCURVE",
"27 522 QCURVE SMOOTH",
"27 483 OFFCURVE",
"53 415 OFFCURVE",
"100 363 OFFCURVE",
"167 333 OFFCURVE",
"207 333 QCURVE SMOOTH",
"248 333 OFFCURVE",
"314 363 OFFCURVE",
"362 415 OFFCURVE",
"388 484 OFFCURVE",
"388 523 QCURVE SMOOTH"
);
},
{
closed = 1;
nodes = (
"266 489 OFFCURVE",
"234 443 OFFCURVE",
"208 443 QCURVE SMOOTH",
"183 443 OFFCURVE",
"149 489 OFFCURVE",
"149 523 QCURVE SMOOTH",
"149 556 OFFCURVE",
"181 600 OFFCURVE",
"207 600 QCURVE SMOOTH",
"233 600 OFFCURVE",
"266 555 OFFCURVE",
"266 522 QCURVE SMOOTH"
);
},
{
closed = 1;
nodes = (
"856 219 OFFCURVE",
"830 287 OFFCURVE",
"783 338 OFFCURVE",
"717 367 OFFCURVE",
"676 367 QCURVE SMOOTH",
"635 367 OFFCURVE",
"568 337 OFFCURVE",
"521 286 OFFCURVE",
"495 218 OFFCURVE",
"495 179 QCURVE SMOOTH",
"495 141 OFFCURVE",
"521 72 OFFCURVE",
"568 20 OFFCURVE",
"635 -10 OFFCURVE",
"675 -10 QCURVE SMOOTH",
"716 -10 OFFCURVE",
"782 21 OFFCURVE",
"830 73 OFFCURVE",
"856 142 OFFCURVE",
"856 180 QCURVE SMOOTH"
);
},
{
closed = 1;
nodes = (
"734 146 OFFCURVE",
"702 100 OFFCURVE",
"676 100 QCURVE SMOOTH",
"651 100 OFFCURVE",
"617 147 OFFCURVE",
"617 180 QCURVE SMOOTH",
"617 214 OFFCURVE",
"648 257 OFFCURVE",
"675 257 QCURVE SMOOTH",
"701 257 OFFCURVE",
"734 213 OFFCURVE",
"734 179 QCURVE SMOOTH"
);
},
{
closed = 1;
nodes = (
"1252 219 OFFCURVE",
"1226 287 OFFCURVE",
"1179 338 OFFCURVE",
"1113 367 OFFCURVE",
"1072 367 QCURVE SMOOTH",
"1031 367 OFFCURVE",
"964 337 OFFCURVE",
"917 286 OFFCURVE",
"891 218 OFFCURVE",
"891 179 QCURVE SMOOTH",
"891 141 OFFCURVE",
"917 72 OFFCURVE",
"964 20 OFFCURVE",
"1031 -10 OFFCURVE",
"1071 -10 QCURVE SMOOTH",
"1112 -10 OFFCURVE",
"1178 21 OFFCURVE",
"1226 73 OFFCURVE",
"1252 142 OFFCURVE",
"1252 180 QCURVE SMOOTH"
);
},
{
closed = 1;
nodes = (
"1130 146 OFFCURVE",
"1098 100 OFFCURVE",
"1072 100 QCURVE SMOOTH",
"1047 100 OFFCURVE",
"1013 147 OFFCURVE",
"1013 180 QCURVE SMOOTH",
"1013 214 OFFCURVE",
"1044 257 OFFCURVE",
"1071 257 QCURVE SMOOTH",
"1097 257 OFFCURVE",
"1130 213 OFFCURVE",
"1130 179 QCURVE SMOOTH"
);
},
{
closed = 1;
nodes = (
"644 700 LINE",
"104 0 LINE",
"239 0 LINE",
"263 30 OFFCURVE",
"348 141 OFFCURVE",
"452 276 OFFCURVE",
"565 423 OFFCURVE",
"670 558 OFFCURVE",
"755 669 OFFCURVE",
"779 700 QCURVE"
);
}
);
width = 1281;
},
{
layerId = "A901A9D0-A2D8-4DE6-ABBE-EA4AB0B05523";
paths = (
{
closed = 1;
nodes = (
"353 572 OFFCURVE",
"330 636 OFFCURVE",
"288 683 OFFCURVE",
"229 710 OFFCURVE",
"194 710 QCURVE SMOOTH",
"158 710 OFFCURVE",
"99 682 OFFCURVE",
"55 634 OFFCURVE",
"31 570 OFFCURVE",
"31 534 QCURVE SMOOTH",
"31 498 OFFCURVE",
"54 434 OFFCURVE",
"96 386 OFFCURVE",
"156 358 OFFCURVE",
"193 358 QCURVE SMOOTH",
"228 358 OFFCURVE",
"287 386 OFFCURVE",
"329 435 OFFCURVE",
"353 499 OFFCURVE",
"353 535 QCURVE SMOOTH"
);
},
{
closed = 1;
nodes = (
"287 483 OFFCURVE",
"236 417 OFFCURVE",
"194 417 QCURVE SMOOTH",
"152 417 OFFCURVE",
"97 483 OFFCURVE",
"97 535 QCURVE SMOOTH",
"97 587 OFFCURVE",
"146 651 OFFCURVE",
"189 651 QCURVE SMOOTH",
"234 651 OFFCURVE",
"287 585 OFFCURVE",
"287 534 QCURVE SMOOTH"
);
},
{
closed = 1;
nodes = (
"731 202 OFFCURVE",
"707 265 OFFCURVE",
"665 312 OFFCURVE",
"607 339 OFFCURVE",
"572 339 QCURVE SMOOTH",
"537 339 OFFCURVE",
"477 312 OFFCURVE",
"434 265 OFFCURVE",
"410 201 OFFCURVE",
"410 163 QCURVE SMOOTH",
"410 127 OFFCURVE",
"434 63 OFFCURVE",
"476 16 OFFCURVE",
"535 -11 OFFCURVE",
"571 -11 QCURVE SMOOTH",
"606 -11 OFFCURVE",
"665 16 OFFCURVE",
"707 64 OFFCURVE",
"731 129 OFFCURVE",
"731 166 QCURVE SMOOTH"
);
},
{
closed = 1;
nodes = (
"665 109 OFFCURVE",
"617 48 OFFCURVE",
"572 48 QCURVE SMOOTH",
"530 48 OFFCURVE",
"476 112 OFFCURVE",
"476 165 QCURVE SMOOTH",
"476 216 OFFCURVE",
"529 280 OFFCURVE",
"571 280 QCURVE SMOOTH",
"613 280 OFFCURVE",
"665 216 OFFCURVE",
"665 160 QCURVE SMOOTH"
);
},
{
closed = 1;
nodes = (
"1104 202 OFFCURVE",
"1080 265 OFFCURVE",
"1038 312 OFFCURVE",
"980 339 OFFCURVE",
"945 339 QCURVE SMOOTH",
"910 339 OFFCURVE",
"850 312 OFFCURVE",
"807 265 OFFCURVE",
"782 201 OFFCURVE",
"782 163 QCURVE SMOOTH",
"782 127 OFFCURVE",
"806 63 OFFCURVE",
"849 16 OFFCURVE",
"909 -11 OFFCURVE",
"944 -11 QCURVE SMOOTH",
"979 -11 OFFCURVE",
"1038 16 OFFCURVE",
"1080 64 OFFCURVE",
"1104 129 OFFCURVE",
"1104 166 QCURVE SMOOTH"
);
},
{
closed = 1;
nodes = (
"1038 109 OFFCURVE",
"990 48 OFFCURVE",
"945 48 QCURVE SMOOTH",
"903 48 OFFCURVE",
"848 112 OFFCURVE",
"848 165 QCURVE SMOOTH",
"848 215 OFFCURVE",
"901 280 OFFCURVE",
"944 280 QCURVE SMOOTH",
"985 280 OFFCURVE",
"1038 216 OFFCURVE",
"1038 160 QCURVE SMOOTH"
);
},
{
closed = 1;
nodes = (
"590 701 LINE",
"104 0 LINE",
"190 0 LINE",
"231 62 OFFCURVE",
"311 180 OFFCURVE",
"390 294 OFFCURVE",
"469 407 OFFCURVE",
"550 521 OFFCURVE",
"632 639 OFFCURVE",
"674 701 QCURVE"
);
}
);
width = 1136;
}
);
unicode = 2030;
},
{
glyphname = guilsinglleft;
layers = (
{
layerId = "0E77000D-43E9-4C80-9DAA-F2DD3D3A742F";
paths = (
{
closed = 1;
nodes = (
"212 268 LINE",
"342 439 LINE",
"201 500 LINE",
"27 268 LINE",
"200 37 LINE",
"342 98 LINE"
);
}
);
width = 365;
},
{
layerId = "A901A9D0-A2D8-4DE6-ABBE-EA4AB0B05523";
paths = (
{
closed = 1;
nodes = (
"121 249 LINE",
"251 433 LINE",
"182 457 LINE",
"30 246 LINE",
"182 39 LINE",
"249 68 LINE"
);
}
);
width = 275;
}
);
unicode = 2039;
},
{
glyphname = quoteleft;
layers = (
{
layerId = "0E77000D-43E9-4C80-9DAA-F2DD3D3A742F";
paths = (
{
closed = 1;
nodes = (
"24 343 LINE",
"222 343 LINE",
"266 705 LINE",
"137 705 LINE"
);
}
);
width = 288;
},
{
layerId = "A901A9D0-A2D8-4DE6-ABBE-EA4AB0B05523";
paths = (
{
closed = 1;
nodes = (
"37 461 LINE",
"119 461 LINE",
"173 707 LINE",
"107 707 LINE"
);
}
);
width = 197;
}
);
unicode = 2018;
},
{
glyphname = quoteright;
layers = (
{
layerId = "0E77000D-43E9-4C80-9DAA-F2DD3D3A742F";
paths = (
{
closed = 1;
nodes = (
"265 700 LINE",
"67 700 LINE",
"23 338 LINE",
"152 338 LINE"
);
}
);
width = 288;
},
{
layerId = "A901A9D0-A2D8-4DE6-ABBE-EA4AB0B05523";
paths = (
{
closed = 1;
nodes = (
"172 705 LINE",
"90 705 LINE",
"36 459 LINE",
"101 459 LINE"
);
}
);
width = 196;
}
);
unicode = 2019;
},
{
glyphname = quotedblleft;
layers = (
{
layerId = "0E77000D-43E9-4C80-9DAA-F2DD3D3A742F";
paths = (
{
closed = 1;
nodes = (
"23 343 LINE",
"221 343 LINE",
"265 705 LINE",
"136 705 LINE"
);
},
{
closed = 1;
nodes = (
"289 343 LINE",
"487 343 LINE",
"531 705 LINE",
"402 705 LINE"
);
}
);
width = 551;
},
{
layerId = "A901A9D0-A2D8-4DE6-ABBE-EA4AB0B05523";
paths = (
{
closed = 1;
nodes = (
"36 461 LINE",
"118 461 LINE",
"172 707 LINE",
"106 707 LINE"
);
},
{
closed = 1;
nodes = (
"205 461 LINE",
"286 461 LINE",
"339 707 LINE",
"274 707 LINE"
);
}
);
width = 362;
}
);
unicode = 201C;
},
{
glyphname = quotedblright;
layers = (
{
layerId = "0E77000D-43E9-4C80-9DAA-F2DD3D3A742F";
paths = (
{
closed = 1;
nodes = (
"263 700 LINE",
"65 700 LINE",
"21 338 LINE",
"150 338 LINE"
);
},
{
closed = 1;
nodes = (
"529 700 LINE",
"331 700 LINE",
"287 338 LINE",
"416 338 LINE"
);
}
);
width = 551;
},
{
layerId = "A901A9D0-A2D8-4DE6-ABBE-EA4AB0B05523";
paths = (
{
closed = 1;
nodes = (
"172 705 LINE",
"90 705 LINE",
"36 459 LINE",
"101 459 LINE"
);
},
{
closed = 1;
nodes = (
"339 705 LINE",
"259 705 LINE",
"205 459 LINE",
"270 459 LINE"
);
}
);
width = 363;
}
);
unicode = 201D;
},
{
glyphname = bullet;
layers = (
{
layerId = "0E77000D-43E9-4C80-9DAA-F2DD3D3A742F";
paths = (
{
closed = 1;
nodes = (
"41 316 OFFCURVE",
"68 255 OFFCURVE",
"114 209 OFFCURVE",
"175 183 OFFCURVE",
"210 183 QCURVE SMOOTH",
"245 183 OFFCURVE",
"306 209 OFFCURVE",
"352 255 OFFCURVE",
"379 316 OFFCURVE",
"379 351 QCURVE SMOOTH",
"379 386 OFFCURVE",
"352 448 OFFCURVE",
"306 494 OFFCURVE",
"245 521 OFFCURVE",
"210 521 QCURVE SMOOTH",
"175 521 OFFCURVE",
"114 494 OFFCURVE",
"68 448 OFFCURVE",
"41 386 OFFCURVE",
"41 351 QCURVE SMOOTH"
);
}
);
width = 421;
},
{
layerId = "A901A9D0-A2D8-4DE6-ABBE-EA4AB0B05523";
paths = (
{
closed = 1;
nodes = (
"37 323 OFFCURVE",
"60 270 OFFCURVE",
"101 230 OFFCURVE",
"154 207 OFFCURVE",
"184 207 QCURVE SMOOTH",
"215 207 OFFCURVE",
"269 230 OFFCURVE",
"309 270 OFFCURVE",
"332 324 OFFCURVE",
"332 355 QCURVE SMOOTH",
"332 386 OFFCURVE",
"309 439 OFFCURVE",
"268 479 OFFCURVE",
"214 502 OFFCURVE",
"184 502 QCURVE SMOOTH",
"153 502 OFFCURVE",
"100 478 OFFCURVE",
"60 438 OFFCURVE",
"37 383 OFFCURVE",
"37 353 QCURVE SMOOTH"
);
}
);
width = 369;
}
);
unicode = 2022;
},
{
glyphname = endash;
layers = (
{
layerId = "0E77000D-43E9-4C80-9DAA-F2DD3D3A742F";
paths = (
{
closed = 1;
nodes = (
"479 394 LINE",
"31 394 LINE",
"31 231 LINE",
"479 231 LINE"
);
}
);
width = 511;
},
{
layerId = "A901A9D0-A2D8-4DE6-ABBE-EA4AB0B05523";
paths = (
{
closed = 1;
nodes = (
"469 322 LINE",
"31 322 LINE",
"31 246 LINE",
"469 246 LINE"
);
}
);
width = 501;
}
);
unicode = 2013;
},
{
glyphname = emdash;
layers = (
{
layerId = "0E77000D-43E9-4C80-9DAA-F2DD3D3A742F";
paths = (
{
closed = 1;
nodes = (
"849 394 LINE",
"31 394 LINE",
"31 231 LINE",
"849 231 LINE"
);
}
);
width = 880;
},
{
layerId = "A901A9D0-A2D8-4DE6-ABBE-EA4AB0B05523";
paths = (
{
closed = 1;
nodes = (
"714 322 LINE",
"31 322 LINE",
"31 246 LINE",
"714 246 LINE"
);
}
);
width = 745;
}
);
unicode = 2014;
},
{
glyphname = tilde;
layers = (
{
layerId = "0E77000D-43E9-4C80-9DAA-F2DD3D3A742F";
paths = (
{
closed = 1;
nodes = (
"99 509 LINE",
"107 536 OFFCURVE",
"122 556 OFFCURVE",
"133 556 QCURVE SMOOTH",
"143 556 OFFCURVE",
"168 545 OFFCURVE",
"197 532 OFFCURVE",
"230 521 OFFCURVE",
"248 521 QCURVE SMOOTH",
"296 521 OFFCURVE",
"356 602 OFFCURVE",
"374 666 QCURVE",
"272 685 LINE",
"266 660 OFFCURVE",
"251 640 OFFCURVE",
"241 640 QCURVE SMOOTH",
"231 640 OFFCURVE",
"205 651 OFFCURVE",
"174 664 OFFCURVE",
"140 675 OFFCURVE",
"122 675 QCURVE SMOOTH",
"75 675 OFFCURVE",
"13 592 OFFCURVE",
"-4 527 QCURVE"
);
}
);
width = 367;
},
{
layerId = "A901A9D0-A2D8-4DE6-ABBE-EA4AB0B05523";
paths = (
{
closed = 1;
nodes = (
"80 558 LINE",
"88 583 OFFCURVE",
"121 604 OFFCURVE",
"139 604 QCURVE SMOOTH",
"155 604 OFFCURVE",
"185 592 OFFCURVE",
"215 579 OFFCURVE",
"246 567 OFFCURVE",
"262 567 QCURVE SMOOTH",
"297 567 OFFCURVE",
"342 622 OFFCURVE",
"356 670 QCURVE",
"303 680 LINE",
"295 658 OFFCURVE",
"273 635 OFFCURVE",
"256 635 QCURVE SMOOTH",
"243 635 OFFCURVE",
"214 647 OFFCURVE",
"184 660 OFFCURVE",
"151 672 OFFCURVE",
"133 672 QCURVE SMOOTH",
"94 672 OFFCURVE",
"40 615 OFFCURVE",
"26 568 QCURVE"
);
}
);
width = 382;
}
);
unicode = 02DC;
},
{
glyphname = trademark;
layers = (
{
layerId = "0E77000D-43E9-4C80-9DAA-F2DD3D3A742F";
paths = (
{
closed = 1;
nodes = (
"391 706 LINE",
"26 706 LINE",
"26 592 LINE",
"148 592 LINE",
"148 292 LINE",
"270 292 LINE",
"270 592 LINE",
"391 592 LINE"
);
},
{
closed = 1;
nodes = (
"888 706 LINE",
"748 706 LINE",
"656 505 LINE",
"563 706 LINE",
"421 706 LINE",
"421 292 LINE",
"543 292 LINE",
"543 458 LINE",
"616 292 LINE",
"693 292 LINE",
"766 458 LINE",
"766 292 LINE",
"888 292 LINE"
);
}
);
width = 898;
},
{
layerId = "A901A9D0-A2D8-4DE6-ABBE-EA4AB0B05523";
paths = (
{
closed = 1;
nodes = (
"365 706 LINE",
"31 706 LINE",
"31 644 LINE",
"164 644 LINE",
"164 292 LINE",
"233 292 LINE",
"233 644 LINE",
"365 644 LINE"
);
},
{
closed = 1;
nodes = (
"883 706 LINE",
"787 706 LINE",
"662 405 LINE",
"539 706 LINE",
"440 706 LINE",
"440 292 LINE",
"509 292 LINE",
"509 612 LINE",
"639 292 LINE",
"683 292 LINE",
"814 610 LINE",
"814 292 LINE",
"883 292 LINE"
);
}
);
width = 896;
}
);
unicode = 2122;
},
{
glyphname = guilsinglright;
layers = (
{
layerId = "0E77000D-43E9-4C80-9DAA-F2DD3D3A742F";
paths = (
{
closed = 1;
nodes = (
"23 98 LINE",
"165 37 LINE",
"338 268 LINE",
"164 500 LINE",
"23 439 LINE",
"153 268 LINE"
);
}
);
width = 365;
},
{
layerId = "A901A9D0-A2D8-4DE6-ABBE-EA4AB0B05523";
paths = (
{
closed = 1;
nodes = (
"28 68 LINE",
"94 39 LINE",
"245 246 LINE",
"94 457 LINE",
"24 433 LINE",
"154 249 LINE"
);
}
);
width = 274;
}
);
unicode = 203A;
},
{
glyphname = exclamdown;
layers = (
{
layerId = "0E77000D-43E9-4C80-9DAA-F2DD3D3A742F";
paths = (
{
closed = 1;
nodes = (
"258 0 LINE",
"258 85 LINE",
"200 472 LINE",
"100 472 LINE",
"42 85 LINE",
"42 0 LINE"
);
},
{
closed = 1;
nodes = (
"258 664 OFFCURVE",
"196 713 OFFCURVE",
"151 713 QCURVE SMOOTH",
"106 713 OFFCURVE",
"43 664 OFFCURVE",
"43 616 QCURVE SMOOTH",
"43 568 OFFCURVE",
"106 520 OFFCURVE",
"151 520 QCURVE SMOOTH",
"196 520 OFFCURVE",
"258 568 OFFCURVE",
"258 616 QCURVE SMOOTH"
);
}
);
width = 298;
},
{
layerId = "A901A9D0-A2D8-4DE6-ABBE-EA4AB0B05523";
paths = (
{
closed = 1;
nodes = (
"168 -89 LINE",
"163 37 LINE",
"147 414 LINE",
"92 414 LINE",
"76 37 LINE",
"70 -89 LINE"
);
},
{
closed = 1;
nodes = (
"179 594 OFFCURVE",
"142 625 OFFCURVE",
"119 625 QCURVE SMOOTH",
"94 625 OFFCURVE",
"59 594 OFFCURVE",
"59 567 QCURVE SMOOTH",
"59 542 OFFCURVE",
"94 508 OFFCURVE",
"119 508 QCURVE SMOOTH",
"142 508 OFFCURVE",
"179 542 OFFCURVE",
"179 567 QCURVE SMOOTH"
);
}
);
width = 238;
}
);
unicode = 00A1;
},
{
glyphname = cent;
layers = (
{
layerId = "0E77000D-43E9-4C80-9DAA-F2DD3D3A742F";
paths = (
{
closed = 1;
nodes = (
"304 238 LINE",
"277 255 OFFCURVE",
"248 315 OFFCURVE",
"248 355 QCURVE SMOOTH",
"248 410 OFFCURVE",
"303 484 OFFCURVE",
"349 491 QCURVE"
);
},
{
closed = 1;
nodes = (
"515 603 LINE",
"506 608 OFFCURVE",
"488 616 OFFCURVE",
"479 619 QCURVE",
"494 706 LINE",
"379 706 LINE",
"367 636 LINE",
"304 636 OFFCURVE",
"200 592 OFFCURVE",
"125 516 OFFCURVE",
"83 414 OFFCURVE",
"83 355 QCURVE SMOOTH",
"83 309 OFFCURVE",
"110 226 OFFCURVE",
"160 157 OFFCURVE",
"228 106 OFFCURVE",
"270 92 QCURVE",
"253 -6 LINE",
"368 -6 LINE",
"382 75 LINE",
"422 77 OFFCURVE",
"490 95 OFFCURVE",
"519 112 QCURVE",
"519 278 LINE",
"499 255 OFFCURVE",
"436 221 OFFCURVE",
"396 221 QCURVE",
"444 487 LINE",
"461 483 OFFCURVE",
"498 459 OFFCURVE",
"515 438 QCURVE"
);
}
);
width = 602;
},
{
layerId = "A901A9D0-A2D8-4DE6-ABBE-EA4AB0B05523";
paths = (
{
closed = 1;
nodes = (
"260 151 LINE",
"209 176 OFFCURVE",
"151 260 OFFCURVE",
"151 325 QCURVE SMOOTH",
"151 405 OFFCURVE",
"230 495 OFFCURVE",
"299 500 QCURVE"
);
},
{
closed = 1;
nodes = (
"478 518 LINE",
"452 538 OFFCURVE",
"397 564 OFFCURVE",
"370 569 QCURVE",
"378 655 LINE",
"315 655 LINE",
"306 574 LINE",
"253 571 OFFCURVE",
"166 532 OFFCURVE",
"104 465 OFFCURVE",
"70 374 OFFCURVE",
"70 321 QCURVE SMOOTH",
"70 278 OFFCURVE",
"96 201 OFFCURVE",
"144 138 OFFCURVE",
"211 92 OFFCURVE",
"252 81 QCURVE",
"240 -14 LINE",
"305 -14 LINE",
"316 72 LINE",
"368 72 OFFCURVE",
"447 105 OFFCURVE",
"477 134 QCURVE",
"477 218 LINE",
"446 186 OFFCURVE",
"365 142 OFFCURVE",
"321 142 QCURVE",
"360 494 LINE",
"398 490 OFFCURVE",
"461 455 OFFCURVE",
"478 435 QCURVE"
);
}
);
width = 553;
}
);
unicode = 00A2;
},
{
glyphname = sterling;
layers = (
{
layerId = "0E77000D-43E9-4C80-9DAA-F2DD3D3A742F";
paths = (
{
closed = 1;
nodes = (
"535 399 LINE",
"319 399 LINE",
"319 450 LINE SMOOTH",
"319 471 OFFCURVE",
"330 504 OFFCURVE",
"351 527 OFFCURVE",
"380 539 OFFCURVE",
"399 539 QCURVE SMOOTH",
"423 539 OFFCURVE",
"467 518 OFFCURVE",
"490 494 QCURVE",
"619 611 LINE",
"580 655 OFFCURVE",
"468 712 OFFCURVE",
"386 712 QCURVE SMOOTH",
"324 712 OFFCURVE",
"227 675 OFFCURVE",
"161 607 OFFCURVE",
"126 510 OFFCURVE",
"126 450 QCURVE SMOOTH",
"126 399 LINE",
"51 399 LINE",
"51 263 LINE",
"126 263 LINE",
"126 0 LINE",
"612 0 LINE",
"612 153 LINE",
"319 153 LINE",
"319 263 LINE",
"535 263 LINE"
);
}
);
width = 671;
},
{
layerId = "A901A9D0-A2D8-4DE6-ABBE-EA4AB0B05523";
paths = (
{
closed = 1;
nodes = (
"461 373 LINE",
"211 373 LINE",
"211 475 LINE SMOOTH",
"211 508 OFFCURVE",
"226 568 OFFCURVE",
"259 613 OFFCURVE",
"311 640 OFFCURVE",
"348 640 QCURVE SMOOTH",
"401 640 OFFCURVE",
"466 600 OFFCURVE",
"493 566 QCURVE",
"549 620 LINE",
"514 664 OFFCURVE",
"416 717 OFFCURVE",
"350 717 QCURVE SMOOTH",
"296 717 OFFCURVE",
"212 681 OFFCURVE",
"155 616 OFFCURVE",
"125 528 OFFCURVE",
"125 476 QCURVE SMOOTH",
"125 373 LINE",
"59 373 LINE",
"59 305 LINE",
"125 305 LINE",
"125 0 LINE",
"541 0 LINE",
"541 73 LINE",
"211 73 LINE",
"211 305 LINE",
"461 305 LINE"
);
}
);
width = 593;
}
);
unicode = 00A3;
},
{
glyphname = currency;
layers = (
{
layerId = "0E77000D-43E9-4C80-9DAA-F2DD3D3A742F";
paths = (
{
closed = 1;
nodes = (
"561 639 LINE",
"470 550 LINE",
"440 569 OFFCURVE",
"369 589 OFFCURVE",
"329 589 QCURVE SMOOTH",
"287 589 OFFCURVE",
"220 569 OFFCURVE",
"187 549 QCURVE",
"93 639 LINE",
"15 560 LINE",
"106 469 LINE",
"84 437 OFFCURVE",
"66 365 OFFCURVE",
"66 329 QCURVE SMOOTH",
"66 290 OFFCURVE",
"88 218 OFFCURVE",
"108 188 QCURVE",
"15 94 LINE",
"93 15 LINE",
"190 109 LINE",
"223 89 OFFCURVE",
"291 69 OFFCURVE",
"329 69 QCURVE SMOOTH",
"368 69 OFFCURVE",
"437 90 OFFCURVE",
"468 108 QCURVE",
"562 15 LINE",
"641 94 LINE",
"550 185 LINE",
"571 217 OFFCURVE",
"592 288 OFFCURVE",
"592 329 QCURVE SMOOTH",
"592 370 OFFCURVE",
"571 438 OFFCURVE",
"551 470 QCURVE",
"641 560 LINE"
);
},
{
closed = 1;
nodes = (
"360 474 OFFCURVE",
"411 451 OFFCURVE",
"447 412 OFFCURVE",
"467 359 OFFCURVE",
"467 329 QCURVE SMOOTH",
"467 299 OFFCURVE",
"447 246 OFFCURVE",
"411 207 OFFCURVE",
"360 184 OFFCURVE",
"329 184 QCURVE SMOOTH",
"298 184 OFFCURVE",
"247 207 OFFCURVE",
"211 246 OFFCURVE",
"191 299 OFFCURVE",
"191 329 QCURVE SMOOTH",
"191 359 OFFCURVE",
"211 412 OFFCURVE",
"247 451 OFFCURVE",
"298 474 OFFCURVE",
"329 474 QCURVE SMOOTH"
);
}
);
width = 655;
},
{
layerId = "A901A9D0-A2D8-4DE6-ABBE-EA4AB0B05523";
paths = (
{
closed = 1;
nodes = (
"578 624 LINE",
"484 531 LINE",
"452 556 OFFCURVE",
"374 582 OFFCURVE",
"330 582 QCURVE SMOOTH",
"288 582 OFFCURVE",
"208 556 OFFCURVE",
"174 530 QCURVE",
"79 624 LINE",
"30 574 LINE",
"124 481 LINE",
"98 444 OFFCURVE",
"76 375 OFFCURVE",
"76 328 QCURVE SMOOTH",
"76 280 OFFCURVE",
"101 206 OFFCURVE",
"127 174 QCURVE",
"30 77 LINE",
"79 27 LINE",
"177 123 LINE",
"212 98 OFFCURVE",
"288 74 OFFCURVE",
"330 74 QCURVE SMOOTH",
"372 74 OFFCURVE",
"448 98 OFFCURVE",
"483 122 QCURVE",
"579 27 LINE",
"629 77 LINE",
"534 171 LINE",
"559 205 OFFCURVE",
"586 282 OFFCURVE",
"586 328 QCURVE SMOOTH",
"586 374 OFFCURVE",
"560 446 OFFCURVE",
"536 483 QCURVE",
"629 574 LINE"
);
},
{
closed = 1;
nodes = (
"369 507 OFFCURVE",
"432 480 OFFCURVE",
"478 432 OFFCURVE",
"503 366 OFFCURVE",
"503 327 QCURVE SMOOTH",
"503 290 OFFCURVE",
"478 225 OFFCURVE",
"432 177 OFFCURVE",
"369 149 OFFCURVE",
"330 149 QCURVE SMOOTH",
"291 149 OFFCURVE",
"227 177 OFFCURVE",
"181 226 OFFCURVE",
"156 291 OFFCURVE",
"156 328 QCURVE SMOOTH",
"156 365 OFFCURVE",
"181 430 OFFCURVE",
"227 479 OFFCURVE",
"291 507 OFFCURVE",
"330 507 QCURVE SMOOTH"
);
}
);
width = 656;
}
);
unicode = 00A4;
},
{
glyphname = yen;
layers = (
{
layerId = "0E77000D-43E9-4C80-9DAA-F2DD3D3A742F";
paths = (
{
closed = 1;
nodes = (
"66 213 LINE",
"66 93 LINE",
"250 93 LINE",
"250 0 LINE",
"442 0 LINE",
"442 93 LINE",
"626 93 LINE",
"626 213 LINE",
"442 213 LINE",
"452 263 LINE",
"626 263 LINE",
"626 383 LINE",
"487 383 LINE",
"696 700 LINE",
"480 700 LINE",
"348 470 LINE",
"216 700 LINE",
"-4 700 LINE",
"204 383 LINE",
"66 383 LINE",
"66 263 LINE",
"240 263 LINE",
"250 213 LINE"
);
}
);
width = 691;
},
{
layerId = "A901A9D0-A2D8-4DE6-ABBE-EA4AB0B05523";
paths = (
{
closed = 1;
nodes = (
"86 213 LINE",
"86 146 LINE",
"271 146 LINE",
"271 0 LINE",
"352 0 LINE",
"352 146 LINE",
"536 146 LINE",
"536 213 LINE",
"354 213 LINE",
"360 303 LINE",
"536 303 LINE",
"536 370 LINE",
"392 370 LINE",
"606 705 LINE",
"511 705 LINE",
"314 372 LINE",
"115 705 LINE",
"17 705 LINE",
"231 370 LINE",
"86 370 LINE",
"86 303 LINE",
"262 303 LINE",
"272 213 LINE"
);
}
);
width = 622;
}
);
unicode = 00A5;
},
{
glyphname = brokenbar;
layers = (
{
layerId = "0E77000D-43E9-4C80-9DAA-F2DD3D3A742F";
paths = (
{
closed = 1;
nodes = (
"93 667 LINE",
"93 321 LINE",
"260 321 LINE",
"260 667 LINE"
);
},
{
closed = 1;
nodes = (
"93 173 LINE",
"93 -173 LINE",
"260 -173 LINE",
"260 173 LINE"
);
}
);
width = 354;
},
{
layerId = "A901A9D0-A2D8-4DE6-ABBE-EA4AB0B05523";
paths = (
{
closed = 1;
nodes = (
"90 681 LINE",
"90 328 LINE",
"166 328 LINE",
"166 681 LINE"
);
},
{
closed = 1;
nodes = (
"90 173 LINE",
"90 -174 LINE",
"166 -174 LINE",
"166 173 LINE"
);
}
);
width = 256;
}
);
unicode = 00A6;
},
{
glyphname = section;
layers = (
{
layerId = "0E77000D-43E9-4C80-9DAA-F2DD3D3A742F";
paths = (
{
closed = 1;
nodes = (
"476 681 LINE",
"441 697 OFFCURVE",
"362 713 OFFCURVE",
"316 713 QCURVE SMOOTH",
"258 713 OFFCURVE",
"172 688 OFFCURVE",
"114 644 OFFCURVE",
"85 585 OFFCURVE",
"85 552 QCURVE SMOOTH",
"85 521 OFFCURVE",
"110 468 OFFCURVE",
"133 451 QCURVE",
"92 437 OFFCURVE",
"41 382 OFFCURVE",
"41 345 QCURVE SMOOTH",
"41 314 OFFCURVE",
"78 266 OFFCURVE",
"140 229 OFFCURVE",
"224 203 OFFCURVE",
"270 194 QCURVE SMOOTH",
"321 183 OFFCURVE",
"366 160 OFFCURVE",
"366 146 QCURVE SMOOTH",
"366 132 OFFCURVE",
"341 116 OFFCURVE",
"312 116 QCURVE SMOOTH",
"272 116 OFFCURVE",
"187 148 OFFCURVE",
"149 175 QCURVE",
"149 18 LINE",
"183 4 OFFCURVE",
"265 -13 OFFCURVE",
"309 -13 QCURVE SMOOTH",
"367 -13 OFFCURVE",
"453 13 OFFCURVE",
"510 57 OFFCURVE",
"539 116 OFFCURVE",
"539 149 QCURVE SMOOTH",
"539 180 OFFCURVE",
"514 232 OFFCURVE",
"492 249 QCURVE",
"532 263 OFFCURVE",
"583 317 OFFCURVE",
"583 355 QCURVE SMOOTH",
"583 388 OFFCURVE",
"547 435 OFFCURVE",
"484 470 OFFCURVE",
"402 495 OFFCURVE",
"355 506 QCURVE SMOOTH",
"328 512 OFFCURVE",
"292 524 OFFCURVE",
"269 535 OFFCURVE",
"259 547 OFFCURVE",
"259 554 QCURVE SMOOTH",
"259 568 OFFCURVE",
"284 584 OFFCURVE",
"312 584 QCURVE SMOOTH",
"354 584 OFFCURVE",
"438 552 OFFCURVE",
"476 525 QCURVE"
);
},
{
closed = 1;
nodes = (
"437 317 OFFCURVE",
"409 297 OFFCURVE",
"386 297 QCURVE SMOOTH",
"368 297 OFFCURVE",
"301 306 OFFCURVE",
"235 324 OFFCURVE",
"187 352 OFFCURVE",
"187 371 QCURVE SMOOTH",
"187 387 OFFCURVE",
"215 403 OFFCURVE",
"238 403 QCURVE SMOOTH",
"257 403 OFFCURVE",
"324 392 OFFCURVE",
"389 373 OFFCURVE",
"437 347 OFFCURVE",
"437 332 QCURVE SMOOTH"
);
}
);
width = 622;
},
{
layerId = "A901A9D0-A2D8-4DE6-ABBE-EA4AB0B05523";
paths = (
{
closed = 1;
nodes = (
"457 668 LINE",
"427 693 OFFCURVE",
"345 722 OFFCURVE",
"296 722 QCURVE SMOOTH",
"257 722 OFFCURVE",
"191 702 OFFCURVE",
"141 666 OFFCURVE",
"113 615 OFFCURVE",
"113 584 QCURVE SMOOTH",
"113 544 OFFCURVE",
"157 484 OFFCURVE",
"186 464 QCURVE",
"125 450 OFFCURVE",
"62 385 OFFCURVE",
"62 334 QCURVE SMOOTH",
"62 309 OFFCURVE",
"80 265 OFFCURVE",
"122 225 OFFCURVE",
"192 189 OFFCURVE",
"244 173 QCURVE SMOOTH",
"319 150 OFFCURVE",
"401 94 OFFCURVE",
"401 59 QCURVE SMOOTH",
"401 21 OFFCURVE",
"346 -18 OFFCURVE",
"299 -18 QCURVE SMOOTH",
"250 -18 OFFCURVE",
"163 17 OFFCURVE",
"129 55 QCURVE",
"129 -25 LINE",
"161 -53 OFFCURVE",
"245 -86 OFFCURVE",
"298 -86 QCURVE SMOOTH",
"338 -86 OFFCURVE",
"406 -65 OFFCURVE",
"455 -26 OFFCURVE",
"483 29 OFFCURVE",
"483 62 QCURVE SMOOTH",
"483 96 OFFCURVE",
"447 153 OFFCURVE",
"412 179 QCURVE",
"470 194 OFFCURVE",
"533 256 OFFCURVE",
"533 309 QCURVE SMOOTH",
"533 333 OFFCURVE",
"519 374 OFFCURVE",
"478 412 OFFCURVE",
"405 450 OFFCURVE",
"346 470 QCURVE SMOOTH",
"302 485 OFFCURVE",
"244 514 OFFCURVE",
"209 543 OFFCURVE",
"195 570 OFFCURVE",
"195 583 QCURVE SMOOTH",
"195 619 OFFCURVE",
"255 654 OFFCURVE",
"302 654 QCURVE SMOOTH",
"348 654 OFFCURVE",
"419 620 OFFCURVE",
"457 588 QCURVE"
);
},
{
closed = 1;
nodes = (
"456 257 OFFCURVE",
"403 218 OFFCURVE",
"358 218 QCURVE",
"309 225 OFFCURVE",
"228 249 OFFCURVE",
"171 282 OFFCURVE",
"139 322 OFFCURVE",
"139 345 QCURVE SMOOTH",
"139 380 OFFCURVE",
"195 419 OFFCURVE",
"240 424 QCURVE",
"263 420 OFFCURVE",
"336 399 OFFCURVE",
"406 364 OFFCURVE",
"456 317 OFFCURVE",
"456 287 QCURVE SMOOTH"
);
}
);
width = 594;
}
);
unicode = 00A7;
},
{
glyphname = dieresis;
layers = (
{
layerId = "0E77000D-43E9-4C80-9DAA-F2DD3D3A742F";
paths = (
{
closed = 1;
nodes = (
"-42 620 OFFCURVE",
"9 576 OFFCURVE",
"46 576 QCURVE SMOOTH",
"83 576 OFFCURVE",
"134 620 OFFCURVE",
"134 662 QCURVE SMOOTH",
"134 704 OFFCURVE",
"83 747 OFFCURVE",
"46 747 QCURVE SMOOTH",
"9 747 OFFCURVE",
"-42 704 OFFCURVE",
"-42 662 QCURVE SMOOTH"
);
},
{
closed = 1;
nodes = (
"184 620 OFFCURVE",
"235 576 OFFCURVE",
"272 576 QCURVE SMOOTH",
"309 576 OFFCURVE",
"360 620 OFFCURVE",
"360 662 QCURVE SMOOTH",
"360 704 OFFCURVE",
"309 747 OFFCURVE",
"272 747 QCURVE SMOOTH",
"235 747 OFFCURVE",
"184 704 OFFCURVE",
"184 662 QCURVE SMOOTH"
);
}
);
width = 319;
},
{
layerId = "A901A9D0-A2D8-4DE6-ABBE-EA4AB0B05523";
paths = (
{
closed = 1;
nodes = (
"7 538 OFFCURVE",
"40 504 OFFCURVE",
"66 504 QCURVE SMOOTH",
"90 504 OFFCURVE",
"126 538 OFFCURVE",
"126 563 QCURVE SMOOTH",
"126 587 OFFCURVE",
"90 622 OFFCURVE",
"66 622 QCURVE SMOOTH",
"40 622 OFFCURVE",
"7 587 OFFCURVE",
"7 563 QCURVE SMOOTH"
);
},
{
closed = 1;
nodes = (
"199 538 OFFCURVE",
"232 504 OFFCURVE",
"256 504 QCURVE SMOOTH",
"282 504 OFFCURVE",
"315 538 OFFCURVE",
"315 563 QCURVE SMOOTH",
"315 587 OFFCURVE",
"282 622 OFFCURVE",
"256 622 QCURVE SMOOTH",
"232 622 OFFCURVE",
"199 587 OFFCURVE",
"199 563 QCURVE SMOOTH"
);
}
);
width = 323;
}
);
unicode = 00A8;
},
{
glyphname = copyright;
layers = (
{
layerId = "0E77000D-43E9-4C80-9DAA-F2DD3D3A742F";
paths = (
{
closed = 1;
nodes = (
"468 -14 OFFCURVE",
"601 45 OFFCURVE",
"699 146 OFFCURVE",
"755 279 OFFCURVE",
"755 353 QCURVE SMOOTH",
"755 427 OFFCURVE",
"699 558 OFFCURVE",
"602 656 OFFCURVE",
"470 714 OFFCURVE",
"394 714 QCURVE SMOOTH",
"318 714 OFFCURVE",
"185 656 OFFCURVE",
"87 556 OFFCURVE",
"31 425 OFFCURVE",
"31 351 QCURVE SMOOTH",
"31 277 OFFCURVE",
"87 144 OFFCURVE",
"184 44 OFFCURVE",
"316 -14 OFFCURVE",
"392 -14 QCURVE SMOOTH"
);
},
{
closed = 1;
nodes = (
"324 26 OFFCURVE",
"207 78 OFFCURVE",
"122 166 OFFCURVE",
"73 284 OFFCURVE",
"73 351 QCURVE SMOOTH",
"73 417 OFFCURVE",
"122 534 OFFCURVE",
"208 623 OFFCURVE",
"325 674 OFFCURVE",
"394 674 QCURVE SMOOTH",
"462 674 OFFCURVE",
"579 623 OFFCURVE",
"665 536 OFFCURVE",
"713 419 OFFCURVE",
"713 353 QCURVE SMOOTH",
"713 286 OFFCURVE",
"664 167 OFFCURVE",
"578 78 OFFCURVE",
"461 26 OFFCURVE",
"392 26 QCURVE SMOOTH"
);
},
{
closed = 1;
nodes = (
"505 304 LINE",
"489 290 OFFCURVE",
"444 268 OFFCURVE",
"415 268 QCURVE SMOOTH",
"398 268 OFFCURVE",
"366 281 OFFCURVE",
"342 305 OFFCURVE",
"328 337 OFFCURVE",
"328 355 QCURVE SMOOTH",
"328 373 OFFCURVE",
"342 404 OFFCURVE",
"366 428 OFFCURVE",
"399 441 OFFCURVE",
"418 441 QCURVE SMOOTH",
"444 441 OFFCURVE",
"486 419 OFFCURVE",
"502 405 QCURVE",
"502 534 LINE",
"483 544 OFFCURVE",
"438 554 OFFCURVE",
"413 554 QCURVE SMOOTH",
"368 554 OFFCURVE",
"289 522 OFFCURVE",
"230 467 OFFCURVE",
"197 395 OFFCURVE",
"197 355 QCURVE SMOOTH",
"197 315 OFFCURVE",
"231 242 OFFCURVE",
"288 187 OFFCURVE",
"364 155 OFFCURVE",
"407 155 QCURVE SMOOTH",
"438 155 OFFCURVE",
"487 170 OFFCURVE",
"505 178 QCURVE"
);
}
);
width = 786;
},
{
layerId = "A901A9D0-A2D8-4DE6-ABBE-EA4AB0B05523";
paths = (
{
closed = 1;
nodes = (
"516 -63 OFFCURVE",
"658 -2 OFFCURVE",
"764 105 OFFCURVE",
"825 249 OFFCURVE",
"825 331 QCURVE SMOOTH",
"825 413 OFFCURVE",
"763 557 OFFCURVE",
"657 664 OFFCURVE",
"514 726 OFFCURVE",
"434 726 QCURVE SMOOTH",
"354 726 OFFCURVE",
"212 664 OFFCURVE",
"106 557 OFFCURVE",
"44 415 OFFCURVE",
"44 335 QCURVE SMOOTH",
"44 252 OFFCURVE",
"104 107 OFFCURVE",
"210 -1 OFFCURVE",
"353 -63 OFFCURVE",
"435 -63 QCURVE SMOOTH"
);
},
{
closed = 1;
nodes = (
"367 6 OFFCURVE",
"248 58 OFFCURVE",
"160 146 OFFCURVE",
"109 266 OFFCURVE",
"109 333 QCURVE SMOOTH",
"109 400 OFFCURVE",
"160 518 OFFCURVE",
"249 606 OFFCURVE",
"368 657 OFFCURVE",
"435 657 QCURVE SMOOTH",
"502 657 OFFCURVE",
"620 606 OFFCURVE",
"709 517 OFFCURVE",
"760 399 OFFCURVE",
"760 331 QCURVE SMOOTH",
"760 264 OFFCURVE",
"709 145 OFFCURVE",
"620 57 OFFCURVE",
"502 6 OFFCURVE",
"435 6 QCURVE SMOOTH"
);
},
{
closed = 1;
nodes = (
"566 231 LINE",
"531 199 OFFCURVE",
"468 178 OFFCURVE",
"443 178 QCURVE SMOOTH",
"410 178 OFFCURVE",
"357 203 OFFCURVE",
"320 247 OFFCURVE",
"300 305 OFFCURVE",
"300 339 QCURVE SMOOTH",
"300 372 OFFCURVE",
"321 429 OFFCURVE",
"359 471 OFFCURVE",
"410 495 OFFCURVE",
"440 495 QCURVE SMOOTH",
"475 495 OFFCURVE",
"543 466 OFFCURVE",
"568 441 QCURVE",
"568 522 LINE",
"548 538 OFFCURVE",
"479 567 OFFCURVE",
"434 567 QCURVE SMOOTH",
"385 567 OFFCURVE",
"305 532 OFFCURVE",
"249 471 OFFCURVE",
"218 388 OFFCURVE",
"218 339 QCURVE SMOOTH",
"218 290 OFFCURVE",
"249 204 OFFCURVE",
"306 142 OFFCURVE",
"384 106 OFFCURVE",
"432 106 QCURVE SMOOTH",
"474 106 OFFCURVE",
"539 133 OFFCURVE",
"566 157 QCURVE"
);
}
);
width = 865;
}
);
unicode = 00A9;
},
{
glyphname = ordfeminine;
layers = (
{
layerId = "0E77000D-43E9-4C80-9DAA-F2DD3D3A742F";
paths = (
{
closed = 1;
nodes = (
"166 397 OFFCURVE",
"209 418 OFFCURVE",
"224 435 QCURVE",
"224 403 LINE",
"328 403 LINE",
"328 573 LINE SMOOTH",
"328 638 OFFCURVE",
"259 705 OFFCURVE",
"182 705 QCURVE SMOOTH",
"146 705 OFFCURVE",
"88 693 OFFCURVE",
"62 682 QCURVE",
"83 608 LINE",
"103 616 OFFCURVE",
"144 625 OFFCURVE",
"165 625 QCURVE SMOOTH",
"196 625 OFFCURVE",
"225 599 OFFCURVE",
"225 576 QCURVE SMOOTH",
"225 572 LINE",
"212 577 OFFCURVE",
"175 583 OFFCURVE",
"154 583 QCURVE SMOOTH",
"101 583 OFFCURVE",
"37 537 OFFCURVE",
"37 490 QCURVE SMOOTH",
"37 468 OFFCURVE",
"52 433 OFFCURVE",
"79 409 OFFCURVE",
"116 397 OFFCURVE",
"137 397 QCURVE SMOOTH"
);
},
{
closed = 1;
nodes = (
"34 270 LINE",
"333 270 LINE",
"333 347 LINE",
"34 347 LINE"
);
},
{
closed = 1;
nodes = (
"158 463 OFFCURVE",
"138 482 OFFCURVE",
"138 497 QCURVE SMOOTH",
"138 513 OFFCURVE",
"163 533 OFFCURVE",
"185 533 QCURVE SMOOTH",
"197 533 OFFCURVE",
"218 528 OFFCURVE",
"226 525 QCURVE",
"226 512 LINE SMOOTH",
"226 489 OFFCURVE",
"193 463 OFFCURVE",
"174 463 QCURVE SMOOTH"
);
}
);
width = 370;
},
{
layerId = "A901A9D0-A2D8-4DE6-ABBE-EA4AB0B05523";
paths = (
{
closed = 1;
nodes = (
"174 412 OFFCURVE",
"224 438 OFFCURVE",
"241 460 QCURVE",
"241 418 LINE",
"292 418 LINE",
"292 592 LINE SMOOTH",
"292 652 OFFCURVE",
"222 709 OFFCURVE",
"168 709 QCURVE SMOOTH",
"139 709 OFFCURVE",
"85 694 OFFCURVE",
"63 683 QCURVE",
"79 639 LINE",
"98 650 OFFCURVE",
"140 662 OFFCURVE",
"163 662 QCURVE SMOOTH",
"199 662 OFFCURVE",
"241 628 OFFCURVE",
"241 592 QCURVE SMOOTH",
"241 584 LINE",
"221 590 OFFCURVE",
"186 598 OFFCURVE",
"161 598 QCURVE SMOOTH",
"107 598 OFFCURVE",
"39 551 OFFCURVE",
"39 502 QCURVE SMOOTH",
"39 480 OFFCURVE",
"58 446 OFFCURVE",
"88 424 OFFCURVE",
"125 412 OFFCURVE",
"144 412 QCURVE SMOOTH"
);
},
{
closed = 1;
nodes = (
"35 291 LINE",
"297 291 LINE",
"297 338 LINE",
"35 338 LINE"
);
},
{
closed = 1;
nodes = (
"128 454 OFFCURVE",
"90 479 OFFCURVE",
"90 505 QCURVE SMOOTH",
"90 531 OFFCURVE",
"130 560 OFFCURVE",
"166 560 QCURVE SMOOTH",
"189 560 OFFCURVE",
"226 552 OFFCURVE",
"241 545 QCURVE",
"241 524 LINE SMOOTH",
"241 492 OFFCURVE",
"190 454 OFFCURVE",
"155 454 QCURVE SMOOTH"
);
}
);
width = 340;
}
);
unicode = 00AA;
},
{
glyphname = guillemotleft;
layers = (
{
layerId = "0E77000D-43E9-4C80-9DAA-F2DD3D3A742F";
paths = (
{
closed = 1;
nodes = (
"212 268 LINE",
"342 439 LINE",
"201 500 LINE",
"27 268 LINE",
"200 37 LINE",
"342 98 LINE"
);
},
{
closed = 1;
nodes = (
"487 268 LINE",
"617 439 LINE",
"476 500 LINE",
"302 268 LINE",
"475 37 LINE",
"617 98 LINE"
);
}
);
width = 640;
},
{
layerId = "A901A9D0-A2D8-4DE6-ABBE-EA4AB0B05523";
paths = (
{
closed = 1;
nodes = (
"121 249 LINE",
"251 433 LINE",
"182 457 LINE",
"30 246 LINE",
"182 39 LINE",
"249 68 LINE"
);
},
{
closed = 1;
nodes = (
"330 249 LINE",
"460 433 LINE",
"391 457 LINE",
"239 246 LINE",
"391 39 LINE",
"458 68 LINE"
);
}
);
width = 484;
}
);
unicode = 00AB;
},
{
glyphname = logicalnot;
layers = (
{
layerId = "0E77000D-43E9-4C80-9DAA-F2DD3D3A742F";
paths = (
{
closed = 1;
nodes = (
"570 415 LINE",
"42 415 LINE",
"42 276 LINE",
"423 276 LINE",
"423 124 LINE",
"570 124 LINE"
);
}
);
width = 612;
},
{
layerId = "A901A9D0-A2D8-4DE6-ABBE-EA4AB0B05523";
paths = (
{
closed = 1;
nodes = (
"554 411 LINE",
"42 411 LINE",
"42 340 LINE",
"485 340 LINE",
"485 129 LINE",
"554 129 LINE"
);
}
);
width = 596;
}
);
unicode = 00AC;
},
{
glyphname = registered;
layers = (
{
layerId = "0E77000D-43E9-4C80-9DAA-F2DD3D3A742F";
paths = (
{
closed = 1;
nodes = (
"59 275 OFFCURVE",
"115 143 OFFCURVE",
"212 44 OFFCURVE",
"344 -14 OFFCURVE",
"420 -14 QCURVE SMOOTH",
"496 -14 OFFCURVE",
"629 44 OFFCURVE",
"727 144 OFFCURVE",
"783 276 OFFCURVE",
"783 350 QCURVE SMOOTH",
"783 425 OFFCURVE",
"727 557 OFFCURVE",
"630 656 OFFCURVE",
"498 714 OFFCURVE",
"422 714 QCURVE SMOOTH",
"346 714 OFFCURVE",
"213 656 OFFCURVE",
"115 556 OFFCURVE",
"59 424 OFFCURVE",
"59 350 QCURVE SMOOTH"
);
},
{
closed = 1;
nodes = (
"101 415 OFFCURVE",
"150 534 OFFCURVE",
"236 622 OFFCURVE",
"353 674 OFFCURVE",
"422 674 QCURVE SMOOTH",
"490 674 OFFCURVE",
"607 623 OFFCURVE",
"693 536 OFFCURVE",
"741 418 OFFCURVE",
"741 352 QCURVE SMOOTH",
"741 285 OFFCURVE",
"692 166 OFFCURVE",
"606 78 OFFCURVE",
"489 26 OFFCURVE",
"420 26 QCURVE SMOOTH",
"352 26 OFFCURVE",
"235 77 OFFCURVE",
"150 164 OFFCURVE",
"101 282 OFFCURVE",
"101 348 QCURVE SMOOTH"
);
},
{
closed = 1;
nodes = (
"262 168 LINE",
"369 168 LINE",
"369 285 LINE",
"416 285 LINE",
"494 168 LINE",
"617 168 LINE",
"525 302 LINE",
"543 310 OFFCURVE",
"572 333 OFFCURVE",
"593 363 OFFCURVE",
"604 399 OFFCURVE",
"604 420 QCURVE SMOOTH",
"604 449 OFFCURVE",
"584 498 OFFCURVE",
"543 533 OFFCURVE",
"482 553 OFFCURVE",
"441 553 QCURVE SMOOTH",
"262 553 LINE"
);
},
{
closed = 1;
nodes = (
"369 368 LINE",
"369 461 LINE",
"438 461 LINE SMOOTH",
"465 461 OFFCURVE",
"497 435 OFFCURVE",
"497 415 QCURVE SMOOTH",
"497 395 OFFCURVE",
"466 368 OFFCURVE",
"439 368 QCURVE SMOOTH"
);
}
);
width = 842;
},
{
layerId = "A901A9D0-A2D8-4DE6-ABBE-EA4AB0B05523";
paths = (
{
closed = 1;
nodes = (
"43 298 OFFCURVE",
"100 167 OFFCURVE",
"198 70 OFFCURVE",
"330 13 OFFCURVE",
"405 13 QCURVE SMOOTH",
"477 13 OFFCURVE",
"608 70 OFFCURVE",
"706 168 OFFCURVE",
"764 298 OFFCURVE",
"764 371 QCURVE SMOOTH",
"764 444 OFFCURVE",
"707 573 OFFCURVE",
"610 670 OFFCURVE",
"481 726 OFFCURVE",
"408 726 QCURVE SMOOTH",
"332 726 OFFCURVE",
"199 671 OFFCURVE",
"100 575 OFFCURVE",
"43 445 OFFCURVE",
"43 371 QCURVE SMOOTH"
);
},
{
closed = 1;
nodes = (
"107 433 OFFCURVE",
"154 540 OFFCURVE",
"235 619 OFFCURVE",
"344 665 OFFCURVE",
"407 665 QCURVE SMOOTH",
"467 665 OFFCURVE",
"573 619 OFFCURVE",
"653 539 OFFCURVE",
"700 432 OFFCURVE",
"700 372 QCURVE SMOOTH",
"700 312 OFFCURVE",
"654 203 OFFCURVE",
"574 122 OFFCURVE",
"466 74 OFFCURVE",
"405 74 QCURVE SMOOTH",
"342 74 OFFCURVE",
"233 121 OFFCURVE",
"153 202 OFFCURVE",
"107 310 OFFCURVE",
"107 371 QCURVE SMOOTH"
);
},
{
closed = 1;
nodes = (
"275 157 LINE",
"346 157 LINE",
"346 338 LINE",
"359 338 LINE",
"501 157 LINE",
"585 157 LINE",
"434 346 LINE",
"455 350 OFFCURVE",
"494 371 OFFCURVE",
"524 402 OFFCURVE",
"541 444 OFFCURVE",
"541 468 QCURVE SMOOTH",
"541 495 OFFCURVE",
"521 538 OFFCURVE",
"487 568 OFFCURVE",
"442 584 OFFCURVE",
"416 584 QCURVE SMOOTH",
"275 584 LINE"
);
},
{
closed = 1;
nodes = (
"346 403 LINE",
"346 523 LINE",
"402 523 LINE SMOOTH",
"440 523 OFFCURVE",
"477 485 OFFCURVE",
"477 462 QCURVE SMOOTH",
"477 434 OFFCURVE",
"432 403 OFFCURVE",
"400 403 QCURVE SMOOTH"
);
}
);
width = 807;
}
);
unicode = 00AE;
},
{
glyphname = degree;
layers = (
{
layerId = "0E77000D-43E9-4C80-9DAA-F2DD3D3A742F";
paths = (
{
closed = 1;
nodes = (
"390 566 OFFCURVE",
"360 631 OFFCURVE",
"310 679 OFFCURVE",
"244 707 OFFCURVE",
"208 707 QCURVE SMOOTH",
"172 707 OFFCURVE",
"106 679 OFFCURVE",
"56 631 OFFCURVE",
"26 566 OFFCURVE",
"26 530 QCURVE SMOOTH",
"26 494 OFFCURVE",
"55 429 OFFCURVE",
"105 380 OFFCURVE",
"171 352 OFFCURVE",
"208 352 QCURVE SMOOTH",
"245 352 OFFCURVE",
"311 380 OFFCURVE",
"361 429 OFFCURVE",
"390 494 OFFCURVE",
"390 530 QCURVE SMOOTH"
);
},
{
closed = 1;
nodes = (
"292 495 OFFCURVE",
"244 444 OFFCURVE",
"208 444 QCURVE SMOOTH",
"172 444 OFFCURVE",
"124 495 OFFCURVE",
"124 530 QCURVE SMOOTH",
"124 548 OFFCURVE",
"137 579 OFFCURVE",
"160 602 OFFCURVE",
"190 615 OFFCURVE",
"208 615 QCURVE SMOOTH",
"243 615 OFFCURVE",
"292 565 OFFCURVE",
"292 530 QCURVE SMOOTH"
);
}
);
width = 418;
},
{
layerId = "A901A9D0-A2D8-4DE6-ABBE-EA4AB0B05523";
paths = (
{
closed = 1;
nodes = (
"325 598 OFFCURVE",
"302 651 OFFCURVE",
"262 690 OFFCURVE",
"208 713 OFFCURVE",
"177 713 QCURVE SMOOTH",
"147 713 OFFCURVE",
"94 690 OFFCURVE",
"53 649 OFFCURVE",
"29 596 OFFCURVE",
"29 566 QCURVE SMOOTH",
"29 536 OFFCURVE",
"53 483 OFFCURVE",
"93 444 OFFCURVE",
"147 421 OFFCURVE",
"177 421 QCURVE SMOOTH",
"207 421 OFFCURVE",
"261 444 OFFCURVE",
"302 483 OFFCURVE",
"325 537 OFFCURVE",
"325 567 QCURVE SMOOTH"
);
},
{
closed = 1;
nodes = (
"268 526 OFFCURVE",
"215 475 OFFCURVE",
"177 475 QCURVE SMOOTH",
"138 475 OFFCURVE",
"86 529 OFFCURVE",
"86 567 QCURVE SMOOTH",
"86 585 OFFCURVE",
"100 618 OFFCURVE",
"125 644 OFFCURVE",
"158 659 OFFCURVE",
"177 659 QCURVE SMOOTH",
"215 659 OFFCURVE",
"268 605 OFFCURVE",
"268 567 QCURVE SMOOTH"
);
}
);
width = 350;
}
);
unicode = 00B0;
},
{
glyphname = plusminus;
layers = (
{
layerId = "0E77000D-43E9-4C80-9DAA-F2DD3D3A742F";
paths = (
{
closed = 1;
nodes = (
"42 323 LINE",
"214 323 LINE",
"214 173 LINE",
"347 173 LINE",
"347 323 LINE",
"516 323 LINE",
"516 452 LINE",
"347 452 LINE",
"347 596 LINE",
"214 596 LINE",
"214 452 LINE",
"42 452 LINE"
);
},
{
closed = 1;
nodes = (
"42 0 LINE",
"516 0 LINE",
"516 129 LINE",
"42 129 LINE"
);
}
);
width = 557;
},
{
layerId = "A901A9D0-A2D8-4DE6-ABBE-EA4AB0B05523";
paths = (
{
closed = 1;
nodes = (
"42 339 LINE",
"256 339 LINE",
"256 181 LINE",
"325 181 LINE",
"325 339 LINE",
"539 339 LINE",
"539 409 LINE",
"325 409 LINE",
"325 573 LINE",
"256 573 LINE",
"256 409 LINE",
"42 409 LINE"
);
},
{
closed = 1;
nodes = (
"42 34 LINE",
"539 34 LINE",
"539 104 LINE",
"42 104 LINE"
);
}
);
width = 581;
}
);
unicode = 00B1;
},
{
glyphname = acute;
layers = (
{
layerId = "0E77000D-43E9-4C80-9DAA-F2DD3D3A742F";
paths = (
{
closed = 1;
nodes = (
"348 715 LINE",
"171 772 LINE",
"67 587 LINE",
"201 587 LINE"
);
}
);
width = 338;
},
{
layerId = "A901A9D0-A2D8-4DE6-ABBE-EA4AB0B05523";
paths = (
{
closed = 1;
nodes = (
"293 692 LINE",
"197 712 LINE",
"106 563 LINE",
"165 563 LINE"
);
}
);
width = 307;
}
);
unicode = 00B4;
},
{
glyphname = paragraph;
layers = (
{
layerId = "0E77000D-43E9-4C80-9DAA-F2DD3D3A742F";
paths = (
{
closed = 1;
nodes = (
"329 -113 LINE",
"329 604 LINE",
"391 604 LINE",
"391 -113 LINE",
"503 -113 LINE",
"503 604 LINE",
"558 604 LINE",
"558 706 LINE",
"260 706 LINE SMOOTH",
"149 706 OFFCURVE",
"30 595 OFFCURVE",
"30 502 QCURVE SMOOTH",
"30 461 OFFCURVE",
"58 393 OFFCURVE",
"108 343 OFFCURVE",
"177 313 OFFCURVE",
"217 308 QCURVE",
"217 -113 LINE"
);
}
);
width = 628;
},
{
layerId = "A901A9D0-A2D8-4DE6-ABBE-EA4AB0B05523";
paths = (
{
closed = 1;
nodes = (
"288 -104 LINE",
"288 625 LINE",
"383 625 LINE",
"383 -104 LINE",
"462 -104 LINE",
"462 625 LINE",
"495 625 LINE",
"539 706 LINE",
"233 706 LINE SMOOTH",
"142 706 OFFCURVE",
"36 617 OFFCURVE",
"36 532 QCURVE SMOOTH",
"36 486 OFFCURVE",
"66 426 OFFCURVE",
"114 389 OFFCURVE",
"176 368 OFFCURVE",
"209 361 QCURVE",
"209 -104 LINE"
);
}
);
width = 629;
}
);
unicode = 00B6;
},
{
glyphname = cedilla;
layers = (
{
layerId = "0E77000D-43E9-4C80-9DAA-F2DD3D3A742F";
paths = (
{
closed = 1;
nodes = (
"221 25 LINE",
"151 25 LINE",
"81 -85 LINE",
"112 -111 LINE",
"124 -106 OFFCURVE",
"146 -101 OFFCURVE",
"157 -101 QCURVE SMOOTH",
"175 -101 OFFCURVE",
"196 -114 OFFCURVE",
"196 -126 QCURVE SMOOTH",
"196 -134 OFFCURVE",
"185 -145 OFFCURVE",
"169 -152 OFFCURVE",
"151 -155 OFFCURVE",
"143 -155 QCURVE SMOOTH",
"129 -155 OFFCURVE",
"91 -148 OFFCURVE",
"71 -139 QCURVE",
"45 -195 LINE",
"71 -208 OFFCURVE",
"127 -221 OFFCURVE",
"153 -221 QCURVE SMOOTH",
"174 -221 OFFCURVE",
"218 -212 OFFCURVE",
"255 -189 OFFCURVE",
"279 -152 OFFCURVE",
"279 -125 QCURVE SMOOTH",
"279 -104 OFFCURVE",
"263 -74 OFFCURVE",
"236 -53 OFFCURVE",
"204 -43 OFFCURVE",
"187 -43 QCURVE SMOOTH",
"179 -43 LINE"
);
}
);
width = 324;
},
{
layerId = "A901A9D0-A2D8-4DE6-ABBE-EA4AB0B05523";
paths = (
{
closed = 1;
nodes = (
"219 4 LINE",
"154 4 LINE",
"94 -84 LINE",
"111 -97 LINE",
"120 -93 OFFCURVE",
"134 -90 OFFCURVE",
"142 -90 QCURVE SMOOTH",
"160 -90 OFFCURVE",
"183 -105 OFFCURVE",
"183 -121 QCURVE SMOOTH",
"183 -134 OFFCURVE",
"169 -151 OFFCURVE",
"149 -162 OFFCURVE",
"127 -166 OFFCURVE",
"118 -166 QCURVE SMOOTH",
"107 -166 OFFCURVE",
"83 -161 OFFCURVE",
"69 -156 QCURVE",
"58 -197 LINE",
"77 -206 OFFCURVE",
"117 -217 OFFCURVE",
"141 -217 QCURVE SMOOTH",
"160 -217 OFFCURVE",
"202 -208 OFFCURVE",
"238 -187 OFFCURVE",
"261 -155 OFFCURVE",
"261 -131 QCURVE SMOOTH",
"261 -112 OFFCURVE",
"245 -86 OFFCURVE",
"221 -72 OFFCURVE",
"193 -66 OFFCURVE",
"181 -66 QCURVE SMOOTH",
"178 -66 LINE"
);
}
);
width = 337;
}
);
unicode = 00B8;
},
{
glyphname = ordmasculine;
layers = (
{
layerId = "0E77000D-43E9-4C80-9DAA-F2DD3D3A742F";
paths = (
{
closed = 1;
nodes = (
"223 395 OFFCURVE",
"283 420 OFFCURVE",
"327 462 OFFCURVE",
"351 519 OFFCURVE",
"351 551 QCURVE SMOOTH",
"351 583 OFFCURVE",
"327 639 OFFCURVE",
"284 681 OFFCURVE",
"225 705 OFFCURVE",
"190 705 QCURVE SMOOTH",
"155 705 OFFCURVE",
"95 680 OFFCURVE",
"52 638 OFFCURVE",
"27 582 OFFCURVE",
"27 550 QCURVE SMOOTH",
"27 518 OFFCURVE",
"51 462 OFFCURVE",
"94 420 OFFCURVE",
"153 395 OFFCURVE",
"188 395 QCURVE SMOOTH"
);
},
{
closed = 1;
nodes = (
"45 270 LINE",
"333 270 LINE",
"333 347 LINE",
"45 347 LINE"
);
},
{
closed = 1;
nodes = (
"163 484 OFFCURVE",
"129 524 OFFCURVE",
"129 551 QCURVE SMOOTH",
"129 578 OFFCURVE",
"161 616 OFFCURVE",
"188 616 QCURVE SMOOTH",
"215 616 OFFCURVE",
"249 577 OFFCURVE",
"249 550 QCURVE SMOOTH",
"249 523 OFFCURVE",
"217 484 OFFCURVE",
"190 484 QCURVE SMOOTH"
);
}
);
width = 379;
},
{
layerId = "A901A9D0-A2D8-4DE6-ABBE-EA4AB0B05523";
paths = (
{
closed = 1;
nodes = (
"198 410 OFFCURVE",
"252 434 OFFCURVE",
"292 476 OFFCURVE",
"315 532 OFFCURVE",
"315 563 QCURVE SMOOTH",
"315 592 OFFCURVE",
"293 645 OFFCURVE",
"254 686 OFFCURVE",
"200 710 OFFCURVE",
"168 710 QCURVE SMOOTH",
"136 710 OFFCURVE",
"81 686 OFFCURVE",
"41 645 OFFCURVE",
"19 590 OFFCURVE",
"19 559 QCURVE SMOOTH",
"19 529 OFFCURVE",
"41 474 OFFCURVE",
"80 434 OFFCURVE",
"134 410 OFFCURVE",
"166 410 QCURVE SMOOTH"
);
},
{
closed = 1;
nodes = (
"23 291 LINE",
"311 291 LINE",
"311 338 LINE",
"23 338 LINE"
);
},
{
closed = 1;
nodes = (
"127 460 OFFCURVE",
"73 518 OFFCURVE",
"73 563 QCURVE SMOOTH",
"73 601 OFFCURVE",
"123 660 OFFCURVE",
"166 660 QCURVE SMOOTH",
"207 660 OFFCURVE",
"261 603 OFFCURVE",
"261 559 QCURVE SMOOTH",
"261 517 OFFCURVE",
"210 460 OFFCURVE",
"168 460 QCURVE SMOOTH"
);
}
);
width = 334;
}
);
unicode = 00BA;
},
{
glyphname = guillemotright;
layers = (
{
layerId = "0E77000D-43E9-4C80-9DAA-F2DD3D3A742F";
paths = (
{
closed = 1;
nodes = (
"24 98 LINE",
"166 37 LINE",
"339 268 LINE",
"165 500 LINE",
"24 439 LINE",
"154 268 LINE"
);
},
{
closed = 1;
nodes = (
"300 98 LINE",
"442 37 LINE",
"615 268 LINE",
"441 500 LINE",
"300 439 LINE",
"430 268 LINE"
);
}
);
width = 644;
},
{
layerId = "A901A9D0-A2D8-4DE6-ABBE-EA4AB0B05523";
paths = (
{
closed = 1;
nodes = (
"26 68 LINE",
"93 39 LINE",
"245 246 LINE",
"93 457 LINE",
"24 433 LINE",
"154 249 LINE"
);
},
{
closed = 1;
nodes = (
"234 68 LINE",
"301 39 LINE",
"453 246 LINE",
"301 457 LINE",
"232 433 LINE",
"362 249 LINE"
);
}
);
width = 483;
}
);
unicode = 00BB;
},
{
glyphname = onequarter;
layers = (
{
layerId = "0E77000D-43E9-4C80-9DAA-F2DD3D3A742F";
paths = (
{
closed = 1;
nodes = (
"633 167 LINE",
"644 184 OFFCURVE",
"668 217 OFFCURVE",
"691 251 OFFCURVE",
"713 285 OFFCURVE",
"723 303 QCURVE",
"724 302 OFFCURVE",
"725 302 OFFCURVE",
"726 302 QCURVE",
"725 296 LINE SMOOTH",
"723 282 OFFCURVE",
"721 246 OFFCURVE",
"721 210 OFFCURVE",
"722 178 OFFCURVE",
"722 168 QCURVE",
"711 168 OFFCURVE",
"689 168 OFFCURVE",
"678 167 QCURVE",
"667 167 OFFCURVE",
"644 167 OFFCURVE",
"633 166 QCURVE"
);
},
{
closed = 1;
nodes = (
"505 78 LINE",
"559 78 OFFCURVE",
"667 79 OFFCURVE",
"722 80 QCURVE",
"719 0 LINE",
"840 0 LINE",
"838 80 LINE",
"852 79 OFFCURVE",
"879 78 OFFCURVE",
"893 78 QCURVE",
"893 170 LINE",
"840 168 LINE",
"840 427 LINE",
"700 427 LINE",
"505 151 LINE"
);
},
{
closed = 1;
nodes = (
"186 2 LINE",
"270 -14 LINE",
"700 702 LINE",
"617 718 LINE"
);
},
{
closed = 1;
nodes = (
"99 285 LINE",
"227 285 LINE",
"227 708 LINE",
"137 706 LINE",
"122 706 OFFCURVE",
"89 705 OFFCURVE",
"61 704 OFFCURVE",
"39 704 OFFCURVE",
"34 704 QCURVE",
"34 602 LINE",
"53 603 OFFCURVE",
"79 603 OFFCURVE",
"99 604 QCURVE"
);
}
);
width = 931;
},
{
layerId = "A901A9D0-A2D8-4DE6-ABBE-EA4AB0B05523";
paths = (
{
closed = 1;
nodes = (
"471 125 LINE",
"486 148 OFFCURVE",
"520 200 OFFCURVE",
"550 247 OFFCURVE",
"573 282 OFFCURVE",
"577 288 QCURVE",
"577 289 OFFCURVE",
"578 290 OFFCURVE",
"578 290 QCURVE",
"578 284 LINE SMOOTH",
"578 281 OFFCURVE",
"578 248 OFFCURVE",
"578 201 OFFCURVE",
"578 148 OFFCURVE",
"578 125 QCURVE",
"565 125 OFFCURVE",
"536 125 OFFCURVE",
"522 125 QCURVE SMOOTH",
"502 125 OFFCURVE",
"474 125 OFFCURVE",
"473 125 QCURVE"
);
},
{
closed = 1;
nodes = (
"390 70 LINE",
"445 70 OFFCURVE",
"535 70 OFFCURVE",
"578 70 QCURVE",
"578 0 LINE",
"646 0 LINE",
"646 70 LINE",
"653 70 OFFCURVE",
"663 70 OFFCURVE",
"670 70 QCURVE",
"688 125 LINE",
"646 125 LINE",
"646 428 LINE",
"601 428 LINE",
"390 105 LINE"
);
},
{
closed = 1;
nodes = (
"88 -19 LINE",
"135 -49 LINE",
"569 719 LINE",
"517 750 LINE"
);
},
{
closed = 1;
nodes = (
"102 277 LINE",
"170 277 LINE",
"170 705 LINE",
"116 705 LINE",
"111 695 OFFCURVE",
"97 674 OFFCURVE",
"79 653 OFFCURVE",
"58 633 OFFCURVE",
"45 622 QCURVE",
"45 553 LINE",
"58 562 OFFCURVE",
"90 593 OFFCURVE",
"102 610 QCURVE"
);
}
);
width = 725;
}
);
unicode = 00BC;
},
{
glyphname = onehalf;
layers = (
{
layerId = "0E77000D-43E9-4C80-9DAA-F2DD3D3A742F";
paths = (
{
closed = 1;
nodes = (
"87 285 LINE",
"215 285 LINE",
"215 708 LINE",
"113 706 LINE SMOOTH",
"87 705 OFFCURVE",
"36 704 OFFCURVE",
"22 704 QCURVE",
"22 602 LINE",
"35 603 OFFCURVE",
"68 603 OFFCURVE",
"87 604 QCURVE"
);
},
{
closed = 1;
nodes = (
"140 2 LINE",
"224 -14 LINE",
"652 702 LINE",
"570 718 LINE"
);
},
{
closed = 1;
nodes = (
"498 0 LINE",
"881 0 LINE",
"881 101 LINE",
"722 93 LINE",
"773 127 LINE SMOOTH",
"799 144 OFFCURVE",
"838 182 OFFCURVE",
"864 224 OFFCURVE",
"877 268 OFFCURVE",
"877 290 QCURVE SMOOTH",
"877 323 OFFCURVE",
"848 375 OFFCURVE",
"799 412 OFFCURVE",
"736 432 OFFCURVE",
"703 432 QCURVE SMOOTH",
"615 432 OFFCURVE",
"530 348 OFFCURVE",
"523 271 QCURVE",
"651 271 LINE",
"651 292 OFFCURVE",
"672 334 OFFCURVE",
"700 334 QCURVE SMOOTH",
"723 334 OFFCURVE",
"749 307 OFFCURVE",
"749 286 QCURVE SMOOTH",
"749 268 OFFCURVE",
"726 227 OFFCURVE",
"694 188 OFFCURVE",
"660 154 OFFCURVE",
"648 143 QCURVE SMOOTH"
);
}
);
width = 918;
},
{
layerId = "A901A9D0-A2D8-4DE6-ABBE-EA4AB0B05523";
paths = (
{
closed = 1;
nodes = (
"87 277 LINE",
"155 277 LINE",
"155 705 LINE",
"101 705 LINE",
"91 685 OFFCURVE",
"56 643 OFFCURVE",
"30 622 QCURVE",
"30 553 LINE",
"47 567 OFFCURVE",
"75 593 OFFCURVE",
"87 610 QCURVE"
);
},
{
closed = 1;
nodes = (
"63 -19 LINE",
"110 -49 LINE",
"546 719 LINE",
"494 750 LINE"
);
},
{
closed = 1;
nodes = (
"393 1 LINE",
"651 1 LINE",
"682 58 LINE",
"517 58 LINE",
"573 127 LINE SMOOTH",
"603 163 OFFCURVE",
"644 215 OFFCURVE",
"669 257 OFFCURVE",
"680 293 OFFCURVE",
"680 314 QCURVE SMOOTH",
"680 341 OFFCURVE",
"660 385 OFFCURVE",
"626 418 OFFCURVE",
"578 436 OFFCURVE",
"550 436 QCURVE SMOOTH",
"519 436 OFFCURVE",
"463 411 OFFCURVE",
"435 385 QCURVE",
"475 337 LINE",
"494 361 OFFCURVE",
"531 379 OFFCURVE",
"547 379 QCURVE SMOOTH",
"575 379 OFFCURVE",
"612 342 OFFCURVE",
"612 314 QCURVE SMOOTH",
"612 303 OFFCURVE",
"605 279 OFFCURVE",
"588 248 OFFCURVE",
"560 208 OFFCURVE",
"538 181 QCURVE SMOOTH"
);
}
);
width = 733;
}
);
unicode = 00BD;
},
{
glyphname = threequarters;
layers = (
{
layerId = "0E77000D-43E9-4C80-9DAA-F2DD3D3A742F";
paths = (
{
closed = 1;
nodes = (
"625 167 LINE",
"648 201 OFFCURVE",
"695 268 OFFCURVE",
"715 303 QCURVE",
"718 302 LINE",
"711 270 OFFCURVE",
"714 200 OFFCURVE",
"714 168 QCURVE",
"691 168 OFFCURVE",
"648 167 OFFCURVE",
"625 166 QCURVE"
);
},
{
closed = 1;
nodes = (
"497 78 LINE",
"551 78 OFFCURVE",
"660 79 OFFCURVE",
"714 80 QCURVE",
"711 0 LINE",
"832 0 LINE",
"830 80 LINE",
"844 79 OFFCURVE",
"871 78 OFFCURVE",
"885 78 QCURVE",
"885 170 LINE",
"832 168 LINE",
"832 427 LINE",
"692 427 LINE",
"497 151 LINE"
);
},
{
closed = 1;
nodes = (
"229 2 LINE",
"314 -14 LINE",
"743 702 LINE",
"661 718 LINE"
);
},
{
closed = 1;
nodes = (
"26 424 LINE",
"28 386 OFFCURVE",
"61 331 OFFCURVE",
"112 296 OFFCURVE",
"177 279 OFFCURVE",
"211 279 QCURVE SMOOTH",
"242 279 OFFCURVE",
"306 294 OFFCURVE",
"358 326 OFFCURVE",
"391 378 OFFCURVE",
"391 414 QCURVE SMOOTH",
"391 448 OFFCURVE",
"356 502 OFFCURVE",
"324 515 QCURVE",
"348 527 OFFCURVE",
"374 575 OFFCURVE",
"374 601 QCURVE SMOOTH",
"374 633 OFFCURVE",
"344 678 OFFCURVE",
"297 707 OFFCURVE",
"240 721 OFFCURVE",
"213 721 QCURVE SMOOTH",
"180 721 OFFCURVE",
"121 706 OFFCURVE",
"76 674 OFFCURVE",
"47 624 OFFCURVE",
"43 589 QCURVE",
"169 589 LINE",
"169 606 OFFCURVE",
"191 632 OFFCURVE",
"208 632 QCURVE SMOOTH",
"225 632 OFFCURVE",
"250 610 OFFCURVE",
"250 592 QCURVE SMOOTH",
"250 579 OFFCURVE",
"240 561 OFFCURVE",
"224 551 OFFCURVE",
"203 547 OFFCURVE",
"192 547 QCURVE",
"192 474 LINE",
"209 474 OFFCURVE",
"236 469 OFFCURVE",
"255 457 OFFCURVE",
"265 438 OFFCURVE",
"265 424 QCURVE SMOOTH",
"265 401 OFFCURVE",
"237 369 OFFCURVE",
"212 369 QCURVE SMOOTH",
"188 369 OFFCURVE",
"155 400 OFFCURVE",
"155 424 QCURVE"
);
}
);
width = 913;
},
{
layerId = "A901A9D0-A2D8-4DE6-ABBE-EA4AB0B05523";
paths = (
{
closed = 1;
nodes = (
"482 126 LINE",
"509 168 OFFCURVE",
"562 249 OFFCURVE",
"589 291 QCURVE",
"589 268 LINE SMOOTH",
"589 246 OFFCURVE",
"589 168 OFFCURVE",
"589 126 QCURVE",
"560 126 OFFCURVE",
"521 126 OFFCURVE",
"492 126 QCURVE SMOOTH"
);
},
{
closed = 1;
nodes = (
"402 70 LINE",
"457 70 OFFCURVE",
"560 70 OFFCURVE",
"589 70 QCURVE",
"589 0 LINE",
"653 0 LINE",
"653 70 LINE",
"657 70 OFFCURVE",
"670 70 OFFCURVE",
"678 70 QCURVE",
"696 126 LINE",
"653 126 LINE",
"653 430 LINE",
"612 430 LINE",
"402 108 LINE"
);
},
{
closed = 1;
nodes = (
"136 -19 LINE",
"186 -48 LINE",
"621 720 LINE",
"569 750 LINE"
);
},
{
closed = 1;
nodes = (
"31 287 LINE",
"44 283 OFFCURVE",
"70 277 OFFCURVE",
"96 273 OFFCURVE",
"122 270 OFFCURVE",
"135 270 QCURVE SMOOTH",
"167 270 OFFCURVE",
"223 289 OFFCURVE",
"266 325 OFFCURVE",
"291 377 OFFCURVE",
"291 410 QCURVE SMOOTH",
"291 452 OFFCURVE",
"247 504 OFFCURVE",
"209 520 QCURVE",
"234 537 OFFCURVE",
"268 580 OFFCURVE",
"268 612 QCURVE SMOOTH",
"268 640 OFFCURVE",
"246 679 OFFCURVE",
"209 704 OFFCURVE",
"162 715 OFFCURVE",
"138 715 QCURVE SMOOTH",
"128 715 OFFCURVE",
"107 713 OFFCURVE",
"87 708 OFFCURVE",
"68 702 OFFCURVE",
"58 698 QCURVE",
"55 637 LINE",
"75 647 OFFCURVE",
"118 659 OFFCURVE",
"141 659 QCURVE SMOOTH",
"165 659 OFFCURVE",
"204 633 OFFCURVE",
"204 607 QCURVE SMOOTH",
"204 587 OFFCURVE",
"182 562 OFFCURVE",
"150 549 OFFCURVE",
"113 544 OFFCURVE",
"98 544 QCURVE",
"98 488 LINE",
"119 488 OFFCURVE",
"165 484 OFFCURVE",
"202 468 OFFCURVE",
"227 437 OFFCURVE",
"227 409 QCURVE SMOOTH",
"227 370 OFFCURVE",
"169 326 OFFCURVE",
"133 326 QCURVE SMOOTH",
"107 326 OFFCURVE",
"56 342 OFFCURVE",
"31 351 QCURVE"
);
}
);
width = 721;
}
);
unicode = 00BE;
},
{
glyphname = questiondown;
layers = (
{
layerId = "0E77000D-43E9-4C80-9DAA-F2DD3D3A742F";
paths = (
{
closed = 1;
nodes = (
"295 151 OFFCURVE",
"266 157 OFFCURVE",
"243 170 OFFCURVE",
"229 190 OFFCURVE",
"229 204 QCURVE SMOOTH",
"229 226 OFFCURVE",
"262 266 OFFCURVE",
"282 281 QCURVE SMOOTH",
"299 294 OFFCURVE",
"330 323 OFFCURVE",
"354 360 OFFCURVE",
"369 407 OFFCURVE",
"369 437 QCURVE SMOOTH",
"369 480 LINE",
"195 480 LINE",
"195 449 LINE SMOOTH",
"195 435 OFFCURVE",
"191 415 OFFCURVE",
"180 399 OFFCURVE",
"163 383 OFFCURVE",
"151 373 QCURVE SMOOTH",
"126 354 OFFCURVE",
"85 318 OFFCURVE",
"55 277 OFFCURVE",
"38 227 OFFCURVE",
"38 192 QCURVE SMOOTH",
"38 143 OFFCURVE",
"77 67 OFFCURVE",
"143 16 OFFCURVE",
"228 -11 OFFCURVE",
"274 -11 QCURVE SMOOTH",
"337 -11 OFFCURVE",
"449 35 OFFCURVE",
"488 85 QCURVE",
"488 243 LINE",
"473 229 OFFCURVE",
"434 196 OFFCURVE",
"388 169 OFFCURVE",
"336 151 OFFCURVE",
"309 151 QCURVE SMOOTH"
);
},
{
closed = 1;
nodes = (
"382 662 OFFCURVE",
"320 711 OFFCURVE",
"275 711 QCURVE SMOOTH",
"230 711 OFFCURVE",
"167 662 OFFCURVE",
"167 614 QCURVE SMOOTH",
"167 566 OFFCURVE",
"230 518 OFFCURVE",
"275 518 QCURVE SMOOTH",
"320 518 OFFCURVE",
"382 566 OFFCURVE",
"382 614 QCURVE SMOOTH"
);
}
);
width = 537;
},
{
layerId = "A901A9D0-A2D8-4DE6-ABBE-EA4AB0B05523";
paths = (
{
closed = 1;
nodes = (
"219 -151 OFFCURVE",
"179 -134 OFFCURVE",
"153 -107 OFFCURVE",
"140 -72 OFFCURVE",
"140 -54 QCURVE SMOOTH",
"140 -18 OFFCURVE",
"182 35 OFFCURVE",
"210 61 QCURVE SMOOTH",
"227 77 OFFCURVE",
"260 112 OFFCURVE",
"287 154 OFFCURVE",
"304 206 OFFCURVE",
"304 238 QCURVE SMOOTH",
"304 300 LINE",
"222 300 LINE",
"222 268 LINE SMOOTH",
"222 241 OFFCURVE",
"214 200 OFFCURVE",
"196 165 OFFCURVE",
"168 133 OFFCURVE",
"148 116 QCURVE SMOOTH",
"129 99 OFFCURVE",
"96 61 OFFCURVE",
"72 17 OFFCURVE",
"58 -32 OFFCURVE",
"58 -61 QCURVE SMOOTH",
"58 -98 OFFCURVE",
"83 -159 OFFCURVE",
"129 -203 OFFCURVE",
"195 -227 OFFCURVE",
"235 -227 QCURVE SMOOTH",
"286 -227 OFFCURVE",
"369 -189 OFFCURVE",
"392 -159 QCURVE",
"392 -62 LINE",
"374 -88 OFFCURVE",
"337 -122 OFFCURVE",
"299 -143 OFFCURVE",
"263 -151 OFFCURVE",
"245 -151 QCURVE SMOOTH"
);
},
{
closed = 1;
nodes = (
"318 467 OFFCURVE",
"282 499 OFFCURVE",
"258 499 QCURVE SMOOTH",
"233 499 OFFCURVE",
"197 467 OFFCURVE",
"197 440 QCURVE SMOOTH",
"197 417 OFFCURVE",
"233 381 OFFCURVE",
"258 381 QCURVE SMOOTH",
"282 381 OFFCURVE",
"318 417 OFFCURVE",
"318 440 QCURVE SMOOTH"
);
}
);
width = 434;
}
);
unicode = 00BF;
},
{
glyphname = germandbls;
layers = (
{
layerId = "0E77000D-43E9-4C80-9DAA-F2DD3D3A742F";
paths = (
{
closed = 1;
nodes = (
"247 483 LINE SMOOTH",
"247 507 OFFCURVE",
"259 543 OFFCURVE",
"281 567 OFFCURVE",
"310 580 OFFCURVE",
"327 580 QCURVE SMOOTH",
"358 580 OFFCURVE",
"396 540 OFFCURVE",
"396 505 QCURVE SMOOTH",
"396 486 OFFCURVE",
"383 454 OFFCURVE",
"360 428 OFFCURVE",
"331 406 OFFCURVE",
"314 398 QCURVE",
"314 297 LINE",
"340 295 OFFCURVE",
"381 282 OFFCURVE",
"410 261 OFFCURVE",
"426 232 OFFCURVE",
"426 214 QCURVE SMOOTH",
"426 196 OFFCURVE",
"410 167 OFFCURVE",
"381 146 OFFCURVE",
"340 134 OFFCURVE",
"314 133 QCURVE",
"314 -3 LINE",
"362 -8 OFFCURVE",
"468 9 OFFCURVE",
"557 56 OFFCURVE",
"615 136 OFFCURVE",
"615 194 QCURVE SMOOTH",
"615 230 OFFCURVE",
"590 286 OFFCURVE",
"551 328 OFFCURVE",
"501 356 OFFCURVE",
"475 364 QCURVE",
"519 386 OFFCURVE",
"580 468 OFFCURVE",
"580 530 QCURVE SMOOTH",
"580 574 OFFCURVE",
"545 650 OFFCURVE",
"481 706 OFFCURVE",
"388 739 OFFCURVE",
"330 739 QCURVE SMOOTH",
"264 739 OFFCURVE",
"162 702 OFFCURVE",
"93 633 OFFCURVE",
"58 538 OFFCURVE",
"58 479 QCURVE SMOOTH",
"58 0 LINE",
"247 0 LINE"
);
}
);
width = 648;
},
{
layerId = "A901A9D0-A2D8-4DE6-ABBE-EA4AB0B05523";
paths = (
{
closed = 1;
nodes = (
"156 519 LINE SMOOTH",
"156 549 OFFCURVE",
"172 607 OFFCURVE",
"206 652 OFFCURVE",
"258 680 OFFCURVE",
"295 680 QCURVE SMOOTH",
"349 680 OFFCURVE",
"418 619 OFFCURVE",
"418 564 QCURVE SMOOTH",
"418 534 OFFCURVE",
"396 490 OFFCURVE",
"357 457 OFFCURVE",
"305 433 OFFCURVE",
"275 422 QCURVE",
"275 360 LINE",
"318 354 OFFCURVE",
"388 334 OFFCURVE",
"438 299 OFFCURVE",
"465 247 OFFCURVE",
"465 209 QCURVE SMOOTH",
"465 170 OFFCURVE",
"435 114 OFFCURVE",
"382 79 OFFCURVE",
"309 62 OFFCURVE",
"265 62 QCURVE",
"265 -3 LINE",
"325 -3 OFFCURVE",
"429 23 OFFCURVE",
"505 76 OFFCURVE",
"548 156 OFFCURVE",
"548 209 QCURVE SMOOTH",
"548 248 OFFCURVE",
"521 313 OFFCURVE",
"475 361 OFFCURVE",
"413 393 OFFCURVE",
"378 399 QCURVE",
"431 422 OFFCURVE",
"501 508 OFFCURVE",
"501 572 QCURVE SMOOTH",
"501 613 OFFCURVE",
"471 679 OFFCURVE",
"417 727 OFFCURVE",
"343 753 OFFCURVE",
"299 753 QCURVE SMOOTH",
"241 753 OFFCURVE",
"156 715 OFFCURVE",
"102 651 OFFCURVE",
"76 567 OFFCURVE",
"76 520 QCURVE SMOOTH",
"76 0 LINE",
"156 0 LINE"
);
}
);
width = 592;
}
);
unicode = 00DF;
},
{
glyphname = divide;
layers = (
{
layerId = "0E77000D-43E9-4C80-9DAA-F2DD3D3A742F";
paths = (
{
closed = 1;
nodes = (
"565 355 LINE",
"42 355 LINE",
"42 255 LINE",
"565 255 LINE"
);
},
{
closed = 1;
nodes = (
"378 486 OFFCURVE",
"337 530 OFFCURVE",
"304 530 QCURVE SMOOTH",
"271 530 OFFCURVE",
"229 486 OFFCURVE",
"229 457 QCURVE SMOOTH",
"229 428 OFFCURVE",
"271 385 OFFCURVE",
"304 385 QCURVE SMOOTH",
"337 385 OFFCURVE",
"378 428 OFFCURVE",
"378 457 QCURVE SMOOTH"
);
},
{
closed = 1;
nodes = (
"378 184 OFFCURVE",
"337 226 OFFCURVE",
"304 226 QCURVE SMOOTH",
"271 226 OFFCURVE",
"229 184 OFFCURVE",
"229 155 QCURVE SMOOTH",
"229 125 OFFCURVE",
"271 81 OFFCURVE",
"304 81 QCURVE SMOOTH",
"337 81 OFFCURVE",
"378 125 OFFCURVE",
"378 155 QCURVE SMOOTH"
);
}
);
width = 607;
},
{
layerId = "A901A9D0-A2D8-4DE6-ABBE-EA4AB0B05523";
paths = (
{
closed = 1;
nodes = (
"552 336 LINE",
"42 336 LINE",
"42 270 LINE",
"552 270 LINE"
);
},
{
closed = 1;
nodes = (
"355 486 OFFCURVE",
"322 521 OFFCURVE",
"296 521 QCURVE SMOOTH",
"270 521 OFFCURVE",
"239 486 OFFCURVE",
"239 463 QCURVE SMOOTH",
"239 440 OFFCURVE",
"270 407 OFFCURVE",
"296 407 QCURVE SMOOTH",
"322 407 OFFCURVE",
"355 440 OFFCURVE",
"355 463 QCURVE SMOOTH"
);
},
{
closed = 1;
nodes = (
"355 169 OFFCURVE",
"322 200 OFFCURVE",
"296 200 QCURVE SMOOTH",
"270 200 OFFCURVE",
"239 169 OFFCURVE",
"239 144 QCURVE SMOOTH",
"239 121 OFFCURVE",
"270 86 OFFCURVE",
"296 86 QCURVE SMOOTH",
"322 86 OFFCURVE",
"355 121 OFFCURVE",
"355 144 QCURVE SMOOTH"
);
}
);
width = 594;
}
);
unicode = 00F7;
},
{
glyphname = oslash;
layers = (
{
layerId = "0E77000D-43E9-4C80-9DAA-F2DD3D3A742F";
paths = (
{
closed = 1;
nodes = (
"458 322 LINE",
"463 310 OFFCURVE",
"468 284 OFFCURVE",
"468 270 QCURVE SMOOTH",
"468 243 OFFCURVE",
"451 196 OFFCURVE",
"419 161 OFFCURVE",
"374 140 OFFCURVE",
"347 140 QCURVE SMOOTH",
"335 140 OFFCURVE",
"313 144 OFFCURVE",
"303 148 QCURVE"
);
},
{
closed = 1;
nodes = (
"234 218 LINE",
"229 230 OFFCURVE",
"224 256 OFFCURVE",
"224 270 QCURVE SMOOTH",
"224 297 OFFCURVE",
"241 344 OFFCURVE",
"273 379 OFFCURVE",
"318 400 OFFCURVE",
"345 400 QCURVE SMOOTH",
"357 400 OFFCURVE",
"380 396 OFFCURVE",
"390 391 QCURVE"
);
},
{
closed = 1;
nodes = (
"32 -5 LINE",
"100 -70 LINE",
"193 25 LINE",
"226 7 OFFCURVE",
"302 -13 OFFCURVE",
"345 -13 QCURVE SMOOTH",
"410 -13 OFFCURVE",
"520 32 OFFCURVE",
"600 109 OFFCURVE",
"645 212 OFFCURVE",
"645 270 QCURVE SMOOTH",
"645 324 OFFCURVE",
"609 417 OFFCURVE",
"577 454 QCURVE",
"660 546 LINE",
"576 608 LINE",
"498 515 LINE",
"466 533 OFFCURVE",
"389 553 OFFCURVE",
"347 553 QCURVE SMOOTH",
"282 553 OFFCURVE",
"172 508 OFFCURVE",
"92 431 OFFCURVE",
"47 328 OFFCURVE",
"47 270 QCURVE SMOOTH",
"47 216 OFFCURVE",
"83 124 OFFCURVE",
"115 87 QCURVE"
);
}
);
width = 693;
},
{
layerId = "A901A9D0-A2D8-4DE6-ABBE-EA4AB0B05523";
paths = (
{
closed = 1;
nodes = (
"443 344 LINE",
"457 321 OFFCURVE",
"474 268 OFFCURVE",
"474 236 QCURVE SMOOTH",
"474 197 OFFCURVE",
"449 131 OFFCURVE",
"403 81 OFFCURVE",
"339 53 OFFCURVE",
"299 53 QCURVE SMOOTH",
"267 53 OFFCURVE",
"216 71 OFFCURVE",
"194 88 QCURVE"
);
},
{
closed = 1;
nodes = (
"161 127 LINE",
"144 150 OFFCURVE",
"131 202 OFFCURVE",
"131 236 QCURVE SMOOTH",
"131 274 OFFCURVE",
"155 340 OFFCURVE",
"199 390 OFFCURVE",
"262 418 OFFCURVE",
"302 418 QCURVE SMOOTH",
"336 418 OFFCURVE",
"388 399 OFFCURVE",
"408 382 QCURVE"
);
},
{
closed = 1;
nodes = (
"40 4 LINE",
"79 -35 LINE",
"147 39 LINE",
"179 13 OFFCURVE",
"253 -12 OFFCURVE",
"301 -12 QCURVE SMOOTH",
"356 -12 OFFCURVE",
"449 26 OFFCURVE",
"516 92 OFFCURVE",
"554 183 OFFCURVE",
"554 236 QCURVE SMOOTH",
"554 287 OFFCURVE",
"523 365 OFFCURVE",
"497 398 QCURVE",
"546 451 LINE",
"512 489 LINE",
"457 435 LINE",
"425 461 OFFCURVE",
"346 483 OFFCURVE",
"301 483 QCURVE SMOOTH",
"246 483 OFFCURVE",
"154 445 OFFCURVE",
"88 379 OFFCURVE",
"51 289 OFFCURVE",
"51 236 QCURVE SMOOTH",
"51 189 OFFCURVE",
"80 110 OFFCURVE",
"109 74 QCURVE"
);
}
);
width = 594;
}
);
unicode = 00F8;
},
{
glyphname = fraction;
layers = (
{
layerId = "0E77000D-43E9-4C80-9DAA-F2DD3D3A742F";
paths = (
{
closed = 1;
nodes = (
"579 957 LINE",
"425 957 LINE",
"-18 31 LINE",
"136 31 LINE"
);
}
);
width = 561;
},
{
layerId = "A901A9D0-A2D8-4DE6-ABBE-EA4AB0B05523";
paths = (
{
closed = 1;
nodes = (
"361 749 LINE",
"290 764 LINE",
"-164 -44 LINE",
"-95 -57 LINE"
);
}
);
width = 196;
}
);
unicode = 2044;
},
{
glyphname = breve;
layers = (
{
layerId = "0E77000D-43E9-4C80-9DAA-F2DD3D3A742F";
paths = (
{
closed = 1;
nodes = (
"240 717 LINE",
"231 686 OFFCURVE",
"198 651 OFFCURVE",
"176 651 QCURVE SMOOTH",
"154 651 OFFCURVE",
"118 686 OFFCURVE",
"109 717 QCURVE",
"5 717 LINE",
"8 676 OFFCURVE",
"36 609 OFFCURVE",
"81 561 OFFCURVE",
"140 534 OFFCURVE",
"174 534 QCURVE SMOOTH",
"209 534 OFFCURVE",
"268 561 OFFCURVE",
"313 609 OFFCURVE",
"341 676 OFFCURVE",
"344 717 QCURVE"
);
}
);
width = 349;
},
{
layerId = "A901A9D0-A2D8-4DE6-ABBE-EA4AB0B05523";
paths = (
{
closed = 1;
nodes = (
"272 720 LINE",
"263 685 OFFCURVE",
"214 647 OFFCURVE",
"178 647 QCURVE SMOOTH",
"141 647 OFFCURVE",
"90 685 OFFCURVE",
"81 720 QCURVE",
"27 720 LINE",
"31 689 OFFCURVE",
"55 637 OFFCURVE",
"93 601 OFFCURVE",
"144 581 OFFCURVE",
"175 581 QCURVE SMOOTH",
"206 581 OFFCURVE",
"259 601 OFFCURVE",
"298 637 OFFCURVE",
"323 689 OFFCURVE",
"326 720 QCURVE"
);
}
);
width = 353;
}
);
unicode = 02D8;
},
{
glyphname = dotaccent;
layers = (
{
layerId = "0E77000D-43E9-4C80-9DAA-F2DD3D3A742F";
paths = (
{
closed = 1;
nodes = (
"191 652 OFFCURVE",
"142 694 OFFCURVE",
"113 694 QCURVE SMOOTH",
"84 694 OFFCURVE",
"36 652 OFFCURVE",
"36 619 QCURVE SMOOTH",
"36 584 OFFCURVE",
"84 542 OFFCURVE",
"113 542 QCURVE SMOOTH",
"142 542 OFFCURVE",
"191 584 OFFCURVE",
"191 619 QCURVE SMOOTH"
);
}
);
width = 305;
},
{
layerId = "A901A9D0-A2D8-4DE6-ABBE-EA4AB0B05523";
paths = (
{
closed = 1;
nodes = (
"195 665 OFFCURVE",
"163 694 OFFCURVE",
"143 694 QCURVE SMOOTH",
"123 694 OFFCURVE",
"93 665 OFFCURVE",
"93 643 QCURVE SMOOTH",
"93 620 OFFCURVE",
"123 591 OFFCURVE",
"143 591 QCURVE SMOOTH",
"163 591 OFFCURVE",
"195 620 OFFCURVE",
"195 643 QCURVE SMOOTH"
);
}
);
width = 311;
}
);
unicode = 02D9;
},
{
glyphname = ring;
layers = (
{
layerId = "0E77000D-43E9-4C80-9DAA-F2DD3D3A742F";
paths = (
{
closed = 1;
nodes = (
"331 671 OFFCURVE",
"311 714 OFFCURVE",
"278 746 OFFCURVE",
"233 765 OFFCURVE",
"207 765 QCURVE SMOOTH",
"183 765 OFFCURVE",
"138 746 OFFCURVE",
"104 714 OFFCURVE",
"84 670 OFFCURVE",
"84 645 QCURVE SMOOTH",
"84 620 OFFCURVE",
"104 576 OFFCURVE",
"138 543 OFFCURVE",
"183 525 OFFCURVE",
"207 525 QCURVE SMOOTH",
"233 525 OFFCURVE",
"278 543 OFFCURVE",
"311 576 OFFCURVE",
"331 620 OFFCURVE",
"331 646 QCURVE SMOOTH"
);
},
{
closed = 1;
nodes = (
"231 634 OFFCURVE",
"218 621 OFFCURVE",
"207 621 QCURVE SMOOTH",
"197 621 OFFCURVE",
"184 635 OFFCURVE",
"184 646 QCURVE SMOOTH",
"184 655 OFFCURVE",
"197 669 OFFCURVE",
"207 669 QCURVE SMOOTH",
"218 669 OFFCURVE",
"231 655 OFFCURVE",
"231 645 QCURVE SMOOTH"
);
}
);
width = 414;
},
{
layerId = "A901A9D0-A2D8-4DE6-ABBE-EA4AB0B05523";
paths = (
{
closed = 1;
nodes = (
"246 689 OFFCURVE",
"230 727 OFFCURVE",
"202 755 OFFCURVE",
"164 771 OFFCURVE",
"143 771 QCURVE SMOOTH",
"123 771 OFFCURVE",
"87 755 OFFCURVE",
"59 728 OFFCURVE",
"43 691 OFFCURVE",
"43 670 QCURVE SMOOTH",
"43 649 OFFCURVE",
"59 613 OFFCURVE",
"87 586 OFFCURVE",
"123 571 OFFCURVE",
"143 571 QCURVE SMOOTH",
"165 571 OFFCURVE",
"202 586 OFFCURVE",
"230 611 OFFCURVE",
"246 647 OFFCURVE",
"246 668 QCURVE SMOOTH"
);
},
{
closed = 1;
nodes = (
"202 647 OFFCURVE",
"171 615 OFFCURVE",
"145 615 QCURVE SMOOTH",
"121 615 OFFCURVE",
"87 645 OFFCURVE",
"87 671 QCURVE SMOOTH",
"87 694 OFFCURVE",
"120 727 OFFCURVE",
"145 727 QCURVE SMOOTH",
"170 727 OFFCURVE",
"202 693 OFFCURVE",
"202 670 QCURVE SMOOTH"
);
}
);
width = 307;
}
);
unicode = 02DA;
},
{
glyphname = hungarumlaut;
layers = (
{
layerId = "0E77000D-43E9-4C80-9DAA-F2DD3D3A742F";
paths = (
{
closed = 1;
nodes = (
"265 697 LINE",
"111 726 LINE",
"-23 530 LINE",
"106 530 LINE"
);
},
{
closed = 1;
nodes = (
"497 698 LINE",
"342 726 LINE",
"210 530 LINE",
"338 530 LINE"
);
}
);
width = 439;
},
{
layerId = "A901A9D0-A2D8-4DE6-ABBE-EA4AB0B05523";
paths = (
{
closed = 1;
nodes = (
"236 709 LINE",
"147 725 LINE",
"46 576 LINE",
"112 576 LINE"
);
},
{
closed = 1;
nodes = (
"389 707 LINE",
"300 725 LINE",
"199 576 LINE",
"263 576 LINE"
);
}
);
width = 333;
}
);
unicode = 02DD;
},
{
glyphname = ogonek;
layers = (
{
layerId = "0E77000D-43E9-4C80-9DAA-F2DD3D3A742F";
paths = (
{
closed = 1;
nodes = (
"245 -52 LINE",
"223 -61 OFFCURVE",
"197 -67 OFFCURVE",
"189 -67 QCURVE SMOOTH",
"177 -67 OFFCURVE",
"159 -56 OFFCURVE",
"159 -43 QCURVE SMOOTH",
"159 -37 OFFCURVE",
"164 -21 OFFCURVE",
"179 4 OFFCURVE",
"204 41 OFFCURVE",
"225 66 QCURVE",
"99 66 LINE",
"76 40 OFFCURVE",
"36 -24 OFFCURVE",
"36 -62 QCURVE SMOOTH",
"36 -113 OFFCURVE",
"109 -172 OFFCURVE",
"164 -172 QCURVE SMOOTH",
"189 -172 OFFCURVE",
"242 -159 OFFCURVE",
"268 -145 QCURVE"
);
}
);
width = 303;
},
{
layerId = "A901A9D0-A2D8-4DE6-ABBE-EA4AB0B05523";
paths = (
{
closed = 1;
nodes = (
"236 -127 LINE",
"222 -131 OFFCURVE",
"202 -135 OFFCURVE",
"192 -135 QCURVE SMOOTH",
"166 -135 OFFCURVE",
"134 -104 OFFCURVE",
"134 -80 QCURVE SMOOTH",
"134 -69 OFFCURVE",
"140 -47 OFFCURVE",
"150 -25 OFFCURVE",
"166 -2 OFFCURVE",
"175 12 QCURVE",
"115 12 LINE",
"98 -10 OFFCURVE",
"66 -63 OFFCURVE",
"66 -92 QCURVE SMOOTH",
"66 -137 OFFCURVE",
"130 -185 OFFCURVE",
"178 -185 QCURVE SMOOTH",
"194 -185 OFFCURVE",
"227 -178 OFFCURVE",
"246 -170 QCURVE"
);
}
);
width = 312;
}
);
unicode = 02DB;
},
{
glyphname = caron;
layers = (
{
layerId = "0E77000D-43E9-4C80-9DAA-F2DD3D3A742F";
paths = (
{
closed = 1;
nodes = (
"241 717 LINE",
"185 654 LINE",
"127 717 LINE",
"-13 717 LINE",
"133 530 LINE",
"233 530 LINE",
"378 717 LINE"
);
}
);
width = 366;
},
{
layerId = "A901A9D0-A2D8-4DE6-ABBE-EA4AB0B05523";
paths = (
{
closed = 1;
nodes = (
"251 719 LINE",
"173 633 LINE",
"96 719 LINE",
"24 719 LINE",
"136 576 LINE",
"211 576 LINE",
"322 719 LINE"
);
}
);
width = 346;
}
);
unicode = 02C7;
},
{
glyphname = dotlessi;
layers = (
{
layerId = "0E77000D-43E9-4C80-9DAA-F2DD3D3A742F";
paths = (
{
closed = 1;
nodes = (
"248 541 LINE",
"58 541 LINE",
"58 0 LINE",
"248 0 LINE"
);
}
);
width = 307;
},
{
layerId = "A901A9D0-A2D8-4DE6-ABBE-EA4AB0B05523";
paths = (
{
closed = 1;
nodes = (
"157 482 LINE",
"76 482 LINE",
"76 0 LINE",
"157 0 LINE"
);
}
);
width = 233;
}
);
unicode = 0131;
},
{
glyphname = greaterequal;
layers = (
{
layerId = "0E77000D-43E9-4C80-9DAA-F2DD3D3A742F";
paths = (
{
closed = 1;
nodes = (
"579 349 LINE",
"579 453 LINE",
"58 648 LINE",
"58 521 LINE",
"377 401 LINE",
"58 284 LINE",
"58 154 LINE"
);
},
{
closed = 1;
nodes = (
"579 1 LINE",
"579 119 LINE",
"58 119 LINE",
"58 1 LINE"
);
}
);
width = 636;
},
{
layerId = "A901A9D0-A2D8-4DE6-ABBE-EA4AB0B05523";
paths = (
{
closed = 1;
nodes = (
"571 298 LINE",
"571 367 LINE",
"69 557 LINE",
"69 483 LINE",
"473 332 LINE",
"69 184 LINE",
"69 110 LINE"
);
},
{
closed = 1;
nodes = (
"571 6 LINE",
"571 74 LINE",
"69 74 LINE",
"69 6 LINE"
);
}
);
width = 640;
}
);
unicode = 2265;
},
{
glyphname = radical;
layers = (
{
layerId = "0E77000D-43E9-4C80-9DAA-F2DD3D3A742F";
paths = (
{
closed = 1;
nodes = (
"568 783 LINE",
"437 783 LINE",
"282 7 LINE",
"171 241 LINE",
"17 173 LINE",
"68 66 LINE",
"109 86 LINE",
"250 -210 LINE",
"365 -210 LINE"
);
}
);
width = 541;
},
{
layerId = "A901A9D0-A2D8-4DE6-ABBE-EA4AB0B05523";
paths = (
{
closed = 1;
nodes = (
"548 783 LINE",
"474 783 LINE",
"291 -108 LINE",
"142 209 LINE",
"34 160 LINE",
"61 101 LINE",
"107 122 LINE",
"267 -211 LINE",
"340 -211 LINE"
);
}
);
width = 531;
}
);
unicode = 221A;
},
{
glyphname = notequal;
layers = (
{
layerId = "0E77000D-43E9-4C80-9DAA-F2DD3D3A742F";
paths = (
{
closed = 1;
nodes = (
"563 99 LINE",
"563 217 LINE",
"356 217 LINE",
"392 289 LINE",
"572 289 LINE",
"572 410 LINE",
"457 410 LINE",
"498 488 LINE",
"390 547 LINE",
"317 410 LINE",
"51 410 LINE",
"51 289 LINE",
"253 289 LINE",
"217 217 LINE",
"42 217 LINE",
"42 99 LINE",
"154 99 LINE",
"112 22 LINE",
"220 -35 LINE",
"290 99 LINE"
);
}
);
width = 614;
},
{
layerId = "A901A9D0-A2D8-4DE6-ABBE-EA4AB0B05523";
paths = (
{
closed = 1;
nodes = (
"544 118 LINE",
"544 186 LINE",
"300 186 LINE",
"362 308 LINE",
"545 308 LINE",
"545 376 LINE",
"399 376 LINE",
"459 488 LINE",
"400 522 LINE",
"323 376 LINE",
"43 376 LINE",
"43 308 LINE",
"286 308 LINE",
"223 186 LINE",
"42 186 LINE",
"42 118 LINE",
"187 118 LINE",
"127 7 LINE",
"187 -26 LINE",
"262 118 LINE"
);
}
);
width = 587;
}
);
unicode = 2260;
},
{
glyphname = product;
layers = (
{
layerId = "0E77000D-43E9-4C80-9DAA-F2DD3D3A742F";
paths = (
{
closed = 1;
nodes = (
"596 -210 LINE",
"596 783 LINE",
"12 783 LINE",
"12 -210 LINE",
"141 -210 LINE",
"141 662 LINE",
"467 662 LINE",
"467 -210 LINE"
);
}
);
width = 609;
},
{
layerId = "A901A9D0-A2D8-4DE6-ABBE-EA4AB0B05523";
paths = (
{
closed = 1;
nodes = (
"578 -211 LINE",
"578 783 LINE",
"9 783 LINE",
"9 -211 LINE",
"84 -211 LINE",
"84 713 LINE",
"503 713 LINE",
"503 -211 LINE"
);
}
);
width = 588;
}
);
unicode = 220F;
},
{
glyphname = summation;
layers = (
{
layerId = "0E77000D-43E9-4C80-9DAA-F2DD3D3A742F";
paths = (
{
closed = 1;
nodes = (
"593 -210 LINE",
"593 -89 LINE",
"191 -89 LINE",
"464 294 LINE",
"206 663 LINE",
"582 663 LINE",
"582 784 LINE",
"30 784 LINE",
"30 691 LINE",
"309 296 LINE",
"18 -117 LINE",
"18 -210 LINE"
);
}
);
width = 604;
},
{
layerId = "A901A9D0-A2D8-4DE6-ABBE-EA4AB0B05523";
paths = (
{
closed = 1;
nodes = (
"561 -211 LINE",
"561 -141 LINE",
"102 -141 LINE",
"421 290 LINE",
"119 713 LINE",
"550 713 LINE",
"550 783 LINE",
"22 783 LINE",
"22 723 LINE",
"331 290 LINE",
"9 -150 LINE",
"9 -211 LINE"
);
}
);
width = 554;
}
);
unicode = 2211;
},
{
glyphname = lessequal;
layers = (
{
layerId = "0E77000D-43E9-4C80-9DAA-F2DD3D3A742F";
paths = (
{
closed = 1;
nodes = (
"579 154 LINE",
"579 284 LINE",
"264 400 LINE",
"579 521 LINE",
"579 648 LINE",
"58 453 LINE",
"58 349 LINE"
);
},
{
closed = 1;
nodes = (
"579 0 LINE",
"579 118 LINE",
"58 118 LINE",
"58 0 LINE"
);
}
);
width = 636;
},
{
layerId = "A901A9D0-A2D8-4DE6-ABBE-EA4AB0B05523";
paths = (
{
closed = 1;
nodes = (
"571 110 LINE",
"571 184 LINE",
"171 332 LINE",
"571 483 LINE",
"571 557 LINE",
"69 367 LINE",
"69 298 LINE"
);
},
{
closed = 1;
nodes = (
"571 6 LINE",
"571 74 LINE",
"69 74 LINE",
"69 6 LINE"
);
}
);
width = 640;
}
);
unicode = 2264;
},
{
glyphname = uni02C9;
layers = (
{
layerId = "0E77000D-43E9-4C80-9DAA-F2DD3D3A742F";
paths = (
{
closed = 1;
nodes = (
"270 838 LINE",
"-43 838 LINE",
"-43 723 LINE",
"270 723 LINE"
);
}
);
width = 239;
},
{
layerId = "A901A9D0-A2D8-4DE6-ABBE-EA4AB0B05523";
paths = (
{
closed = 1;
nodes = (
"315 851 LINE",
"40 851 LINE",
"40 787 LINE",
"315 787 LINE"
);
}
);
width = 354;
}
);
unicode = 02C9;
},
{
glyphname = lozenge;
layers = (
{
layerId = "0E77000D-43E9-4C80-9DAA-F2DD3D3A742F";
paths = (
{
closed = 1;
nodes = (
"479 355 LINE",
"310 745 LINE",
"206 745 LINE",
"40 355 LINE",
"206 -34 LINE",
"310 -34 LINE"
);
},
{
closed = 1;
nodes = (
"346 354 LINE",
"258 148 LINE",
"172 356 LINE",
"258 561 LINE"
);
}
);
width = 519;
},
{
layerId = "A901A9D0-A2D8-4DE6-ABBE-EA4AB0B05523";
paths = (
{
closed = 1;
nodes = (
"455 355 LINE",
"284 745 LINE",
"217 745 LINE",
"47 355 LINE",
"217 -35 LINE",
"284 -35 LINE"
);
},
{
closed = 1;
nodes = (
"380 356 LINE",
"251 50 LINE",
"122 355 LINE",
"251 661 LINE"
);
}
);
width = 502;
}
);
unicode = 25CA;
},
{
glyphname = minus;
layers = (
{
layerId = "0E77000D-43E9-4C80-9DAA-F2DD3D3A742F";
paths = (
{
closed = 1;
nodes = (
"571 366 LINE",
"42 366 LINE",
"42 247 LINE",
"571 247 LINE"
);
}
);
width = 613;
},
{
layerId = "A901A9D0-A2D8-4DE6-ABBE-EA4AB0B05523";
paths = (
{
closed = 1;
nodes = (
"552 337 LINE",
"42 337 LINE",
"42 269 LINE",
"552 269 LINE"
);
}
);
width = 594;
}
);
unicode = 2212;
},
{
glyphname = uni2215;
layers = (
{
layerId = "0E77000D-43E9-4C80-9DAA-F2DD3D3A742F";
paths = (
{
closed = 1;
nodes = (
"408 897 LINE",
"283 957 LINE",
"-160 31 LINE",
"-35 -29 LINE"
);
}
);
width = 277;
},
{
layerId = "A901A9D0-A2D8-4DE6-ABBE-EA4AB0B05523";
paths = (
{
closed = 1;
nodes = (
"344 718 LINE",
"282 750 LINE",
"-164 0 LINE",
"-103 -31 LINE"
);
}
);
width = 179;
}
);
unicode = 2215;
},
